<svg xmlns="http://www.w3.org/2000/svg" xmlns:xlink="http://www.w3.org/1999/xlink" width="500" zoomAndPan="magnify" viewBox="0 0 375 374.999991" height="500" preserveAspectRatio="xMidYMid meet" version="1.0"><defs><clipPath id="be77b73c17"><path d="M 81.753906 81.753906 L 293.253906 81.753906 L 293.253906 293.253906 L 81.753906 293.253906 Z M 81.753906 81.753906 " clip-rule="nonzero"/></clipPath></defs><g clip-path="url(#be77b73c17)"><path fill="#ffffff" d="M 111.011719 234.722656 C 94.878906 234.722656 81.753906 247.847656 81.753906 263.980469 C 81.753906 280.113281 94.878906 293.242188 111.011719 293.242188 C 127.144531 293.242188 140.269531 280.117188 140.269531 263.984375 C 140.273438 247.851562 127.144531 234.722656 111.011719 234.722656 Z M 111.011719 287.976562 C 97.78125 287.976562 87.019531 277.214844 87.019531 263.984375 C 87.019531 250.757812 97.78125 239.992188 111.011719 239.992188 C 124.242188 239.992188 135.003906 250.757812 135.003906 263.984375 C 135.007812 277.214844 124.242188 287.976562 111.011719 287.976562 Z M 122.449219 273.1875 C 123.398438 274.292969 123.269531 275.949219 122.164062 276.898438 C 121.058594 277.847656 119.402344 277.71875 118.453125 276.613281 C 116.589844 274.4375 113.871094 273.1875 111.011719 273.1875 C 108.144531 273.1875 105.433594 274.433594 103.570312 276.613281 C 103.046875 277.21875 102.308594 277.535156 101.570312 277.535156 C 100.964844 277.535156 100.355469 277.328125 99.859375 276.902344 C 98.753906 275.953125 98.625 274.296875 99.574219 273.191406 C 102.441406 269.847656 106.609375 267.925781 111.011719 267.925781 C 115.417969 267.925781 119.585938 269.84375 122.449219 273.1875 Z M 102.144531 258.847656 L 102.144531 253.0625 C 102.144531 251.613281 103.324219 250.429688 104.777344 250.429688 C 106.230469 250.429688 107.410156 251.613281 107.410156 253.0625 L 107.410156 258.847656 C 107.410156 260.300781 106.230469 261.480469 104.777344 261.480469 C 103.324219 261.480469 102.144531 260.304688 102.144531 258.847656 Z M 114.617188 258.847656 L 114.617188 253.0625 C 114.617188 251.613281 115.796875 250.429688 117.25 250.429688 C 118.703125 250.429688 119.882812 251.613281 119.882812 253.0625 L 119.882812 258.847656 C 119.882812 260.300781 118.703125 261.480469 117.25 261.480469 C 115.796875 261.480469 114.617188 260.304688 114.617188 258.847656 Z M 263.984375 234.722656 C 247.851562 234.722656 234.722656 247.851562 234.722656 263.984375 C 234.722656 280.117188 247.851562 293.242188 263.984375 293.242188 C 280.117188 293.242188 293.242188 280.117188 293.242188 263.984375 C 293.242188 247.847656 280.113281 234.722656 263.984375 234.722656 Z M 263.984375 287.976562 C 250.757812 287.976562 239.988281 277.214844 239.988281 263.984375 C 239.988281 250.757812 250.75 239.988281 263.984375 239.988281 C 277.21875 239.988281 287.976562 250.75 287.976562 263.984375 C 287.976562 277.214844 277.214844 287.976562 263.984375 287.976562 Z M 255.113281 258.847656 L 255.113281 253.0625 C 255.113281 251.613281 256.292969 250.429688 257.746094 250.429688 C 259.199219 250.429688 260.378906 251.613281 260.378906 253.0625 L 260.378906 258.847656 C 260.378906 260.300781 259.199219 261.480469 257.746094 261.480469 C 256.292969 261.480469 255.113281 260.304688 255.113281 258.847656 Z M 267.585938 258.847656 L 267.585938 253.0625 C 267.585938 251.613281 268.769531 250.429688 270.21875 250.429688 C 271.671875 250.429688 272.851562 251.613281 272.851562 253.0625 L 272.851562 258.847656 C 272.851562 260.300781 271.671875 261.480469 270.21875 261.480469 C 268.769531 261.480469 267.585938 260.304688 267.585938 258.847656 Z M 275.421875 272.269531 C 272.554688 275.613281 268.386719 277.535156 263.984375 277.535156 C 259.578125 277.535156 255.410156 275.617188 252.546875 272.269531 C 251.597656 271.164062 251.726562 269.503906 252.832031 268.558594 C 253.9375 267.609375 255.59375 267.738281 256.542969 268.84375 C 258.40625 271.019531 261.121094 272.269531 263.984375 272.269531 C 266.851562 272.269531 269.5625 271.019531 271.425781 268.84375 C 272.375 267.738281 274.03125 267.609375 275.136719 268.558594 C 276.238281 269.503906 276.367188 271.167969 275.421875 272.269531 Z M 187.5 234.722656 C 171.363281 234.722656 158.238281 247.851562 158.238281 263.984375 C 158.238281 280.117188 171.363281 293.246094 187.5 293.246094 C 203.632812 293.246094 216.761719 280.117188 216.761719 263.984375 C 216.761719 247.847656 203.632812 234.722656 187.5 234.722656 Z M 187.5 287.976562 C 174.269531 287.976562 163.5 277.214844 163.5 263.980469 C 163.5 250.75 174.265625 239.984375 187.5 239.984375 C 200.730469 239.984375 211.496094 250.746094 211.496094 263.980469 C 211.496094 277.214844 200.726562 287.976562 187.5 287.976562 Z M 201.175781 273.175781 C 201.175781 274.628906 199.996094 275.808594 198.542969 275.808594 L 176.449219 275.808594 C 174.996094 275.808594 173.816406 274.628906 173.816406 273.175781 C 173.816406 271.726562 174.996094 270.542969 176.449219 270.542969 L 198.542969 270.542969 C 200 270.542969 201.175781 271.726562 201.175781 273.175781 Z M 178.625 259.339844 L 178.625 253.554688 C 178.625 252.101562 179.804688 250.921875 181.257812 250.921875 C 182.710938 250.921875 183.890625 252.101562 183.890625 253.554688 L 183.890625 259.339844 C 183.890625 260.789062 182.710938 261.972656 181.257812 261.972656 C 179.804688 261.972656 178.625 260.796875 178.625 259.339844 Z M 191.105469 259.339844 L 191.105469 253.554688 C 191.105469 252.101562 192.285156 250.921875 193.738281 250.921875 C 195.191406 250.921875 196.371094 252.101562 196.371094 253.554688 L 196.371094 259.339844 C 196.371094 260.789062 195.191406 261.972656 193.738281 261.972656 C 192.285156 261.972656 191.105469 260.796875 191.105469 259.339844 Z M 234.390625 147.410156 L 187.214844 165.734375 C 185.429688 165.789062 183.640625 166.042969 181.875 166.515625 C 175.917969 168.113281 170.941406 171.929688 167.859375 177.269531 C 164.777344 182.609375 163.957031 188.828125 165.554688 194.78125 C 167.152344 200.734375 170.96875 205.710938 176.308594 208.796875 C 179.867188 210.851562 183.8125 211.898438 187.808594 211.898438 C 189.816406 211.898438 191.832031 211.636719 193.820312 211.105469 C 199.773438 209.507812 204.75 205.691406 207.835938 200.351562 C 208.699219 198.855469 209.378906 197.28125 209.882812 195.671875 L 245.667969 166.929688 C 248 173.515625 249.179688 180.417969 249.179688 187.503906 C 249.179688 188.953125 250.359375 190.136719 251.8125 190.136719 L 290.609375 190.136719 C 292.0625 190.136719 293.242188 188.953125 293.242188 187.503906 C 293.242188 170.386719 289.074219 153.460938 281.175781 138.410156 L 285.527344 134.910156 C 286.890625 133.820312 287.246094 131.933594 286.371094 130.421875 C 285.496094 128.910156 283.6875 128.273438 282.058594 128.90625 L 276.839844 130.929688 C 267.667969 116.476562 255.046875 104.359375 240.207031 95.8125 C 224.246094 86.609375 206.019531 81.753906 187.5 81.753906 C 159.253906 81.753906 132.699219 92.753906 112.726562 112.726562 C 92.753906 132.699219 81.753906 159.253906 81.753906 187.5 C 81.753906 188.949219 82.933594 190.128906 84.386719 190.128906 L 123.179688 190.128906 C 124.632812 190.128906 125.8125 188.949219 125.8125 187.5 C 125.8125 153.484375 153.484375 125.8125 187.5 125.8125 C 205.742188 125.8125 222.640625 133.644531 234.390625 147.410156 Z M 190.128906 87.054688 C 206.34375 87.46875 221.800781 91.671875 235.496094 99.097656 L 218.695312 128.199219 C 209.988281 123.613281 200.28125 120.988281 190.128906 120.601562 Z M 184.867188 120.601562 C 174.597656 121.003906 164.914062 123.71875 156.332031 128.25 L 139.566406 99.210938 C 153.097656 91.835938 168.5 87.476562 184.867188 87.054688 Z M 210.140625 182.835938 C 208.542969 176.878906 204.722656 171.902344 199.382812 168.820312 C 198.589844 168.359375 197.773438 167.960938 196.945312 167.601562 L 273.363281 137.921875 L 210.917969 188.085938 C 210.859375 186.332031 210.605469 184.570312 210.140625 182.835938 Z M 203.277344 197.710938 C 200.898438 201.832031 197.054688 204.78125 192.460938 206.011719 C 187.867188 207.242188 183.0625 206.609375 178.941406 204.230469 C 174.820312 201.851562 171.875 198.007812 170.644531 193.414062 C 168.105469 183.925781 173.75 174.136719 183.242188 171.597656 C 184.777344 171.183594 186.335938 170.984375 187.878906 170.984375 C 190.964844 170.984375 194.015625 171.792969 196.757812 173.378906 C 200.875 175.757812 203.824219 179.601562 205.054688 184.195312 C 206.285156 188.792969 205.65625 193.59375 203.277344 197.710938 Z M 287.941406 184.867188 L 254.398438 184.867188 C 254.113281 177.484375 252.632812 170.300781 249.996094 163.449219 L 276.988281 141.765625 C 283.785156 155.058594 287.546875 169.851562 287.941406 184.867188 Z M 271.84375 132.867188 L 239.566406 145.402344 C 234.871094 139.59375 229.363281 134.703125 223.253906 130.839844 L 240.054688 101.734375 C 252.617188 109.449219 263.496094 119.984375 271.84375 132.867188 Z M 120.597656 184.867188 L 87.054688 184.867188 C 87.476562 168.5 91.835938 153.097656 99.210938 139.566406 L 128.253906 156.335938 C 123.722656 164.917969 120.996094 174.597656 120.597656 184.867188 Z M 130.898438 151.777344 L 101.855469 135.011719 C 110.148438 121.527344 121.527344 110.148438 135.011719 101.855469 L 151.777344 130.898438 C 143.367188 136.222656 136.222656 143.367188 130.898438 151.777344 Z M 130.898438 151.777344 " fill-opacity="1" fill-rule="nonzero"/></g></svg>