<svg xmlns="http://www.w3.org/2000/svg" xmlns:xlink="http://www.w3.org/1999/xlink" width="500" zoomAndPan="magnify" viewBox="0 0 375 374.999991" height="500" preserveAspectRatio="xMidYMid meet" version="1.0"><defs><clipPath id="db67b51717"><path d="M 81.753906 81.753906 L 293.253906 81.753906 L 293.253906 293.253906 L 81.753906 293.253906 Z M 81.753906 81.753906 " clip-rule="nonzero"/></clipPath></defs><g clip-path="url(#db67b51717)"><path fill="#000000" d="M 111.011719 234.730469 C 94.878906 234.730469 81.753906 247.855469 81.753906 263.992188 C 81.753906 280.125 94.878906 293.253906 111.011719 293.253906 C 127.148438 293.253906 140.273438 280.128906 140.273438 263.996094 C 140.277344 247.859375 127.148438 234.730469 111.011719 234.730469 Z M 111.011719 287.988281 C 97.785156 287.988281 87.019531 277.226562 87.019531 263.996094 C 87.019531 250.765625 97.785156 240 111.011719 240 C 124.242188 240 135.007812 250.765625 135.007812 263.996094 C 135.011719 277.226562 124.242188 287.988281 111.011719 287.988281 Z M 122.453125 273.195312 C 123.398438 274.300781 123.273438 275.960938 122.167969 276.910156 C 121.0625 277.855469 119.402344 277.730469 118.453125 276.625 C 116.589844 274.445312 113.875 273.195312 111.011719 273.195312 C 108.148438 273.195312 105.4375 274.441406 103.570312 276.625 C 103.050781 277.230469 102.3125 277.546875 101.570312 277.546875 C 100.964844 277.546875 100.355469 277.339844 99.859375 276.914062 C 98.753906 275.964844 98.625 274.308594 99.574219 273.199219 C 102.441406 269.855469 106.613281 267.933594 111.011719 267.933594 C 115.417969 267.933594 119.585938 269.851562 122.453125 273.195312 Z M 102.144531 258.855469 L 102.144531 253.074219 C 102.144531 251.621094 103.324219 250.441406 104.777344 250.441406 C 106.230469 250.441406 107.410156 251.621094 107.410156 253.074219 L 107.410156 258.855469 C 107.410156 260.308594 106.230469 261.488281 104.777344 261.488281 C 103.324219 261.488281 102.144531 260.3125 102.144531 258.855469 Z M 114.621094 258.855469 L 114.621094 253.074219 C 114.621094 251.621094 115.800781 250.441406 117.253906 250.441406 C 118.707031 250.441406 119.886719 251.621094 119.886719 253.074219 L 119.886719 258.855469 C 119.886719 260.308594 118.707031 261.488281 117.253906 261.488281 C 115.800781 261.488281 114.621094 260.3125 114.621094 258.855469 Z M 263.996094 234.730469 C 247.859375 234.730469 234.730469 247.859375 234.730469 263.996094 C 234.730469 280.128906 247.859375 293.253906 263.996094 293.253906 C 280.128906 293.253906 293.253906 280.128906 293.253906 263.996094 C 293.253906 247.855469 280.125 234.730469 263.996094 234.730469 Z M 263.996094 287.988281 C 250.765625 287.988281 239.996094 277.226562 239.996094 263.996094 C 239.996094 250.765625 250.761719 239.996094 263.996094 239.996094 C 277.230469 239.996094 287.988281 250.761719 287.988281 263.996094 C 287.988281 277.226562 277.226562 287.988281 263.996094 287.988281 Z M 255.121094 258.855469 L 255.121094 253.074219 C 255.121094 251.621094 256.304688 250.441406 257.753906 250.441406 C 259.207031 250.441406 260.386719 251.621094 260.386719 253.074219 L 260.386719 258.855469 C 260.386719 260.308594 259.207031 261.488281 257.753906 261.488281 C 256.304688 261.488281 255.121094 260.3125 255.121094 258.855469 Z M 267.597656 258.855469 L 267.597656 253.074219 C 267.597656 251.621094 268.777344 250.441406 270.230469 250.441406 C 271.683594 250.441406 272.863281 251.621094 272.863281 253.074219 L 272.863281 258.855469 C 272.863281 260.308594 271.683594 261.488281 270.230469 261.488281 C 268.777344 261.488281 267.597656 260.3125 267.597656 258.855469 Z M 275.433594 272.28125 C 272.566406 275.625 268.394531 277.546875 263.996094 277.546875 C 259.589844 277.546875 255.421875 275.628906 252.554688 272.28125 C 251.609375 271.171875 251.734375 269.515625 252.839844 268.566406 C 253.945312 267.621094 255.605469 267.746094 256.554688 268.851562 C 258.417969 271.027344 261.128906 272.28125 263.996094 272.28125 C 266.859375 272.28125 269.570312 271.027344 271.4375 268.851562 C 272.386719 267.746094 274.042969 267.621094 275.148438 268.566406 C 276.25 269.515625 276.378906 271.179688 275.433594 272.28125 Z M 187.503906 234.730469 C 171.371094 234.730469 158.242188 247.859375 158.242188 263.996094 C 158.242188 280.128906 171.371094 293.257812 187.503906 293.257812 C 203.636719 293.257812 216.765625 280.128906 216.765625 263.996094 C 216.765625 247.855469 203.636719 234.730469 187.503906 234.730469 Z M 187.503906 287.988281 C 174.273438 287.988281 163.507812 277.226562 163.507812 263.992188 C 163.507812 250.761719 174.269531 239.992188 187.503906 239.992188 C 200.738281 239.992188 211.5 250.757812 211.5 263.992188 C 211.5 277.226562 200.734375 287.988281 187.503906 287.988281 Z M 201.179688 273.1875 C 201.179688 274.640625 200 275.820312 198.546875 275.820312 L 176.457031 275.820312 C 175.003906 275.820312 173.824219 274.640625 173.824219 273.1875 C 173.824219 271.734375 175.003906 270.554688 176.457031 270.554688 L 198.546875 270.554688 C 200.003906 270.554688 201.179688 271.734375 201.179688 273.1875 Z M 178.632812 259.347656 L 178.632812 253.566406 C 178.632812 252.113281 179.8125 250.933594 181.265625 250.933594 C 182.714844 250.933594 183.898438 252.113281 183.898438 253.566406 L 183.898438 259.347656 C 183.898438 260.800781 182.714844 261.980469 181.265625 261.980469 C 179.8125 261.980469 178.632812 260.804688 178.632812 259.347656 Z M 191.109375 259.347656 L 191.109375 253.566406 C 191.109375 252.113281 192.292969 250.933594 193.742188 250.933594 C 195.195312 250.933594 196.375 252.113281 196.375 253.566406 L 196.375 259.347656 C 196.375 260.800781 195.195312 261.980469 193.742188 261.980469 C 192.292969 261.980469 191.109375 260.804688 191.109375 259.347656 Z M 234.398438 147.414062 L 187.21875 165.738281 C 185.4375 165.792969 183.648438 166.046875 181.878906 166.519531 C 175.925781 168.117188 170.949219 171.933594 167.863281 177.277344 C 164.78125 182.617188 163.960938 188.832031 165.558594 194.789062 C 167.15625 200.742188 170.972656 205.71875 176.316406 208.804688 C 179.875 210.855469 183.816406 211.90625 187.816406 211.90625 C 189.820312 211.90625 191.839844 211.640625 193.828125 211.109375 C 199.78125 209.515625 204.757812 205.695312 207.84375 200.355469 C 208.707031 198.859375 209.386719 197.289062 209.890625 195.679688 L 245.675781 166.933594 C 248.007812 173.519531 249.191406 180.421875 249.191406 187.507812 C 249.191406 188.960938 250.371094 190.140625 251.824219 190.140625 L 290.621094 190.140625 C 292.074219 190.140625 293.253906 188.960938 293.253906 187.507812 C 293.253906 170.390625 289.085938 153.464844 281.1875 138.410156 L 285.539062 134.914062 C 286.898438 133.820312 287.253906 131.933594 286.382812 130.425781 C 285.507812 128.910156 283.695312 128.273438 282.070312 128.90625 L 276.851562 130.933594 C 267.675781 116.480469 255.058594 104.359375 240.214844 95.8125 C 224.253906 86.613281 206.027344 81.753906 187.503906 81.753906 C 159.257812 81.753906 132.703125 92.753906 112.730469 112.730469 C 92.753906 132.703125 81.753906 159.257812 81.753906 187.503906 C 81.753906 188.957031 82.933594 190.136719 84.386719 190.136719 L 123.179688 190.136719 C 124.632812 190.136719 125.8125 188.957031 125.8125 187.503906 C 125.8125 153.488281 153.488281 125.8125 187.503906 125.8125 C 205.75 125.8125 222.648438 133.644531 234.398438 147.414062 Z M 190.136719 87.054688 C 206.351562 87.46875 221.808594 91.671875 235.503906 99.101562 L 218.703125 128.199219 C 209.996094 123.613281 200.285156 120.992188 190.136719 120.605469 Z M 184.871094 120.605469 C 174.601562 121.003906 164.917969 123.71875 156.335938 128.253906 L 139.570312 99.214844 C 153.101562 91.835938 168.503906 87.476562 184.871094 87.054688 Z M 210.144531 182.839844 C 208.546875 176.886719 204.730469 171.910156 199.390625 168.824219 C 198.597656 168.363281 197.78125 167.964844 196.953125 167.605469 L 273.371094 137.925781 L 210.925781 188.09375 C 210.867188 186.335938 210.609375 184.578125 210.144531 182.839844 Z M 203.28125 197.71875 C 200.90625 201.839844 197.0625 204.789062 192.46875 206.015625 C 187.871094 207.25 183.066406 206.617188 178.949219 204.234375 C 174.828125 201.855469 171.878906 198.011719 170.648438 193.417969 C 168.109375 183.933594 173.757812 174.144531 183.246094 171.601562 C 184.785156 171.191406 186.339844 170.988281 187.886719 170.988281 C 190.96875 170.988281 194.019531 171.800781 196.761719 173.382812 C 200.882812 175.761719 203.832031 179.605469 205.058594 184.199219 C 206.292969 188.796875 205.660156 193.597656 203.28125 197.71875 Z M 287.953125 184.871094 L 254.40625 184.871094 C 254.121094 177.492188 252.644531 170.308594 250.007812 163.453125 L 277 141.769531 C 283.796875 155.0625 287.558594 169.855469 287.953125 184.871094 Z M 271.855469 132.871094 L 239.574219 145.40625 C 234.882812 139.597656 229.371094 134.707031 223.261719 130.84375 L 240.0625 101.738281 C 252.625 109.449219 263.507812 119.988281 271.855469 132.871094 Z M 120.601562 184.871094 L 87.054688 184.871094 C 87.476562 168.503906 91.835938 153.101562 99.214844 139.570312 L 128.257812 156.339844 C 123.726562 164.921875 121 174.601562 120.601562 184.871094 Z M 130.898438 151.78125 L 101.855469 135.015625 C 110.148438 121.53125 121.53125 110.148438 135.015625 101.855469 L 151.78125 130.898438 C 143.371094 136.226562 136.226562 143.371094 130.898438 151.78125 Z M 130.898438 151.78125 " fill-opacity="1" fill-rule="nonzero"/></g></svg>