<svg xmlns="http://www.w3.org/2000/svg" xmlns:xlink="http://www.w3.org/1999/xlink" width="500" zoomAndPan="magnify" viewBox="0 0 375 374.999991" height="500" preserveAspectRatio="xMidYMid meet" version="1.0"><defs><clipPath id="3b22556f59"><path d="M 108.140625 77.660156 L 267.140625 77.660156 L 267.140625 297.410156 L 108.140625 297.410156 Z M 108.140625 77.660156 " clip-rule="nonzero"/></clipPath></defs><g clip-path="url(#3b22556f59)"><path fill="#000000" d="M 217.429688 112.253906 L 217.429688 104.417969 C 217.429688 102.324219 216.570312 100.414062 215.183594 99.035156 C 213.800781 97.652344 211.890625 96.792969 209.792969 96.792969 L 201.242188 96.792969 C 199.71875 96.792969 198.484375 95.558594 198.484375 94.035156 C 198.484375 91.042969 197.273438 88.332031 195.3125 86.375 C 193.351562 84.417969 190.640625 83.207031 187.640625 83.207031 C 184.648438 83.207031 181.933594 84.421875 179.972656 86.378906 L 179.96875 86.375 C 178.007812 88.332031 176.796875 91.042969 176.796875 94.035156 C 176.796875 95.558594 175.5625 96.792969 174.039062 96.792969 L 165.488281 96.792969 C 163.390625 96.792969 161.480469 97.652344 160.097656 99.035156 C 158.710938 100.414062 157.851562 102.324219 157.851562 104.417969 L 157.851562 117.679688 L 217.429688 117.679688 Z M 192.523438 94.035156 C 192.523438 96.730469 190.335938 98.914062 187.640625 98.914062 C 184.941406 98.914062 182.753906 96.730469 182.753906 94.035156 C 182.753906 91.339844 184.941406 89.15625 187.640625 89.15625 C 190.335938 89.15625 192.523438 91.339844 192.523438 94.035156 Z M 178.6875 230.691406 C 177.164062 230.691406 175.929688 229.457031 175.929688 227.9375 C 175.929688 226.414062 177.164062 225.179688 178.6875 225.179688 L 234.566406 225.179688 C 236.089844 225.179688 237.328125 226.414062 237.328125 227.9375 C 237.328125 229.457031 236.089844 230.691406 234.566406 230.691406 Z M 178.6875 218.582031 C 177.164062 218.582031 175.929688 217.347656 175.929688 215.824219 C 175.929688 214.304688 177.164062 213.070312 178.6875 213.070312 L 234.566406 213.070312 C 236.089844 213.070312 237.328125 214.304688 237.328125 215.824219 C 237.328125 217.347656 236.089844 218.582031 234.566406 218.582031 Z M 145.796875 223.492188 C 144.703125 222.4375 144.667969 220.699219 145.722656 219.605469 C 146.777344 218.511719 148.519531 218.480469 149.613281 219.53125 L 151.472656 221.316406 L 155.347656 216.652344 C 156.316406 215.484375 158.054688 215.320312 159.230469 216.289062 C 160.402344 217.257812 160.566406 218.992188 159.59375 220.164062 L 153.824219 227.109375 L 153.820312 227.105469 C 153.777344 227.15625 153.734375 227.207031 153.683594 227.257812 C 152.628906 228.351562 150.886719 228.386719 149.792969 227.332031 Z M 144.628906 207.269531 C 142.789062 207.269531 141.117188 208.015625 139.910156 209.222656 C 138.703125 210.425781 137.953125 212.09375 137.953125 213.929688 L 137.953125 229.828125 C 137.953125 231.664062 138.703125 233.332031 139.910156 234.539062 C 141.117188 235.746094 142.789062 236.492188 144.628906 236.492188 L 160.550781 236.492188 C 162.386719 236.492188 164.058594 235.746094 165.265625 234.539062 C 166.472656 233.332031 167.222656 231.664062 167.222656 229.828125 L 167.222656 213.929688 C 167.222656 212.09375 166.472656 210.425781 165.265625 209.222656 C 164.058594 208.015625 162.386719 207.269531 160.550781 207.269531 Z M 160.550781 212.78125 L 144.628906 212.78125 C 144.3125 212.78125 144.023438 212.910156 143.8125 213.117188 C 143.605469 213.328125 143.472656 213.617188 143.472656 213.929688 L 143.472656 229.828125 C 143.472656 230.144531 143.605469 230.433594 143.8125 230.640625 C 144.023438 230.851562 144.3125 230.980469 144.628906 230.980469 L 160.550781 230.980469 C 160.867188 230.980469 161.152344 230.851562 161.363281 230.640625 C 161.570312 230.433594 161.703125 230.144531 161.703125 229.828125 L 161.703125 213.929688 C 161.703125 213.617188 161.570312 213.328125 161.363281 213.117188 C 161.152344 212.910156 160.867188 212.78125 160.550781 212.78125 Z M 178.6875 267.363281 C 177.164062 267.363281 175.929688 266.128906 175.929688 264.609375 C 175.929688 263.085938 177.164062 261.851562 178.6875 261.851562 L 234.566406 261.851562 C 236.089844 261.851562 237.328125 263.085938 237.328125 264.609375 C 237.328125 266.128906 236.089844 267.363281 234.566406 267.363281 Z M 178.6875 255.253906 C 177.164062 255.253906 175.929688 254.019531 175.929688 252.5 C 175.929688 250.976562 177.164062 249.742188 178.6875 249.742188 L 234.566406 249.742188 C 236.089844 249.742188 237.328125 250.976562 237.328125 252.5 C 237.328125 254.019531 236.089844 255.253906 234.566406 255.253906 Z M 145.796875 260.164062 C 144.703125 259.113281 144.667969 257.371094 145.722656 256.277344 C 146.777344 255.183594 148.519531 255.152344 149.613281 256.203125 L 151.472656 257.992188 L 155.347656 253.328125 C 156.316406 252.15625 158.054688 251.992188 159.230469 252.960938 C 160.402344 253.929688 160.566406 255.664062 159.59375 256.835938 L 153.824219 263.78125 L 153.820312 263.777344 C 153.777344 263.832031 153.734375 263.882812 153.683594 263.933594 C 152.628906 265.023438 150.886719 265.058594 149.792969 264.007812 Z M 144.628906 243.941406 C 142.789062 243.941406 141.117188 244.691406 139.910156 245.894531 C 138.703125 247.101562 137.953125 248.769531 137.953125 250.605469 L 137.953125 266.503906 C 137.953125 268.339844 138.703125 270.007812 139.910156 271.210938 C 141.117188 272.417969 142.789062 273.167969 144.628906 273.167969 L 160.550781 273.167969 C 162.386719 273.167969 164.058594 272.417969 165.265625 271.210938 C 166.472656 270.007812 167.222656 268.339844 167.222656 266.503906 L 167.222656 250.605469 C 167.222656 248.769531 166.472656 247.101562 165.265625 245.894531 C 164.058594 244.691406 162.386719 243.941406 160.550781 243.941406 Z M 160.550781 249.453125 L 144.628906 249.453125 C 144.3125 249.453125 144.023438 249.582031 143.8125 249.792969 C 143.605469 250 143.472656 250.289062 143.472656 250.605469 L 143.472656 266.503906 C 143.472656 266.816406 143.605469 267.105469 143.8125 267.316406 C 144.023438 267.523438 144.3125 267.65625 144.628906 267.65625 L 160.550781 267.65625 C 160.867188 267.65625 161.152344 267.523438 161.363281 267.316406 C 161.570312 267.105469 161.703125 266.816406 161.703125 266.503906 L 161.703125 250.605469 C 161.703125 250.289062 161.570312 250 161.363281 249.792969 C 161.152344 249.582031 160.867188 249.453125 160.550781 249.453125 Z M 178.6875 194.019531 C 177.164062 194.019531 175.929688 192.785156 175.929688 191.261719 C 175.929688 189.742188 177.164062 188.507812 178.6875 188.507812 L 234.566406 188.507812 C 236.089844 188.507812 237.328125 189.742188 237.328125 191.261719 C 237.328125 192.785156 236.089844 194.019531 234.566406 194.019531 Z M 178.6875 181.90625 C 177.164062 181.90625 175.929688 180.671875 175.929688 179.152344 C 175.929688 177.628906 177.164062 176.394531 178.6875 176.394531 L 234.566406 176.394531 C 236.089844 176.394531 237.328125 177.628906 237.328125 179.152344 C 237.328125 180.671875 236.089844 181.90625 234.566406 181.90625 Z M 145.796875 186.816406 C 144.703125 185.765625 144.667969 184.027344 145.722656 182.933594 C 146.777344 181.839844 148.519531 181.804688 149.613281 182.855469 L 151.472656 184.644531 L 155.347656 179.980469 C 156.316406 178.808594 158.054688 178.644531 159.230469 179.613281 C 160.402344 180.582031 160.566406 182.320312 159.59375 183.488281 L 153.824219 190.433594 L 153.820312 190.429688 C 153.777344 190.484375 153.734375 190.535156 153.683594 190.585938 C 152.628906 191.679688 150.886719 191.710938 149.792969 190.660156 Z M 144.628906 170.59375 C 142.789062 170.59375 141.117188 171.34375 139.910156 172.550781 C 138.703125 173.753906 137.953125 175.421875 137.953125 177.257812 L 137.953125 193.15625 C 137.953125 194.992188 138.703125 196.660156 139.910156 197.867188 C 141.117188 199.070312 142.789062 199.820312 144.628906 199.820312 L 160.550781 199.820312 C 162.386719 199.820312 164.058594 199.070312 165.265625 197.867188 C 166.472656 196.660156 167.222656 194.992188 167.222656 193.15625 L 167.222656 177.257812 C 167.222656 175.421875 166.472656 173.753906 165.265625 172.550781 C 164.058594 171.34375 162.386719 170.59375 160.550781 170.59375 Z M 160.550781 176.105469 L 144.628906 176.105469 C 144.3125 176.105469 144.023438 176.238281 143.8125 176.445312 C 143.605469 176.652344 143.472656 176.941406 143.472656 177.257812 L 143.472656 193.15625 C 143.472656 193.472656 143.605469 193.761719 143.8125 193.96875 C 144.023438 194.175781 144.3125 194.308594 144.628906 194.308594 L 160.550781 194.308594 C 160.867188 194.308594 161.152344 194.175781 161.363281 193.96875 C 161.570312 193.761719 161.703125 193.472656 161.703125 193.15625 L 161.703125 177.257812 C 161.703125 176.941406 161.570312 176.652344 161.363281 176.445312 C 161.152344 176.238281 160.867188 176.105469 160.550781 176.105469 Z M 178.6875 157.34375 C 177.164062 157.34375 175.929688 156.109375 175.929688 154.589844 C 175.929688 153.066406 177.164062 151.832031 178.6875 151.832031 L 234.566406 151.832031 C 236.089844 151.832031 237.328125 153.066406 237.328125 154.589844 C 237.328125 156.109375 236.089844 157.34375 234.566406 157.34375 Z M 178.6875 145.234375 C 177.164062 145.234375 175.929688 144 175.929688 142.480469 C 175.929688 140.957031 177.164062 139.722656 178.6875 139.722656 L 234.566406 139.722656 C 236.089844 139.722656 237.328125 140.957031 237.328125 142.480469 C 237.328125 144 236.089844 145.234375 234.566406 145.234375 Z M 145.796875 150.144531 C 144.703125 149.09375 144.667969 147.351562 145.722656 146.257812 C 146.777344 145.164062 148.519531 145.132812 149.613281 146.183594 L 151.472656 147.96875 L 155.347656 143.308594 C 156.316406 142.136719 158.054688 141.972656 159.230469 142.941406 C 160.402344 143.910156 160.566406 145.644531 159.59375 146.816406 L 153.824219 153.761719 L 153.820312 153.757812 C 153.777344 153.808594 153.734375 153.859375 153.683594 153.910156 C 152.628906 155.003906 150.886719 155.039062 149.792969 153.984375 Z M 144.628906 133.921875 C 142.789062 133.921875 141.117188 134.671875 139.910156 135.875 C 138.703125 137.082031 137.953125 138.75 137.953125 140.585938 L 137.953125 156.484375 C 137.953125 158.320312 138.703125 159.988281 139.910156 161.191406 C 141.117188 162.398438 142.789062 163.148438 144.628906 163.148438 L 160.550781 163.148438 C 162.386719 163.148438 164.058594 162.398438 165.265625 161.191406 C 166.472656 159.988281 167.222656 158.320312 167.222656 156.484375 L 167.222656 140.585938 C 167.222656 138.75 166.472656 137.082031 165.265625 135.875 C 164.058594 134.671875 162.386719 133.921875 160.550781 133.921875 Z M 160.550781 139.433594 L 144.628906 139.433594 C 144.3125 139.433594 144.023438 139.5625 143.8125 139.773438 C 143.605469 139.980469 143.472656 140.269531 143.472656 140.585938 L 143.472656 156.484375 C 143.472656 156.796875 143.605469 157.085938 143.8125 157.296875 C 144.023438 157.503906 144.3125 157.632812 144.628906 157.632812 L 160.550781 157.632812 C 160.867188 157.632812 161.152344 157.503906 161.363281 157.296875 C 161.570312 157.085938 161.703125 156.796875 161.703125 156.484375 L 161.703125 140.585938 C 161.703125 140.269531 161.570312 139.980469 161.363281 139.773438 C 161.152344 139.5625 160.867188 139.433594 160.550781 139.433594 Z M 152.332031 115.011719 L 152.332031 120.4375 C 152.332031 121.957031 153.566406 123.191406 155.089844 123.191406 L 220.191406 123.191406 C 221.714844 123.191406 222.949219 121.957031 222.949219 120.4375 L 222.949219 115.011719 L 251.191406 115.011719 C 251.296875 115.011719 251.386719 115.050781 251.445312 115.109375 L 251.457031 115.117188 C 251.515625 115.175781 251.550781 115.265625 251.550781 115.371094 L 251.550781 281.285156 C 251.550781 281.386719 251.515625 281.480469 251.453125 281.542969 L 251.449219 281.546875 C 251.386719 281.605469 251.292969 281.644531 251.191406 281.644531 L 124.089844 281.644531 C 123.992188 281.644531 123.898438 281.605469 123.835938 281.539062 C 123.769531 281.476562 123.730469 281.382812 123.730469 281.285156 L 123.730469 115.371094 C 123.730469 115.269531 123.769531 115.179688 123.828125 115.113281 L 123.832031 115.113281 C 123.894531 115.050781 123.988281 115.011719 124.089844 115.011719 Z M 203.769531 91.277344 L 209.792969 91.277344 C 213.414062 91.277344 216.703125 92.757812 219.085938 95.136719 C 220.316406 96.363281 221.304688 97.832031 221.972656 99.460938 L 261.246094 99.460938 C 262.867188 99.460938 264.339844 100.117188 265.402344 101.179688 C 265.46875 101.246094 265.53125 101.316406 265.589844 101.386719 C 266.542969 102.433594 267.125 103.820312 267.125 105.328125 L 267.125 291.332031 C 267.125 292.941406 266.464844 294.40625 265.40625 295.46875 C 264.34375 296.53125 262.875 297.191406 261.253906 297.191406 L 114.039062 297.457031 C 113.246094 297.460938 112.492188 297.3125 111.792969 297.027344 C 111.085938 296.734375 110.449219 296.304688 109.890625 295.75 L 109.882812 295.746094 L 109.878906 295.75 C 109.328125 295.203125 108.902344 294.566406 108.601562 293.847656 L 108.597656 293.847656 C 108.304688 293.136719 108.152344 292.382812 108.152344 291.597656 L 108.152344 105.332031 C 108.152344 103.722656 108.8125 102.253906 109.878906 101.191406 L 109.890625 101.179688 C 110.953125 100.117188 112.421875 99.460938 114.035156 99.460938 L 153.308594 99.460938 C 153.976562 97.832031 154.964844 96.363281 156.195312 95.136719 C 158.578125 92.757812 161.867188 91.277344 165.488281 91.277344 L 171.511719 91.277344 C 172.089844 87.878906 173.726562 84.832031 176.070312 82.492188 L 176.074219 82.488281 L 176.070312 82.480469 C 179.03125 79.527344 183.125 77.695312 187.640625 77.695312 C 192.152344 77.695312 196.238281 79.527344 199.199219 82.480469 L 199.210938 82.492188 C 201.554688 84.832031 203.191406 87.878906 203.769531 91.277344 Z M 222.949219 109.5 L 222.949219 104.972656 L 261.246094 104.972656 C 261.34375 104.972656 261.433594 105.011719 261.5 105.078125 L 261.550781 105.128906 C 261.585938 105.183594 261.605469 105.25 261.605469 105.328125 L 261.605469 291.332031 C 261.605469 291.4375 261.566406 291.53125 261.503906 291.59375 C 261.4375 291.660156 261.347656 291.703125 261.253906 291.703125 L 114.039062 291.96875 C 113.976562 291.96875 113.921875 291.960938 113.886719 291.945312 C 113.859375 291.9375 113.824219 291.90625 113.773438 291.859375 L 113.78125 291.855469 C 113.726562 291.800781 113.691406 291.761719 113.6875 291.75 L 113.683594 291.742188 L 113.6875 291.738281 C 113.679688 291.71875 113.671875 291.667969 113.671875 291.597656 L 113.671875 105.332031 C 113.671875 105.230469 113.710938 105.136719 113.773438 105.074219 L 113.773438 105.070312 C 113.839844 105.007812 113.933594 104.972656 114.035156 104.972656 L 152.332031 104.972656 L 152.332031 109.5 L 124.089844 109.5 C 122.476562 109.5 121.007812 110.160156 119.945312 111.222656 L 119.933594 111.230469 C 118.867188 112.296875 118.207031 113.761719 118.207031 115.371094 L 118.207031 281.285156 C 118.207031 282.90625 118.871094 284.375 119.933594 285.4375 C 120.996094 286.496094 122.46875 287.15625 124.089844 287.15625 L 251.191406 287.15625 C 252.804688 287.15625 254.273438 286.5 255.335938 285.4375 L 255.347656 285.425781 C 256.410156 284.363281 257.074219 282.898438 257.074219 281.285156 L 257.074219 115.371094 C 257.074219 113.765625 256.414062 112.300781 255.347656 111.234375 L 255.335938 111.222656 C 254.265625 110.160156 252.800781 109.5 251.191406 109.5 Z M 222.949219 109.5 " fill-opacity="1" fill-rule="evenodd"/></g></svg>