<svg xmlns="http://www.w3.org/2000/svg" xmlns:xlink="http://www.w3.org/1999/xlink" width="500" zoomAndPan="magnify" viewBox="0 0 375 374.999991" height="500" preserveAspectRatio="xMidYMid meet" version="1.0"><defs><clipPath id="3ac84395fb"><path d="M 108.140625 77.660156 L 267 77.660156 L 267 297.410156 L 108.140625 297.410156 Z M 108.140625 77.660156 " clip-rule="nonzero"/></clipPath></defs><g clip-path="url(#3ac84395fb)"><path fill="#ffffff" d="M 217.238281 112.246094 L 217.238281 104.410156 C 217.238281 102.316406 216.378906 100.410156 214.996094 99.027344 C 213.613281 97.644531 211.707031 96.785156 209.613281 96.785156 L 201.078125 96.785156 C 199.558594 96.785156 198.324219 95.550781 198.324219 94.03125 C 198.324219 91.039062 197.113281 88.328125 195.160156 86.371094 C 193.203125 84.414062 190.492188 83.207031 187.5 83.207031 C 184.511719 83.207031 181.804688 84.417969 179.84375 86.375 L 179.839844 86.371094 C 177.886719 88.328125 176.675781 91.039062 176.675781 94.03125 C 176.675781 95.550781 175.441406 96.785156 173.921875 96.785156 L 165.386719 96.785156 C 163.292969 96.785156 161.386719 97.644531 160.003906 99.027344 C 158.621094 100.410156 157.761719 102.316406 157.761719 104.410156 L 157.761719 117.667969 L 217.238281 117.667969 Z M 192.375 94.03125 C 192.375 96.722656 190.191406 98.90625 187.5 98.90625 C 184.808594 98.90625 182.625 96.722656 182.625 94.03125 C 182.625 91.335938 184.808594 89.152344 187.5 89.152344 C 190.191406 89.152344 192.375 91.335938 192.375 94.03125 Z M 178.5625 230.644531 C 177.042969 230.644531 175.808594 229.410156 175.808594 227.886719 C 175.808594 226.367188 177.042969 225.132812 178.5625 225.132812 L 234.34375 225.132812 C 235.863281 225.132812 237.097656 226.367188 237.097656 227.886719 C 237.097656 229.410156 235.863281 230.644531 234.34375 230.644531 Z M 178.5625 218.535156 C 177.042969 218.535156 175.808594 217.300781 175.808594 215.78125 C 175.808594 214.257812 177.042969 213.027344 178.5625 213.027344 L 234.34375 213.027344 C 235.863281 213.027344 237.097656 214.257812 237.097656 215.78125 C 237.097656 217.300781 235.863281 218.535156 234.34375 218.535156 Z M 145.730469 223.445312 C 144.640625 222.394531 144.605469 220.652344 145.65625 219.558594 C 146.710938 218.46875 148.449219 218.433594 149.542969 219.484375 L 151.394531 221.269531 L 155.265625 216.609375 C 156.234375 215.4375 157.96875 215.273438 159.136719 216.242188 C 160.308594 217.210938 160.472656 218.945312 159.503906 220.117188 L 153.746094 227.058594 L 153.742188 227.054688 C 153.695312 227.109375 153.652344 227.160156 153.605469 227.210938 C 152.550781 228.304688 150.8125 228.335938 149.71875 227.285156 Z M 144.5625 207.226562 C 142.726562 207.226562 141.0625 207.976562 139.855469 209.179688 C 138.652344 210.386719 137.902344 212.050781 137.902344 213.886719 L 137.902344 229.78125 C 137.902344 231.617188 138.652344 233.285156 139.855469 234.488281 C 141.0625 235.695312 142.726562 236.441406 144.5625 236.441406 L 160.457031 236.441406 C 162.292969 236.441406 163.960938 235.695312 165.164062 234.488281 C 166.367188 233.285156 167.117188 231.617188 167.117188 229.78125 L 167.117188 213.886719 C 167.117188 212.050781 166.367188 210.386719 165.164062 209.179688 C 163.960938 207.976562 162.292969 207.226562 160.457031 207.226562 Z M 160.457031 212.738281 L 144.5625 212.738281 C 144.25 212.738281 143.960938 212.867188 143.75 213.074219 C 143.542969 213.285156 143.410156 213.570312 143.410156 213.886719 L 143.410156 229.78125 C 143.410156 230.097656 143.542969 230.386719 143.75 230.59375 C 143.960938 230.800781 144.25 230.933594 144.5625 230.933594 L 160.457031 230.933594 C 160.773438 230.933594 161.058594 230.800781 161.269531 230.59375 C 161.476562 230.386719 161.609375 230.097656 161.609375 229.78125 L 161.609375 213.886719 C 161.609375 213.570312 161.476562 213.285156 161.269531 213.074219 C 161.058594 212.867188 160.773438 212.738281 160.457031 212.738281 Z M 178.5625 267.304688 C 177.042969 267.304688 175.808594 266.070312 175.808594 264.550781 C 175.808594 263.027344 177.042969 261.792969 178.5625 261.792969 L 234.34375 261.792969 C 235.863281 261.792969 237.097656 263.027344 237.097656 264.550781 C 237.097656 266.070312 235.863281 267.304688 234.34375 267.304688 Z M 178.5625 255.199219 C 177.042969 255.199219 175.808594 253.964844 175.808594 252.441406 C 175.808594 250.921875 177.042969 249.6875 178.5625 249.6875 L 234.34375 249.6875 C 235.863281 249.6875 237.097656 250.921875 237.097656 252.441406 C 237.097656 253.964844 235.863281 255.199219 234.34375 255.199219 Z M 145.730469 260.105469 C 144.640625 259.054688 144.605469 257.316406 145.65625 256.222656 C 146.710938 255.128906 148.449219 255.09375 149.542969 256.144531 L 151.394531 257.933594 L 155.265625 253.273438 C 156.234375 252.101562 157.96875 251.9375 159.136719 252.90625 C 160.308594 253.875 160.472656 255.609375 159.503906 256.78125 L 153.746094 263.722656 L 153.742188 263.71875 C 153.695312 263.769531 153.652344 263.820312 153.605469 263.871094 C 152.550781 264.964844 150.8125 265 149.71875 263.945312 Z M 144.5625 243.886719 C 142.726562 243.886719 141.0625 244.636719 139.855469 245.84375 C 138.652344 247.046875 137.902344 248.714844 137.902344 250.546875 L 137.902344 266.441406 C 137.902344 268.277344 138.652344 269.945312 139.855469 271.152344 C 141.0625 272.355469 142.726562 273.105469 144.5625 273.105469 L 160.457031 273.105469 C 162.292969 273.105469 163.960938 272.355469 165.164062 271.152344 C 166.367188 269.945312 167.117188 268.277344 167.117188 266.441406 L 167.117188 250.546875 C 167.117188 248.714844 166.367188 247.046875 165.164062 245.84375 C 163.960938 244.636719 162.292969 243.886719 160.457031 243.886719 Z M 160.457031 249.398438 L 144.5625 249.398438 C 144.25 249.398438 143.960938 249.527344 143.75 249.738281 C 143.542969 249.945312 143.410156 250.234375 143.410156 250.546875 L 143.410156 266.441406 C 143.410156 266.757812 143.542969 267.046875 143.75 267.253906 C 143.960938 267.464844 144.25 267.59375 144.5625 267.59375 L 160.457031 267.59375 C 160.773438 267.59375 161.058594 267.464844 161.269531 267.253906 C 161.476562 267.046875 161.609375 266.757812 161.609375 266.441406 L 161.609375 250.546875 C 161.609375 250.234375 161.476562 249.945312 161.269531 249.738281 C 161.058594 249.527344 160.773438 249.398438 160.457031 249.398438 Z M 178.5625 193.980469 C 177.042969 193.980469 175.808594 192.746094 175.808594 191.226562 C 175.808594 189.707031 177.042969 188.472656 178.5625 188.472656 L 234.34375 188.472656 C 235.863281 188.472656 237.097656 189.707031 237.097656 191.226562 C 237.097656 192.746094 235.863281 193.980469 234.34375 193.980469 Z M 178.5625 181.875 C 177.042969 181.875 175.808594 180.640625 175.808594 179.117188 C 175.808594 177.597656 177.042969 176.363281 178.5625 176.363281 L 234.34375 176.363281 C 235.863281 176.363281 237.097656 177.597656 237.097656 179.117188 C 237.097656 180.640625 235.863281 181.875 234.34375 181.875 Z M 145.730469 186.78125 C 144.640625 185.730469 144.605469 183.992188 145.65625 182.898438 C 146.710938 181.804688 148.449219 181.773438 149.542969 182.824219 L 151.394531 184.609375 L 155.265625 179.949219 C 156.234375 178.777344 157.96875 178.613281 159.136719 179.582031 C 160.308594 180.550781 160.472656 182.285156 159.503906 183.457031 L 153.746094 190.398438 L 153.742188 190.394531 C 153.695312 190.445312 153.652344 190.5 153.605469 190.546875 C 152.550781 191.640625 150.8125 191.675781 149.71875 190.625 Z M 144.5625 170.566406 C 142.726562 170.566406 141.0625 171.3125 139.855469 172.519531 C 138.652344 173.722656 137.902344 175.390625 137.902344 177.226562 L 137.902344 193.121094 C 137.902344 194.957031 138.652344 196.621094 139.855469 197.828125 C 141.0625 199.03125 142.726562 199.78125 144.5625 199.78125 L 160.457031 199.78125 C 162.292969 199.78125 163.960938 199.03125 165.164062 197.828125 C 166.367188 196.621094 167.117188 194.957031 167.117188 193.121094 L 167.117188 177.226562 C 167.117188 175.390625 166.367188 173.722656 165.164062 172.519531 C 163.960938 171.3125 162.292969 170.566406 160.457031 170.566406 Z M 160.457031 176.074219 L 144.5625 176.074219 C 144.25 176.074219 143.960938 176.207031 143.75 176.414062 C 143.542969 176.621094 143.410156 176.910156 143.410156 177.226562 L 143.410156 193.121094 C 143.410156 193.433594 143.542969 193.722656 143.75 193.933594 C 143.960938 194.140625 144.25 194.269531 144.5625 194.269531 L 160.457031 194.269531 C 160.773438 194.269531 161.058594 194.140625 161.269531 193.933594 C 161.476562 193.722656 161.609375 193.433594 161.609375 193.121094 L 161.609375 177.226562 C 161.609375 176.910156 161.476562 176.621094 161.269531 176.414062 C 161.058594 176.207031 160.773438 176.074219 160.457031 176.074219 Z M 178.5625 157.320312 C 177.042969 157.320312 175.808594 156.085938 175.808594 154.5625 C 175.808594 153.042969 177.042969 151.808594 178.5625 151.808594 L 234.34375 151.808594 C 235.863281 151.808594 237.097656 153.042969 237.097656 154.5625 C 237.097656 156.085938 235.863281 157.320312 234.34375 157.320312 Z M 178.5625 145.214844 C 177.042969 145.214844 175.808594 143.980469 175.808594 142.457031 C 175.808594 140.9375 177.042969 139.703125 178.5625 139.703125 L 234.34375 139.703125 C 235.863281 139.703125 237.097656 140.9375 237.097656 142.457031 C 237.097656 143.980469 235.863281 145.214844 234.34375 145.214844 Z M 145.730469 150.121094 C 144.640625 149.070312 144.605469 147.332031 145.65625 146.238281 C 146.710938 145.144531 148.449219 145.109375 149.542969 146.160156 L 151.394531 147.949219 L 155.265625 143.285156 C 156.234375 142.113281 157.96875 141.953125 159.136719 142.917969 C 160.308594 143.886719 160.472656 145.625 159.503906 146.792969 L 153.746094 153.734375 L 153.742188 153.730469 C 153.695312 153.785156 153.652344 153.835938 153.605469 153.886719 C 152.550781 154.980469 150.8125 155.011719 149.71875 153.960938 Z M 144.5625 133.902344 C 142.726562 133.902344 141.0625 134.652344 139.855469 135.855469 C 138.652344 137.0625 137.902344 138.730469 137.902344 140.5625 L 137.902344 156.457031 C 137.902344 158.292969 138.652344 159.960938 139.855469 161.164062 C 141.0625 162.371094 142.726562 163.121094 144.5625 163.121094 L 160.457031 163.121094 C 162.292969 163.121094 163.960938 162.371094 165.164062 161.164062 C 166.367188 159.960938 167.117188 158.292969 167.117188 156.457031 L 167.117188 140.5625 C 167.117188 138.730469 166.367188 137.0625 165.164062 135.855469 C 163.960938 134.652344 162.292969 133.902344 160.457031 133.902344 Z M 160.457031 139.414062 L 144.5625 139.414062 C 144.25 139.414062 143.960938 139.542969 143.75 139.753906 C 143.542969 139.960938 143.410156 140.25 143.410156 140.5625 L 143.410156 156.457031 C 143.410156 156.773438 143.542969 157.0625 143.75 157.269531 C 143.960938 157.476562 144.25 157.609375 144.5625 157.609375 L 160.457031 157.609375 C 160.773438 157.609375 161.058594 157.476562 161.269531 157.269531 C 161.476562 157.0625 161.609375 156.773438 161.609375 156.457031 L 161.609375 140.5625 C 161.609375 140.25 161.476562 139.960938 161.269531 139.753906 C 161.058594 139.542969 160.773438 139.414062 160.457031 139.414062 Z M 152.253906 115 L 152.253906 120.421875 C 152.253906 121.945312 153.488281 123.179688 155.007812 123.179688 L 219.992188 123.179688 C 221.511719 123.179688 222.746094 121.945312 222.746094 120.421875 L 222.746094 115 L 250.941406 115 C 251.042969 115 251.132812 115.039062 251.191406 115.097656 L 251.203125 115.105469 C 251.261719 115.164062 251.296875 115.253906 251.296875 115.359375 L 251.296875 281.222656 C 251.296875 281.324219 251.261719 281.414062 251.199219 281.480469 L 251.195312 281.480469 C 251.132812 281.542969 251.039062 281.582031 250.941406 281.582031 L 124.058594 281.582031 C 123.960938 281.582031 123.871094 281.539062 123.808594 281.472656 C 123.742188 281.410156 123.703125 281.320312 123.703125 281.222656 L 123.703125 115.359375 C 123.703125 115.257812 123.742188 115.164062 123.800781 115.101562 L 123.804688 115.097656 C 123.867188 115.039062 123.957031 115 124.058594 115 Z M 203.601562 91.273438 L 209.613281 91.273438 C 213.226562 91.273438 216.511719 92.753906 218.890625 95.132812 C 220.117188 96.355469 221.101562 97.824219 221.773438 99.453125 L 260.976562 99.453125 C 262.59375 99.453125 264.0625 100.113281 265.125 101.171875 C 265.1875 101.238281 265.25 101.308594 265.308594 101.378906 C 266.261719 102.425781 266.84375 103.808594 266.84375 105.320312 L 266.84375 291.265625 C 266.84375 292.871094 266.1875 294.335938 265.125 295.398438 C 264.066406 296.460938 262.597656 297.121094 260.980469 297.121094 L 114.027344 297.386719 C 113.234375 297.390625 112.484375 297.242188 111.789062 296.957031 C 111.078125 296.664062 110.441406 296.234375 109.886719 295.679688 L 109.882812 295.675781 L 109.875 295.679688 C 109.328125 295.132812 108.898438 294.5 108.601562 293.777344 L 108.597656 293.78125 C 108.304688 293.066406 108.152344 292.316406 108.152344 291.53125 L 108.152344 105.320312 C 108.152344 103.710938 108.8125 102.246094 109.875 101.183594 L 109.886719 101.171875 C 110.949219 100.113281 112.414062 99.453125 114.023438 99.453125 L 153.226562 99.453125 C 153.898438 97.824219 154.882812 96.355469 156.109375 95.132812 C 158.488281 92.753906 161.773438 91.273438 165.386719 91.273438 L 171.398438 91.273438 C 171.976562 87.875 173.613281 84.832031 175.949219 82.492188 L 175.957031 82.484375 L 175.949219 82.480469 C 178.90625 79.523438 182.992188 77.695312 187.5 77.695312 C 192.003906 77.695312 196.082031 79.527344 199.039062 82.480469 L 199.050781 82.492188 C 201.386719 84.832031 203.019531 87.875 203.601562 91.273438 Z M 222.746094 109.488281 L 222.746094 104.960938 L 260.976562 104.960938 C 261.074219 104.960938 261.164062 105.003906 261.226562 105.070312 L 261.28125 105.121094 C 261.316406 105.171875 261.335938 105.242188 261.335938 105.320312 L 261.335938 291.265625 C 261.335938 291.367188 261.292969 291.460938 261.230469 291.527344 C 261.164062 291.589844 261.074219 291.632812 260.980469 291.632812 L 114.027344 291.898438 C 113.964844 291.898438 113.910156 291.890625 113.875 291.878906 C 113.851562 291.867188 113.8125 291.835938 113.765625 291.792969 L 113.769531 291.785156 C 113.714844 291.730469 113.683594 291.695312 113.679688 291.679688 L 113.675781 291.671875 L 113.679688 291.671875 C 113.667969 291.648438 113.664062 291.601562 113.664062 291.53125 L 113.664062 105.320312 C 113.664062 105.21875 113.703125 105.128906 113.765625 105.0625 C 113.832031 105 113.921875 104.960938 114.023438 104.960938 L 152.253906 104.960938 L 152.253906 109.488281 L 124.058594 109.488281 C 122.449219 109.488281 120.984375 110.148438 119.921875 111.210938 L 119.914062 111.222656 C 118.851562 112.285156 118.191406 113.75 118.191406 115.359375 L 118.191406 281.222656 C 118.191406 282.839844 118.851562 284.308594 119.914062 285.371094 C 120.972656 286.429688 122.441406 287.089844 124.058594 287.089844 L 250.941406 287.089844 C 252.546875 287.089844 254.011719 286.433594 255.078125 285.371094 L 255.085938 285.359375 C 256.148438 284.296875 256.808594 282.832031 256.808594 281.222656 L 256.808594 115.359375 C 256.808594 113.753906 256.148438 112.289062 255.085938 111.222656 L 255.074219 111.210938 C 254.007812 110.148438 252.542969 109.488281 250.941406 109.488281 Z M 222.746094 109.488281 " fill-opacity="1" fill-rule="evenodd"/></g></svg>