<svg xmlns="http://www.w3.org/2000/svg" xmlns:xlink="http://www.w3.org/1999/xlink" width="500" zoomAndPan="magnify" viewBox="0 0 375 374.999991" height="500" preserveAspectRatio="xMidYMid meet" version="1.0"><defs><clipPath id="5b2f395871"><path d="M 82.234375 77 L 292.984375 77 L 292.984375 275 L 82.234375 275 Z M 82.234375 77 " clip-rule="nonzero"/></clipPath></defs><g clip-path="url(#5b2f395871)"><path fill="#000002" d="M 203.351562 130.207031 L 198.535156 125.265625 L 178.414062 145.398438 L 175.695312 152.933594 L 183.351562 150.21875 Z M 126.1875 246.566406 C 124.210938 246.566406 122.609375 244.835938 122.976562 242.738281 L 126.433594 220.253906 L 93.101562 220.253906 C 87.175781 220.253906 82.234375 215.4375 82.234375 209.386719 L 82.234375 133.046875 C 82.234375 126.996094 87.175781 122.179688 93.101562 122.179688 L 192.363281 122.179688 L 234.339844 80.054688 C 243.105469 71.285156 257.058594 83.390625 249.28125 93.519531 C 252.242188 96.484375 256.933594 99.695312 253.847656 102.785156 L 235.945312 120.570312 C 232.984375 123.660156 228.292969 119.089844 231.378906 116 L 246.8125 100.4375 L 244.589844 98.214844 L 214.957031 127.859375 C 215.699219 129.464844 216.191406 131.195312 216.191406 133.046875 L 216.191406 154.910156 L 282.367188 154.910156 C 288.171875 154.910156 292.984375 159.605469 292.984375 165.410156 L 292.984375 238.414062 C 292.984375 244.21875 288.171875 248.914062 282.367188 248.914062 L 250.761719 248.914062 L 253.972656 270.28125 C 254.464844 273.246094 250.886719 275.222656 248.664062 273.246094 L 220.511719 248.914062 L 175.203125 248.914062 C 169.398438 248.914062 164.585938 244.21875 164.585938 238.414062 L 164.585938 220.253906 L 157.792969 220.253906 L 128.410156 245.824219 C 127.792969 246.320312 126.929688 246.566406 126.1875 246.566406 Z M 185.695312 128.722656 L 93.101562 128.722656 C 90.753906 128.722656 88.777344 130.699219 88.777344 133.046875 L 88.777344 209.386719 C 88.777344 211.730469 90.753906 213.707031 93.101562 213.707031 L 130.261719 213.707031 C 132.238281 213.707031 133.84375 215.4375 133.472656 217.539062 L 130.878906 234.953125 L 154.335938 214.449219 C 154.953125 213.957031 155.695312 213.707031 156.558594 213.707031 L 205.328125 213.707031 C 207.671875 213.707031 209.648438 211.730469 209.648438 209.386719 L 209.648438 133.171875 L 187.425781 155.40625 C 186.4375 156.394531 171.128906 161.707031 170.265625 161.707031 C 167.917969 161.707031 166.3125 159.480469 167.175781 157.382812 C 168.042969 154.910156 172.117188 142.3125 173.226562 141.199219 Z M 216.191406 161.457031 L 216.191406 209.386719 C 216.191406 215.4375 211.253906 220.253906 205.328125 220.253906 L 171.25 220.253906 L 171.25 238.414062 C 171.25 240.511719 172.980469 242.367188 175.203125 242.367188 L 221.746094 242.367188 C 222.613281 242.367188 223.351562 242.613281 223.96875 243.105469 L 246.191406 262.375 L 243.601562 246.070312 C 243.355469 244.09375 244.835938 242.367188 246.933594 242.367188 L 282.367188 242.367188 C 284.589844 242.367188 286.320312 240.511719 286.320312 238.414062 L 286.320312 165.410156 C 286.320312 163.1875 284.589844 161.457031 282.367188 161.457031 Z M 154.460938 148.363281 L 105.324219 148.363281 C 101 148.363281 101 141.695312 105.324219 141.695312 L 154.460938 141.695312 C 158.78125 141.695312 158.78125 148.363281 154.460938 148.363281 Z M 154.460938 165.78125 L 105.324219 165.78125 C 101 165.78125 101 159.234375 105.324219 159.234375 L 154.460938 159.234375 C 158.78125 159.234375 158.78125 165.78125 154.460938 165.78125 Z M 193.105469 183.199219 L 105.324219 183.199219 C 101 183.199219 101 176.652344 105.324219 176.652344 L 193.105469 176.652344 C 197.425781 176.652344 197.425781 183.199219 193.105469 183.199219 Z M 193.105469 200.738281 L 105.324219 200.738281 C 101 200.738281 101 194.066406 105.324219 194.066406 L 193.105469 194.066406 C 197.425781 194.066406 197.425781 200.738281 193.105469 200.738281 Z M 263.847656 224.207031 C 262.242188 224.207031 253.230469 219.515625 251.253906 218.527344 L 240.144531 223.835938 C 237.796875 224.949219 235.207031 223.097656 235.453125 220.503906 L 237.058594 208.273438 L 228.660156 199.378906 C 226.808594 197.402344 227.796875 194.316406 230.390625 193.820312 L 242.488281 191.597656 L 248.414062 180.726562 C 249.648438 178.503906 252.984375 178.503906 254.21875 180.726562 L 260.019531 191.597656 L 272.121094 193.820312 C 274.714844 194.316406 275.699219 197.402344 273.972656 199.378906 L 265.453125 208.273438 L 267.058594 220.503906 C 267.304688 222.480469 265.824219 224.207031 263.847656 224.207031 Z M 237.550781 199.257812 C 245.328125 207.285156 244.21875 204.199219 242.859375 215.3125 C 252.859375 210.496094 249.648438 210.496094 259.773438 215.3125 C 258.292969 204.199219 257.304688 207.285156 264.960938 199.257812 C 253.972656 197.15625 256.5625 199.132812 251.253906 189.25 C 245.945312 199.132812 248.539062 197.15625 237.550781 199.257812 Z M 203.105469 120.570312 L 208.042969 125.511719 L 213.230469 120.324219 L 208.414062 115.382812 Z M 217.921875 115.632812 L 243.601562 89.9375 C 247.429688 86.109375 242.117188 81.660156 239.03125 84.75 L 212.980469 110.8125 Z M 217.921875 115.632812 " fill-opacity="1" fill-rule="evenodd"/></g></svg>