<svg xmlns="http://www.w3.org/2000/svg" xmlns:xlink="http://www.w3.org/1999/xlink" width="500" zoomAndPan="magnify" viewBox="0 0 375 374.999991" height="500" preserveAspectRatio="xMidYMid meet" version="1.0"><defs><clipPath id="af3ca43b2b"><path d="M 82.234375 77 L 292.984375 77 L 292.984375 274 L 82.234375 274 Z M 82.234375 77 " clip-rule="nonzero"/></clipPath></defs><g clip-path="url(#af3ca43b2b)"><path fill="#ffffff" d="M 203.222656 130.117188 L 198.414062 125.183594 L 178.3125 145.285156 L 175.597656 152.808594 L 183.246094 150.09375 Z M 126.140625 246.292969 C 124.167969 246.292969 122.566406 244.566406 122.933594 242.46875 L 126.386719 220.023438 L 93.089844 220.023438 C 87.167969 220.023438 82.234375 215.214844 82.234375 209.171875 L 82.234375 132.953125 C 82.234375 126.910156 87.167969 122.097656 93.089844 122.097656 L 192.246094 122.097656 L 234.179688 80.042969 C 242.9375 71.285156 256.875 83.371094 249.101562 93.484375 C 252.0625 96.445312 256.75 99.652344 253.667969 102.734375 L 235.785156 120.496094 C 232.824219 123.578125 228.136719 119.015625 231.21875 115.933594 L 246.636719 100.390625 L 244.417969 98.171875 L 214.816406 127.773438 C 215.558594 129.375 216.050781 131.101562 216.050781 132.953125 L 216.050781 154.78125 L 282.15625 154.78125 C 287.953125 154.78125 292.761719 159.46875 292.761719 165.265625 L 292.761719 238.152344 C 292.761719 243.949219 287.953125 248.636719 282.15625 248.636719 L 250.582031 248.636719 L 253.789062 269.972656 C 254.285156 272.933594 250.707031 274.90625 248.488281 272.933594 L 220.367188 248.636719 L 175.105469 248.636719 C 169.308594 248.636719 164.496094 243.949219 164.496094 238.152344 L 164.496094 220.023438 L 157.714844 220.023438 L 128.363281 245.554688 C 127.746094 246.046875 126.882812 246.292969 126.140625 246.292969 Z M 185.585938 128.636719 L 93.089844 128.636719 C 90.746094 128.636719 88.773438 130.609375 88.773438 132.953125 L 88.773438 209.171875 C 88.773438 211.515625 90.746094 213.488281 93.089844 213.488281 L 130.210938 213.488281 C 132.183594 213.488281 133.789062 215.214844 133.417969 217.3125 L 130.828125 234.699219 L 154.261719 214.226562 C 154.878906 213.734375 155.617188 213.488281 156.480469 213.488281 L 205.199219 213.488281 C 207.539062 213.488281 209.515625 211.515625 209.515625 209.171875 L 209.515625 133.074219 L 187.3125 155.273438 C 186.328125 156.261719 171.035156 161.566406 170.171875 161.566406 C 167.828125 161.566406 166.222656 159.34375 167.085938 157.25 C 167.949219 154.78125 172.019531 142.203125 173.132812 141.09375 Z M 216.050781 161.316406 L 216.050781 209.171875 C 216.050781 215.214844 211.117188 220.023438 205.199219 220.023438 L 171.15625 220.023438 L 171.15625 238.152344 C 171.15625 240.25 172.882812 242.101562 175.105469 242.101562 L 221.601562 242.101562 C 222.464844 242.101562 223.203125 242.347656 223.820312 242.839844 L 246.019531 262.082031 L 243.429688 245.800781 C 243.183594 243.828125 244.664062 242.101562 246.761719 242.101562 L 282.15625 242.101562 C 284.375 242.101562 286.101562 240.25 286.101562 238.152344 L 286.101562 165.265625 C 286.101562 163.046875 284.375 161.316406 282.15625 161.316406 Z M 154.382812 148.246094 L 105.296875 148.246094 C 100.980469 148.246094 100.980469 141.585938 105.296875 141.585938 L 154.382812 141.585938 C 158.703125 141.585938 158.703125 148.246094 154.382812 148.246094 Z M 154.382812 165.636719 L 105.296875 165.636719 C 100.980469 165.636719 100.980469 159.097656 105.296875 159.097656 L 154.382812 159.097656 C 158.703125 159.097656 158.703125 165.636719 154.382812 165.636719 Z M 192.988281 183.023438 L 105.296875 183.023438 C 100.980469 183.023438 100.980469 176.488281 105.296875 176.488281 L 192.988281 176.488281 C 197.304688 176.488281 197.304688 183.023438 192.988281 183.023438 Z M 192.988281 200.539062 L 105.296875 200.539062 C 100.980469 200.539062 100.980469 193.878906 105.296875 193.878906 L 192.988281 193.878906 C 197.304688 193.878906 197.304688 200.539062 192.988281 200.539062 Z M 263.65625 223.972656 C 262.054688 223.972656 253.050781 219.285156 251.078125 218.296875 L 239.976562 223.601562 C 237.632812 224.710938 235.042969 222.859375 235.289062 220.269531 L 236.894531 208.0625 L 228.507812 199.179688 C 226.65625 197.207031 227.644531 194.125 230.234375 193.632812 L 242.320312 191.410156 L 248.238281 180.558594 C 249.472656 178.339844 252.804688 178.339844 254.035156 180.558594 L 259.832031 191.410156 L 271.917969 193.632812 C 274.507812 194.125 275.496094 197.207031 273.769531 199.179688 L 265.261719 208.0625 L 266.863281 220.269531 C 267.109375 222.246094 265.628906 223.972656 263.65625 223.972656 Z M 237.386719 199.058594 C 245.15625 207.074219 244.046875 203.992188 242.691406 215.089844 C 252.679688 210.28125 249.472656 210.28125 259.585938 215.089844 C 258.105469 203.992188 257.121094 207.074219 264.765625 199.058594 C 253.789062 196.960938 256.378906 198.933594 251.078125 189.066406 C 245.773438 198.933594 248.363281 196.960938 237.386719 199.058594 Z M 202.976562 120.496094 L 207.910156 125.429688 L 213.089844 120.25 L 208.28125 115.316406 Z M 217.777344 115.5625 L 243.429688 89.910156 C 247.253906 86.085938 241.949219 81.644531 238.867188 84.730469 L 212.84375 110.753906 Z M 217.777344 115.5625 " fill-opacity="1" fill-rule="evenodd"/></g></svg>