<svg xmlns="http://www.w3.org/2000/svg" xmlns:xlink="http://www.w3.org/1999/xlink" width="500" zoomAndPan="magnify" viewBox="0 0 375 374.999991" height="500" preserveAspectRatio="xMidYMid meet" version="1.0"><defs><clipPath id="ddec8e98ea"><path d="M 76.941406 87.445312 L 298.191406 87.445312 L 298.191406 287.695312 L 76.941406 287.695312 Z M 76.941406 87.445312 " clip-rule="nonzero"/></clipPath></defs><g clip-path="url(#ddec8e98ea)"><path fill="#ffffff" d="M 255.117188 199.296875 C 242.621094 186.800781 222.289062 186.800781 209.789062 199.296875 C 197.292969 211.792969 197.292969 232.125 209.789062 244.621094 C 216.039062 250.867188 224.246094 253.992188 232.453125 253.992188 C 240.660156 253.992188 248.863281 250.867188 255.113281 244.621094 C 267.609375 232.125 267.609375 211.792969 255.113281 199.296875 Z M 251.222656 240.730469 C 240.875 251.078125 224.035156 251.078125 213.679688 240.730469 C 203.332031 230.382812 203.332031 213.542969 213.679688 203.1875 C 218.855469 198.011719 225.652344 195.425781 232.453125 195.425781 C 239.25 195.425781 246.046875 198.011719 251.222656 203.1875 C 261.570312 213.535156 261.570312 230.375 251.222656 240.730469 Z M 295.027344 269.992188 L 269.640625 244.605469 C 273.769531 237.855469 275.980469 230.078125 275.980469 221.957031 C 275.980469 210.335938 271.453125 199.402344 263.234375 191.183594 C 260.042969 187.996094 256.449219 185.367188 252.5625 183.339844 L 252.5625 119.578125 L 262.753906 111.730469 L 261.824219 122.574219 C 261.695312 124.089844 262.816406 125.421875 264.332031 125.550781 C 264.410156 125.554688 264.496094 125.5625 264.570312 125.5625 C 265.984375 125.5625 267.1875 124.476562 267.3125 123.042969 L 268.773438 105.96875 C 268.839844 105.242188 268.609375 104.519531 268.136719 103.960938 C 267.664062 103.398438 266.996094 103.050781 266.265625 102.992188 L 249.191406 101.527344 C 247.675781 101.398438 246.34375 102.519531 246.214844 104.035156 C 246.085938 105.550781 247.203125 106.886719 248.722656 107.015625 L 258.746094 107.871094 L 176.707031 171.039062 L 142.199219 150.226562 C 141.273438 149.667969 140.105469 149.703125 139.214844 150.320312 L 82.425781 189.558594 L 82.425781 90.230469 C 82.425781 88.710938 81.195312 87.476562 79.675781 87.476562 C 78.15625 87.476562 76.921875 88.710938 76.921875 90.230469 L 76.921875 245.15625 C 76.921875 246.675781 78.15625 247.910156 79.675781 247.910156 L 197.503906 247.910156 C 198.765625 249.601562 200.160156 251.21875 201.679688 252.734375 C 210.167969 261.222656 221.308594 265.464844 232.457031 265.464844 C 240.3125 265.464844 248.164062 263.347656 255.089844 259.128906 L 280.488281 284.53125 C 282.496094 286.535156 285.128906 287.535156 287.761719 287.535156 C 290.394531 287.535156 293.027344 286.535156 295.03125 284.53125 C 299.042969 280.519531 299.042969 273.996094 295.03125 269.992188 Z M 247.058594 180.933594 C 242.433594 179.292969 237.511719 178.433594 232.457031 178.433594 C 231.042969 178.433594 229.644531 178.503906 228.257812 178.636719 L 228.257812 138.296875 L 247.058594 123.816406 Z M 203.949219 157.007812 L 222.75 142.53125 L 222.75 179.511719 C 215.824219 181.082031 209.390625 184.332031 203.949219 189.0625 L 203.949219 157.003906 Z M 174.140625 242.40625 L 155.34375 242.40625 L 155.34375 164.582031 L 174.140625 175.921875 Z M 140.875 155.855469 L 149.832031 161.257812 L 149.832031 242.40625 L 131.035156 242.40625 L 131.035156 162.660156 Z M 125.53125 242.40625 L 106.730469 242.40625 L 106.730469 179.457031 L 125.53125 166.464844 L 125.53125 242.410156 Z M 82.421875 196.25 L 101.222656 183.261719 L 101.222656 242.40625 L 82.421875 242.40625 Z M 179.648438 242.40625 L 179.648438 175.71875 L 198.445312 161.242188 L 198.445312 194.789062 C 192.28125 202.476562 188.925781 211.957031 188.925781 221.953125 C 188.925781 229.203125 190.6875 236.179688 194.003906 242.398438 L 179.640625 242.398438 Z M 205.570312 248.84375 C 198.390625 241.660156 194.433594 232.117188 194.433594 221.957031 C 194.433594 211.800781 198.386719 202.257812 205.570312 195.074219 C 212.75 187.894531 222.300781 183.933594 232.457031 183.933594 C 242.613281 183.933594 252.160156 187.890625 259.34375 195.074219 C 266.523438 202.25 270.480469 211.800781 270.480469 221.957031 C 270.480469 232.117188 266.527344 241.660156 259.34375 248.84375 C 251.929688 256.257812 242.195312 259.964844 232.457031 259.964844 C 222.722656 259.964844 212.984375 256.257812 205.570312 248.84375 Z M 263.234375 252.734375 C 264.371094 251.597656 265.433594 250.410156 266.425781 249.175781 L 271.117188 253.867188 L 264.359375 260.625 L 259.664062 255.929688 C 260.894531 254.941406 262.089844 253.882812 263.226562 252.738281 Z M 291.132812 280.640625 C 289.269531 282.503906 286.238281 282.503906 284.375 280.640625 L 268.25 264.515625 L 275.007812 257.757812 L 291.132812 273.882812 C 292.996094 275.746094 292.996094 278.777344 291.132812 280.640625 Z M 249.304688 210.523438 C 250.378906 211.597656 250.378906 213.339844 249.304688 214.414062 L 230.324219 233.394531 C 229.808594 233.914062 229.109375 234.203125 228.378906 234.203125 C 227.648438 234.203125 226.945312 233.914062 226.433594 233.394531 L 215.605469 222.570312 C 214.535156 221.496094 214.535156 219.753906 215.605469 218.679688 C 216.679688 217.605469 218.421875 217.605469 219.5 218.679688 L 228.378906 227.554688 L 245.414062 210.519531 C 246.488281 209.445312 248.230469 209.445312 249.308594 210.519531 Z M 249.304688 210.523438 " fill-opacity="1" fill-rule="nonzero"/></g></svg>