<svg xmlns="http://www.w3.org/2000/svg" xmlns:xlink="http://www.w3.org/1999/xlink" width="500" zoomAndPan="magnify" viewBox="0 0 375 374.999991" height="500" preserveAspectRatio="xMidYMid meet" version="1.0"><defs><clipPath id="4c5154c9e3"><path d="M 76.941406 87.445312 L 298.191406 87.445312 L 298.191406 287.695312 L 76.941406 287.695312 Z M 76.941406 87.445312 " clip-rule="nonzero"/></clipPath></defs><g clip-path="url(#4c5154c9e3)"><path fill="#12100c" d="M 255.230469 199.375 C 242.726562 186.871094 222.382812 186.871094 209.875 199.375 C 197.371094 211.878906 197.371094 232.226562 209.875 244.730469 C 216.125 250.984375 224.339844 254.109375 232.550781 254.109375 C 240.761719 254.109375 248.972656 250.984375 255.226562 244.730469 C 267.730469 232.226562 267.730469 211.878906 255.226562 199.375 Z M 251.332031 240.839844 C 240.976562 251.195312 224.128906 251.195312 213.765625 240.839844 C 203.410156 230.480469 203.410156 213.628906 213.765625 203.269531 C 218.945312 198.089844 225.746094 195.5 232.550781 195.5 C 239.351562 195.5 246.15625 198.089844 251.332031 203.269531 C 261.6875 213.625 261.6875 230.476562 251.332031 240.839844 Z M 295.167969 270.121094 L 269.765625 244.71875 C 273.894531 237.960938 276.109375 230.179688 276.109375 222.054688 C 276.109375 210.421875 271.578125 199.480469 263.351562 191.253906 C 260.160156 188.066406 256.5625 185.433594 252.675781 183.40625 L 252.675781 119.601562 L 262.875 111.746094 L 261.941406 122.597656 C 261.8125 124.113281 262.933594 125.449219 264.453125 125.578125 C 264.53125 125.582031 264.613281 125.585938 264.691406 125.585938 C 266.105469 125.585938 267.308594 124.503906 267.433594 123.066406 L 268.894531 105.980469 C 268.960938 105.257812 268.730469 104.53125 268.257812 103.96875 C 267.785156 103.410156 267.113281 103.0625 266.386719 103.003906 L 249.300781 101.539062 C 247.785156 101.410156 246.449219 102.527344 246.320312 104.046875 C 246.191406 105.5625 247.3125 106.898438 248.832031 107.027344 L 258.863281 107.886719 L 176.769531 171.097656 L 142.242188 150.269531 C 141.316406 149.710938 140.144531 149.746094 139.253906 150.363281 L 82.429688 189.628906 L 82.429688 90.230469 C 82.429688 88.710938 81.195312 87.476562 79.675781 87.476562 C 78.15625 87.476562 76.921875 88.710938 76.921875 90.230469 L 76.921875 245.269531 C 76.921875 246.789062 78.15625 248.023438 79.675781 248.023438 L 197.582031 248.023438 C 198.84375 249.714844 200.238281 251.332031 201.757812 252.851562 C 210.25 261.34375 221.402344 265.589844 232.554688 265.589844 C 240.417969 265.589844 248.273438 263.46875 255.203125 259.25 L 280.621094 284.667969 C 282.625 286.675781 285.261719 287.675781 287.894531 287.675781 C 290.53125 287.675781 293.164062 286.675781 295.171875 284.667969 C 299.183594 280.65625 299.183594 274.128906 295.171875 270.121094 Z M 247.164062 181 C 242.539062 179.355469 237.613281 178.5 232.554688 178.5 C 231.140625 178.5 229.742188 178.566406 228.355469 178.699219 L 228.355469 138.332031 L 247.164062 123.84375 Z M 204.03125 157.054688 L 222.84375 142.566406 L 222.84375 179.578125 C 215.910156 181.148438 209.476562 184.402344 204.03125 189.132812 L 204.03125 157.050781 Z M 174.203125 242.511719 L 155.394531 242.511719 L 155.394531 164.636719 L 174.203125 175.984375 Z M 140.914062 155.902344 L 149.878906 161.3125 L 149.878906 242.511719 L 131.070312 242.511719 L 131.070312 162.710938 Z M 125.5625 242.511719 L 106.75 242.511719 L 106.75 179.523438 L 125.5625 166.523438 L 125.5625 242.519531 Z M 82.425781 196.328125 L 101.238281 183.328125 L 101.238281 242.511719 L 82.425781 242.511719 Z M 179.710938 242.511719 L 179.710938 175.78125 L 198.523438 161.292969 L 198.523438 194.863281 C 192.355469 202.558594 189 212.046875 189 222.050781 C 189 229.300781 190.761719 236.285156 194.078125 242.507812 L 179.707031 242.507812 Z M 205.652344 248.957031 C 198.46875 241.769531 194.507812 232.21875 194.507812 222.054688 C 194.507812 211.890625 198.464844 202.335938 205.652344 195.148438 C 212.835938 187.964844 222.390625 184.003906 232.554688 184.003906 C 242.71875 184.003906 252.269531 187.960938 259.457031 195.148438 C 266.640625 202.332031 270.605469 211.890625 270.605469 222.054688 C 270.605469 232.21875 266.648438 241.769531 259.457031 248.957031 C 252.039062 256.378906 242.300781 260.085938 232.554688 260.085938 C 222.816406 260.085938 213.070312 256.378906 205.652344 248.957031 Z M 263.351562 252.851562 C 264.488281 251.714844 265.554688 250.523438 266.546875 249.289062 L 271.242188 253.984375 L 264.480469 260.746094 L 259.78125 256.046875 C 261.011719 255.058594 262.207031 254 263.347656 252.855469 Z M 291.269531 280.777344 C 289.40625 282.640625 286.371094 282.640625 284.507812 280.777344 L 268.371094 264.640625 L 275.132812 257.878906 L 291.269531 274.015625 C 293.132812 275.878906 293.132812 278.910156 291.269531 280.777344 Z M 249.414062 210.609375 C 250.488281 211.683594 250.488281 213.429688 249.414062 214.503906 L 230.421875 233.496094 C 229.90625 234.015625 229.203125 234.304688 228.472656 234.304688 C 227.746094 234.304688 227.042969 234.015625 226.527344 233.496094 L 215.695312 222.664062 C 214.621094 221.589844 214.621094 219.84375 215.695312 218.769531 C 216.769531 217.695312 218.511719 217.695312 219.59375 218.769531 L 228.472656 227.652344 L 245.523438 210.605469 C 246.597656 209.53125 248.339844 209.53125 249.417969 210.605469 Z M 249.414062 210.609375 " fill-opacity="1" fill-rule="nonzero"/></g></svg>