<svg xmlns="http://www.w3.org/2000/svg" xmlns:xlink="http://www.w3.org/1999/xlink" width="500" zoomAndPan="magnify" viewBox="0 0 375 374.999991" height="500" preserveAspectRatio="xMidYMid meet" version="1.0"><defs><clipPath id="4e91770c20"><path d="M 63.609375 98.785156 L 311.109375 98.785156 L 311.109375 284.785156 L 63.609375 284.785156 Z M 63.609375 98.785156 " clip-rule="nonzero"/></clipPath></defs><g clip-path="url(#4e91770c20)"><path fill="#000000" d="M 297.28125 98.796875 L 98.507812 98.796875 C 90.941406 98.796875 84.785156 104.957031 84.785156 112.527344 L 84.785156 200.558594 C 72.121094 208.691406 63.714844 222.910156 63.714844 239.050781 C 63.714844 264.261719 84.21875 284.777344 109.421875 284.777344 C 115.039062 284.777344 120.425781 283.753906 125.402344 281.890625 L 297.285156 281.890625 C 304.851562 281.890625 311.007812 275.730469 311.007812 268.160156 L 311.007812 112.519531 C 311.003906 104.949219 304.847656 98.796875 297.28125 98.796875 Z M 69.871094 239.050781 C 69.871094 218.269531 85.96875 201.179688 106.34375 199.601562 L 106.34375 239.050781 C 106.34375 240.75 107.722656 242.128906 109.421875 242.128906 L 148.855469 242.128906 C 147.277344 262.511719 130.195312 278.617188 109.421875 278.617188 C 87.613281 278.617188 69.871094 260.867188 69.871094 239.050781 Z M 304.847656 268.160156 C 304.847656 272.335938 301.449219 275.730469 297.28125 275.730469 L 136.683594 275.730469 C 147.875 267.386719 155.132812 254.054688 155.132812 239.050781 C 155.132812 237.351562 153.753906 235.972656 152.054688 235.972656 L 112.503906 235.972656 L 112.503906 196.40625 C 112.503906 194.707031 111.125 193.324219 109.425781 193.324219 C 102.855469 193.324219 96.601562 194.722656 90.945312 197.238281 L 90.945312 112.519531 C 90.945312 108.347656 94.34375 104.949219 98.515625 104.949219 L 297.289062 104.949219 C 301.460938 104.949219 304.859375 108.347656 304.859375 112.519531 L 304.859375 268.160156 Z M 206.191406 206.683594 L 180.769531 206.683594 C 179.074219 206.683594 177.691406 208.066406 177.691406 209.765625 L 177.691406 262.25 C 177.691406 263.949219 179.074219 265.328125 180.769531 265.328125 L 206.191406 265.328125 C 207.890625 265.328125 209.269531 263.949219 209.269531 262.25 L 209.269531 209.765625 C 209.269531 208.066406 207.894531 206.683594 206.191406 206.683594 Z M 203.113281 259.167969 L 183.847656 259.167969 L 183.847656 212.84375 L 203.113281 212.84375 Z M 248.238281 178.066406 L 222.816406 178.066406 C 221.117188 178.066406 219.738281 179.449219 219.738281 181.144531 L 219.738281 262.25 C 219.738281 263.949219 221.117188 265.328125 222.816406 265.328125 L 248.238281 265.328125 C 249.933594 265.328125 251.316406 263.949219 251.316406 262.25 L 251.316406 181.144531 C 251.316406 179.449219 249.941406 178.066406 248.238281 178.066406 Z M 245.160156 259.167969 L 225.894531 259.167969 L 225.894531 184.226562 L 245.160156 184.226562 Z M 290.28125 190.40625 L 264.859375 190.40625 C 263.160156 190.40625 261.78125 191.785156 261.78125 193.484375 L 261.78125 262.25 C 261.78125 263.949219 263.160156 265.328125 264.859375 265.328125 L 290.28125 265.328125 C 291.980469 265.328125 293.359375 263.949219 293.359375 262.25 L 293.359375 193.484375 C 293.359375 191.78125 291.984375 190.40625 290.28125 190.40625 Z M 287.203125 259.167969 L 267.9375 259.167969 L 267.9375 196.5625 L 287.203125 196.5625 Z M 107.117188 139.71875 L 125.40625 139.71875 C 127.105469 139.71875 128.484375 138.335938 128.484375 136.636719 L 128.484375 118.339844 C 128.484375 116.640625 127.105469 115.261719 125.40625 115.261719 L 107.117188 115.261719 C 105.417969 115.261719 104.039062 116.640625 104.039062 118.339844 L 104.039062 136.636719 C 104.039062 138.335938 105.417969 139.71875 107.117188 139.71875 Z M 110.195312 121.421875 L 122.328125 121.421875 L 122.328125 133.558594 L 110.195312 133.558594 Z M 135.617188 121.21875 C 135.617188 119.519531 136.996094 118.140625 138.695312 118.140625 L 184.316406 118.140625 C 186.015625 118.140625 187.394531 119.519531 187.394531 121.21875 C 187.394531 122.917969 186.015625 124.300781 184.316406 124.300781 L 138.695312 124.300781 C 136.996094 124.300781 135.617188 122.917969 135.617188 121.21875 Z M 135.617188 133.757812 C 135.617188 132.058594 136.996094 130.679688 138.695312 130.679688 L 174.757812 130.679688 C 176.457031 130.679688 177.835938 132.058594 177.835938 133.757812 C 177.835938 135.457031 176.457031 136.835938 174.757812 136.835938 L 138.695312 136.835938 C 136.996094 136.835938 135.617188 135.460938 135.617188 133.757812 Z M 128.484375 166.097656 L 128.484375 147.800781 C 128.484375 146.101562 127.105469 144.722656 125.40625 144.722656 L 107.117188 144.722656 C 105.417969 144.722656 104.039062 146.101562 104.039062 147.800781 L 104.039062 166.097656 C 104.039062 167.796875 105.417969 169.175781 107.117188 169.175781 L 125.40625 169.175781 C 127.105469 169.175781 128.484375 167.796875 128.484375 166.097656 Z M 122.328125 163.019531 L 110.195312 163.019531 L 110.195312 150.878906 L 122.328125 150.878906 Z M 135.617188 150.675781 C 135.617188 148.976562 136.996094 147.59375 138.695312 147.59375 L 184.316406 147.59375 C 186.015625 147.59375 187.394531 148.976562 187.394531 150.675781 C 187.394531 152.375 186.015625 153.753906 184.316406 153.753906 L 138.695312 153.753906 C 136.996094 153.753906 135.617188 152.378906 135.617188 150.675781 Z M 177.835938 163.21875 C 177.835938 164.917969 176.457031 166.296875 174.757812 166.296875 L 138.695312 166.296875 C 136.996094 166.296875 135.617188 164.917969 135.617188 163.21875 C 135.617188 161.519531 136.996094 160.140625 138.695312 160.140625 L 174.757812 160.140625 C 176.460938 160.140625 177.835938 161.515625 177.835938 163.21875 Z M 121.734375 181.007812 C 120.035156 181.007812 118.65625 182.386719 118.65625 184.085938 L 118.65625 226.734375 C 118.65625 228.429688 120.035156 229.8125 121.734375 229.8125 L 164.363281 229.8125 C 166.0625 229.8125 167.441406 228.429688 167.441406 226.734375 C 167.441406 201.523438 146.941406 181.007812 121.734375 181.007812 Z M 124.8125 223.652344 L 124.8125 187.285156 C 144.175781 188.785156 159.667969 204.285156 161.167969 223.652344 Z M 124.8125 223.652344 " fill-opacity="1" fill-rule="nonzero"/></g></svg>