<svg xmlns="http://www.w3.org/2000/svg" xmlns:xlink="http://www.w3.org/1999/xlink" width="500" zoomAndPan="magnify" viewBox="0 0 375 374.999991" height="500" preserveAspectRatio="xMidYMid meet" version="1.0"><defs><clipPath id="068d84066b"><path d="M 63.609375 98.785156 L 311.109375 98.785156 L 311.109375 284.785156 L 63.609375 284.785156 Z M 63.609375 98.785156 " clip-rule="nonzero"/></clipPath></defs><g clip-path="url(#068d84066b)"><path fill="#ffffff" d="M 297.546875 98.796875 L 98.546875 98.796875 C 90.972656 98.796875 84.808594 104.960938 84.808594 112.535156 L 84.808594 200.632812 C 72.132812 208.773438 63.714844 223.003906 63.714844 239.15625 C 63.714844 264.386719 84.242188 284.917969 109.472656 284.917969 C 115.097656 284.917969 120.492188 283.894531 125.472656 282.03125 L 297.550781 282.03125 C 305.125 282.03125 311.289062 275.867188 311.289062 268.289062 L 311.289062 112.53125 C 311.285156 104.953125 305.121094 98.796875 297.546875 98.796875 Z M 69.878906 239.15625 C 69.878906 218.359375 85.996094 201.253906 106.390625 199.679688 L 106.390625 239.15625 C 106.390625 240.855469 107.773438 242.238281 109.472656 242.238281 L 148.953125 242.238281 C 147.375 262.636719 130.269531 278.753906 109.472656 278.753906 C 87.640625 278.753906 69.878906 260.992188 69.878906 239.15625 Z M 305.121094 268.289062 C 305.121094 272.464844 301.722656 275.867188 297.546875 275.867188 L 136.769531 275.867188 C 147.96875 267.515625 155.238281 254.171875 155.238281 239.15625 C 155.238281 237.457031 153.855469 236.074219 152.15625 236.074219 L 112.558594 236.074219 L 112.558594 196.480469 C 112.558594 194.777344 111.179688 193.398438 109.476562 193.398438 C 102.898438 193.398438 96.636719 194.792969 90.976562 197.3125 L 90.976562 112.53125 C 90.976562 108.355469 94.378906 104.953125 98.554688 104.953125 L 297.554688 104.953125 C 301.730469 104.953125 305.132812 108.355469 305.132812 112.53125 L 305.132812 268.289062 Z M 206.355469 206.765625 L 180.902344 206.765625 C 179.203125 206.765625 177.824219 208.148438 177.824219 209.847656 L 177.824219 262.371094 C 177.824219 264.074219 179.203125 265.453125 180.902344 265.453125 L 206.355469 265.453125 C 208.054688 265.453125 209.4375 264.074219 209.4375 262.371094 L 209.4375 209.847656 C 209.4375 208.148438 208.058594 206.765625 206.355469 206.765625 Z M 203.273438 259.292969 L 183.984375 259.292969 L 183.984375 212.929688 L 203.273438 212.929688 Z M 248.445312 178.125 L 222.996094 178.125 C 221.296875 178.125 219.914062 179.507812 219.914062 181.207031 L 219.914062 262.371094 C 219.914062 264.074219 221.296875 265.453125 222.996094 265.453125 L 248.445312 265.453125 C 250.148438 265.453125 251.527344 264.074219 251.527344 262.371094 L 251.527344 181.207031 C 251.527344 179.507812 250.152344 178.125 248.445312 178.125 Z M 245.367188 259.292969 L 226.078125 259.292969 L 226.078125 184.289062 L 245.367188 184.289062 Z M 290.539062 190.472656 L 265.089844 190.472656 C 263.386719 190.472656 262.007812 191.855469 262.007812 193.554688 L 262.007812 262.371094 C 262.007812 264.074219 263.386719 265.453125 265.089844 265.453125 L 290.539062 265.453125 C 292.238281 265.453125 293.621094 264.074219 293.621094 262.371094 L 293.621094 193.554688 C 293.621094 191.851562 292.246094 190.472656 290.539062 190.472656 Z M 287.457031 259.292969 L 268.171875 259.292969 L 268.171875 196.636719 L 287.457031 196.636719 Z M 107.167969 139.75 L 125.476562 139.75 C 127.179688 139.75 128.558594 138.367188 128.558594 136.667969 L 128.558594 118.355469 C 128.558594 116.65625 127.179688 115.273438 125.476562 115.273438 L 107.167969 115.273438 C 105.46875 115.273438 104.085938 116.65625 104.085938 118.355469 L 104.085938 136.667969 C 104.085938 138.367188 105.46875 139.75 107.167969 139.75 Z M 110.25 121.4375 L 122.394531 121.4375 L 122.394531 133.585938 L 110.25 133.585938 Z M 135.699219 121.238281 C 135.699219 119.535156 137.082031 118.15625 138.78125 118.15625 L 184.453125 118.15625 C 186.152344 118.15625 187.535156 119.535156 187.535156 121.238281 C 187.535156 122.9375 186.152344 124.320312 184.453125 124.320312 L 138.78125 124.320312 C 137.082031 124.320312 135.699219 122.9375 135.699219 121.238281 Z M 135.699219 133.785156 C 135.699219 132.085938 137.082031 130.703125 138.78125 130.703125 L 174.882812 130.703125 C 176.585938 130.703125 177.964844 132.085938 177.964844 133.785156 C 177.964844 135.484375 176.585938 136.867188 174.882812 136.867188 L 138.78125 136.867188 C 137.082031 136.867188 135.699219 135.488281 135.699219 133.785156 Z M 128.558594 166.148438 L 128.558594 147.835938 C 128.558594 146.136719 127.179688 144.757812 125.476562 144.757812 L 107.167969 144.757812 C 105.46875 144.757812 104.085938 146.136719 104.085938 147.835938 L 104.085938 166.148438 C 104.085938 167.847656 105.46875 169.230469 107.167969 169.230469 L 125.476562 169.230469 C 127.179688 169.230469 128.558594 167.847656 128.558594 166.148438 Z M 122.394531 163.066406 L 110.25 163.066406 L 110.25 150.917969 L 122.394531 150.917969 Z M 135.699219 150.714844 C 135.699219 149.015625 137.082031 147.632812 138.78125 147.632812 L 184.453125 147.632812 C 186.152344 147.632812 187.535156 149.015625 187.535156 150.714844 C 187.535156 152.414062 186.152344 153.796875 184.453125 153.796875 L 138.78125 153.796875 C 137.082031 153.796875 135.699219 152.417969 135.699219 150.714844 Z M 177.964844 163.265625 C 177.964844 164.96875 176.585938 166.347656 174.882812 166.347656 L 138.78125 166.347656 C 137.082031 166.347656 135.699219 164.96875 135.699219 163.265625 C 135.699219 161.566406 137.082031 160.1875 138.78125 160.1875 L 174.882812 160.1875 C 176.589844 160.1875 177.964844 161.5625 177.964844 163.265625 Z M 121.800781 181.070312 C 120.101562 181.070312 118.71875 182.453125 118.71875 184.152344 L 118.71875 226.828125 C 118.71875 228.53125 120.101562 229.910156 121.800781 229.910156 L 164.476562 229.910156 C 166.179688 229.910156 167.558594 228.53125 167.558594 226.828125 C 167.558594 201.601562 147.035156 181.070312 121.800781 181.070312 Z M 124.882812 223.746094 L 124.882812 187.351562 C 144.265625 188.851562 159.777344 204.363281 161.277344 223.746094 Z M 124.882812 223.746094 " fill-opacity="1" fill-rule="nonzero"/></g></svg>