<svg width="48" height="48" viewBox="0 0 48 48" fill="none" xmlns="http://www.w3.org/2000/svg">
<rect width="48" height="48" rx="24" fill="url(#paint0_linear_1_143)"/>
<path d="M14.6667 15.3334C13.6942 15.3334 12.7616 15.7197 12.0739 16.4073C11.3863 17.0949 11 18.0276 11 19V29C11 29.9725 11.3863 30.9051 12.0739 31.5928C12.7616 32.2804 13.6942 32.6667 14.6667 32.6667H26C26.9725 32.6667 27.9051 32.2804 28.5927 31.5928C29.2804 30.9051 29.6667 29.9725 29.6667 29V26.8747L34.2253 30.9347C35.2987 31.8907 37 31.128 37 29.6894V17.82C37 16.38 35.2987 15.6187 34.2253 16.5747L29.6667 20.6347V19C29.6667 18.0276 29.2804 17.0949 28.5927 16.4073C27.9051 15.7197 26.9725 15.3334 26 15.3334H14.6667Z" fill="white"/>
<defs>
<linearGradient id="paint0_linear_1_143" x1="9" y1="6.5" x2="40.5" y2="42.5" gradientUnits="userSpaceOnUse">
<stop stop-color="#7C69ED"/>
<stop offset="1" stop-color="#D193EC"/>
</linearGradient>
</defs>
</svg>
