<svg xmlns="http://www.w3.org/2000/svg" xmlns:xlink="http://www.w3.org/1999/xlink" width="500" zoomAndPan="magnify" viewBox="0 0 375 374.999991" height="500" preserveAspectRatio="xMidYMid meet" version="1.0"><defs><g/><clipPath id="4748f04a09"><path d="M 8.875 120.746094 L 365.875 120.746094 L 365.875 268.496094 L 8.875 268.496094 Z M 8.875 120.746094 " clip-rule="nonzero"/></clipPath><clipPath id="47bdc1deda"><path d="M 8.875 194.46875 C 8.875 235.183594 41.882812 268.191406 82.597656 268.191406 L 292.402344 268.191406 C 333.117188 268.191406 366.125 235.183594 366.125 194.46875 C 366.125 153.753906 333.117188 120.746094 292.402344 120.746094 L 82.597656 120.746094 C 41.882812 120.746094 8.875 153.753906 8.875 194.46875 Z M 8.875 194.46875 " clip-rule="nonzero"/></clipPath><clipPath id="2979bb1f4a"><rect x="0" width="271" y="0" height="113"/></clipPath><clipPath id="1877d3b479"><path d="M 339 226 L 345 226 L 345 232.515625 L 339 232.515625 Z M 339 226 " clip-rule="nonzero"/></clipPath><clipPath id="057037afdf"><path d="M 301 142.515625 L 319 142.515625 L 319 160 L 301 160 Z M 301 142.515625 " clip-rule="nonzero"/></clipPath><clipPath id="707153914a"><path d="M 333 152 L 348.089844 152 L 348.089844 168 L 333 168 Z M 333 152 " clip-rule="nonzero"/></clipPath></defs><g clip-path="url(#4748f04a09)"><g clip-path="url(#47bdc1deda)"><path fill="#8c52ff" d="M 34.269531 120.859375 L 340.726562 120.859375 C 341.558594 120.859375 342.386719 120.902344 343.214844 120.984375 C 344.042969 121.066406 344.867188 121.1875 345.679688 121.347656 C 346.496094 121.511719 347.304688 121.714844 348.097656 121.953125 C 348.894531 122.195312 349.675781 122.476562 350.445312 122.792969 C 351.214844 123.113281 351.964844 123.46875 352.699219 123.859375 C 353.433594 124.25 354.144531 124.679688 354.835938 125.140625 C 355.527344 125.601562 356.195312 126.097656 356.835938 126.625 C 357.480469 127.152344 358.097656 127.710938 358.683594 128.300781 C 359.273438 128.886719 359.828125 129.503906 360.359375 130.144531 C 360.886719 130.789062 361.378906 131.457031 361.84375 132.148438 C 362.304688 132.839844 362.730469 133.550781 363.125 134.285156 C 363.515625 135.019531 363.871094 135.769531 364.1875 136.539062 C 364.507812 137.304688 364.789062 138.089844 365.027344 138.882812 C 365.269531 139.679688 365.472656 140.484375 365.632812 141.300781 C 365.796875 142.117188 365.917969 142.9375 366 143.765625 C 366.082031 144.59375 366.121094 145.425781 366.121094 146.257812 L 366.121094 242.679688 C 366.121094 243.511719 366.082031 244.339844 366 245.167969 C 365.917969 245.996094 365.796875 246.816406 365.632812 247.632812 C 365.472656 248.449219 365.269531 249.253906 365.027344 250.050781 C 364.789062 250.847656 364.507812 251.628906 364.1875 252.398438 C 363.871094 253.167969 363.515625 253.917969 363.125 254.652344 C 362.730469 255.382812 362.304688 256.097656 361.84375 256.789062 C 361.378906 257.480469 360.886719 258.148438 360.359375 258.789062 C 359.828125 259.433594 359.273438 260.046875 358.683594 260.636719 C 358.097656 261.226562 357.480469 261.78125 356.835938 262.308594 C 356.195312 262.835938 355.527344 263.332031 354.835938 263.792969 C 354.144531 264.257812 353.433594 264.683594 352.699219 265.074219 C 351.964844 265.46875 351.214844 265.824219 350.445312 266.140625 C 349.675781 266.460938 348.894531 266.738281 348.097656 266.980469 C 347.304688 267.222656 346.496094 267.425781 345.679688 267.585938 C 344.867188 267.75 344.042969 267.871094 343.214844 267.953125 C 342.386719 268.035156 341.558594 268.074219 340.726562 268.074219 L 34.269531 268.074219 C 33.4375 268.074219 32.609375 268.035156 31.78125 267.953125 C 30.953125 267.871094 30.132812 267.75 29.316406 267.585938 C 28.5 267.425781 27.695312 267.222656 26.898438 266.980469 C 26.101562 266.738281 25.320312 266.460938 24.550781 266.140625 C 23.785156 265.824219 23.035156 265.46875 22.300781 265.074219 C 21.566406 264.683594 20.855469 264.257812 20.164062 263.792969 C 19.472656 263.332031 18.804688 262.839844 18.160156 262.308594 C 17.519531 261.78125 16.902344 261.226562 16.3125 260.636719 C 15.726562 260.046875 15.167969 259.433594 14.640625 258.789062 C 14.113281 258.148438 13.617188 257.480469 13.15625 256.789062 C 12.695312 256.097656 12.265625 255.382812 11.875 254.652344 C 11.484375 253.917969 11.128906 253.167969 10.808594 252.398438 C 10.492188 251.628906 10.210938 250.847656 9.96875 250.050781 C 9.726562 249.253906 9.527344 248.449219 9.363281 247.632812 C 9.203125 246.816406 9.078125 245.996094 9 245.167969 C 8.917969 244.339844 8.875 243.511719 8.875 242.679688 L 8.875 146.257812 C 8.875 145.425781 8.917969 144.59375 9 143.765625 C 9.078125 142.9375 9.203125 142.117188 9.363281 141.300781 C 9.527344 140.484375 9.726562 139.679688 9.96875 138.882812 C 10.210938 138.089844 10.492188 137.304688 10.808594 136.539062 C 11.128906 135.769531 11.484375 135.019531 11.875 134.285156 C 12.265625 133.550781 12.695312 132.839844 13.15625 132.148438 C 13.617188 131.457031 14.113281 130.789062 14.640625 130.144531 C 15.167969 129.503906 15.726562 128.886719 16.3125 128.300781 C 16.902344 127.710938 17.519531 127.152344 18.160156 126.625 C 18.804688 126.097656 19.472656 125.601562 20.164062 125.140625 C 20.855469 124.679688 21.566406 124.25 22.300781 123.859375 C 23.035156 123.46875 23.785156 123.113281 24.550781 122.792969 C 25.320312 122.476562 26.101562 122.195312 26.898438 121.953125 C 27.695312 121.714844 28.5 121.511719 29.316406 121.347656 C 30.132812 121.1875 30.953125 121.066406 31.78125 120.984375 C 32.609375 120.902344 33.4375 120.859375 34.269531 120.859375 Z M 34.269531 120.859375 " fill-opacity="1" fill-rule="nonzero"/></g></g><g transform="matrix(1, 0, 0, 1, 29, 138)"><g clip-path="url(#2979bb1f4a)"><g fill="#ffffff" fill-opacity="1"><g transform="translate(0.848735, 85.310736)"><g><path d="M 29.765625 -12.21875 L 45.40625 -12.21875 C 45.40625 -9.800781 45.253906 -7.734375 44.953125 -6.015625 C 44.648438 -4.296875 43.6875 -2.816406 42.0625 -1.578125 C 40.4375 -0.347656 38.296875 0.265625 35.640625 0.265625 L 15.203125 0.265625 C 12.609375 0.265625 10.554688 -0.484375 9.046875 -1.984375 C 7.535156 -3.492188 6.78125 -5.546875 6.78125 -8.140625 L 6.78125 -61.78125 L 7.421875 -62.40625 L 12.75 -62.40625 C 18.414062 -62.40625 21.25 -59.332031 21.25 -53.1875 L 21.25 -11.84375 C 23.90625 -12.09375 26.742188 -12.21875 29.765625 -12.21875 Z M 29.765625 -12.21875 "/></g></g></g><g fill="#ffffff" fill-opacity="1"><g transform="translate(43.44749, 85.310736)"><g><path d="M 21.703125 -34.734375 L 21.703125 0 C 20.679688 0.175781 19.566406 0.3125 18.359375 0.40625 C 17.148438 0.5 15.914062 0.546875 14.65625 0.546875 C 13.382812 0.546875 12.128906 0.5 10.890625 0.40625 C 9.660156 0.3125 8.53125 0.175781 7.5 0 L 7.5 -29.9375 C 7.5 -33.4375 6.082031 -35.1875 3.25 -35.1875 L 1.90625 -35.1875 C 1.539062 -36.332031 1.359375 -37.929688 1.359375 -39.984375 C 1.359375 -41.972656 1.539062 -43.660156 1.90625 -45.046875 C 3.46875 -45.171875 4.910156 -45.273438 6.234375 -45.359375 C 7.566406 -45.453125 8.773438 -45.5 9.859375 -45.5 L 11.84375 -45.5 C 14.925781 -45.5 17.335938 -44.53125 19.078125 -42.59375 C 20.828125 -40.664062 21.703125 -38.046875 21.703125 -34.734375 Z M 5.875 -63.3125 C 7.625 -64.28125 9.882812 -64.765625 12.65625 -64.765625 C 15.5 -64.765625 17.703125 -64.28125 19.265625 -63.3125 C 19.992188 -61.6875 20.359375 -59.941406 20.359375 -58.078125 C 20.359375 -56.203125 19.992188 -54.453125 19.265625 -52.828125 C 17.515625 -51.921875 15.222656 -51.46875 12.390625 -51.46875 C 9.554688 -51.46875 7.382812 -51.921875 5.875 -52.828125 C 5.15625 -54.453125 4.796875 -56.203125 4.796875 -58.078125 C 4.796875 -59.941406 5.15625 -61.6875 5.875 -63.3125 Z M 5.875 -63.3125 "/></g></g></g><g fill="#ffffff" fill-opacity="1"><g transform="translate(65.786565, 85.310736)"><g><path d="M 44.328125 -29.84375 L 44.328125 -11.3125 C 44.328125 -7.332031 45.050781 -4.347656 46.5 -2.359375 C 44.207031 -0.304688 41.460938 0.71875 38.265625 0.71875 C 35.128906 0.71875 32.988281 -0.00390625 31.84375 -1.453125 C 30.695312 -2.898438 30.125 -5.097656 30.125 -8.046875 L 30.125 -27.3125 C 30.125 -29.363281 29.851562 -30.867188 29.3125 -31.828125 C 28.769531 -32.796875 27.710938 -33.28125 26.140625 -33.28125 C 25.234375 -33.28125 24.207031 -33.039062 23.0625 -32.5625 C 21.914062 -32.082031 20.738281 -31.300781 19.53125 -30.21875 L 19.53125 0 C 18.507812 0.175781 17.394531 0.3125 16.1875 0.40625 C 14.976562 0.5 13.742188 0.546875 12.484375 0.546875 C 11.210938 0.546875 9.972656 0.5 8.765625 0.40625 C 7.566406 0.3125 6.453125 0.175781 5.421875 0 L 5.421875 -45.140625 L 6.0625 -45.765625 L 11.390625 -45.765625 C 15.078125 -45.765625 17.550781 -43.957031 18.8125 -40.34375 C 23.03125 -44.082031 27.222656 -45.953125 31.390625 -45.953125 C 35.609375 -45.953125 38.816406 -44.488281 41.015625 -41.5625 C 43.222656 -38.632812 44.328125 -34.726562 44.328125 -29.84375 Z M 44.328125 -29.84375 "/></g></g></g><g fill="#ffffff" fill-opacity="1"><g transform="translate(110.646454, 85.310736)"><g><path d="M 32.921875 -42.234375 C 34.972656 -44.523438 37.804688 -45.734375 41.421875 -45.859375 C 42.390625 -45.140625 43.3125 -44.054688 44.1875 -42.609375 C 45.0625 -41.160156 45.585938 -39.832031 45.765625 -38.625 C 44.078125 -37.476562 43.234375 -35.304688 43.234375 -32.109375 L 43.234375 -8.234375 C 43.234375 -2.679688 42.796875 1.914062 41.921875 5.5625 C 41.046875 9.207031 39.71875 12.097656 37.9375 14.234375 C 36.164062 16.378906 33.921875 17.875 31.203125 18.71875 C 28.492188 19.5625 25.300781 19.984375 21.625 19.984375 C 15.40625 19.984375 9.734375 18.988281 4.609375 17 C 4.609375 15.3125 4.941406 13.472656 5.609375 11.484375 C 6.273438 9.492188 7.085938 7.925781 8.046875 6.78125 C 12.085938 8.59375 16.191406 9.5 20.359375 9.5 C 26.441406 9.5 29.484375 6.453125 29.484375 0.359375 L 29.484375 -2.625 C 26.234375 -0.269531 22.796875 0.90625 19.171875 0.90625 C 13.804688 0.90625 9.75 -1.21875 7 -5.46875 C 4.257812 -9.71875 2.890625 -15.492188 2.890625 -22.796875 C 2.890625 -26.472656 3.359375 -29.769531 4.296875 -32.6875 C 5.234375 -35.613281 6.515625 -38.101562 8.140625 -40.15625 C 9.765625 -42.207031 11.644531 -43.773438 13.78125 -44.859375 C 15.925781 -45.953125 18.207031 -46.5 20.625 -46.5 C 25.507812 -46.5 29.609375 -45.078125 32.921875 -42.234375 Z M 29.484375 -13.5625 L 29.484375 -32.921875 C 27.378906 -34.972656 25.390625 -36 23.515625 -36 C 19.410156 -36 17.359375 -31.476562 17.359375 -22.4375 C 17.359375 -14.476562 19.140625 -10.5 22.703125 -10.5 C 25.171875 -10.5 27.429688 -11.519531 29.484375 -13.5625 Z M 29.484375 -13.5625 "/></g></g></g><g fill="#ffffff" fill-opacity="1"><g transform="translate(154.511441, 85.310736)"><g><path d="M 22.515625 -10.765625 L 30.390625 -45.046875 C 32.078125 -45.410156 33.976562 -45.59375 36.09375 -45.59375 C 38.6875 -45.59375 40.945312 -45.226562 42.875 -44.5 L 43.328125 -43.875 C 37.171875 -21.4375 32.976562 -6.8125 30.75 0 C 27.675781 0.363281 24.4375 0.546875 21.03125 0.546875 C 17.625 0.546875 15.195312 0.078125 13.75 -0.859375 C 12.300781 -1.796875 11.1875 -3.585938 10.40625 -6.234375 L -0.453125 -44.046875 C 2.503906 -45.316406 5.128906 -45.953125 7.421875 -45.953125 C 9.710938 -45.953125 11.488281 -45.453125 12.75 -44.453125 C 14.019531 -43.460938 14.957031 -41.757812 15.5625 -39.34375 L 19.625 -22.4375 C 19.925781 -21.289062 20.59375 -17.640625 21.625 -11.484375 C 21.675781 -11.003906 21.972656 -10.765625 22.515625 -10.765625 Z M 22.515625 -10.765625 "/></g></g></g><g fill="#ffffff" fill-opacity="1"><g transform="translate(193.311499, 85.310736)"><g><path d="M 21.890625 -12.9375 C 20.265625 -12.9375 19.054688 -12.96875 18.265625 -13.03125 L 14.375 0.09375 C 12.9375 0.457031 10.921875 0.640625 8.328125 0.640625 C 5.429688 0.640625 3.078125 0.304688 1.265625 -0.359375 L 0.8125 -1.078125 L 20.71875 -61.78125 C 23.0625 -62.144531 25.800781 -62.328125 28.9375 -62.328125 C 32.5 -62.328125 35.335938 -62.113281 37.453125 -61.6875 L 56.984375 -0.90625 C 54.867188 0.238281 52.488281 0.8125 49.84375 0.8125 C 46.707031 0.8125 44.503906 0.269531 43.234375 -0.8125 C 41.972656 -1.894531 40.890625 -3.976562 39.984375 -7.0625 L 38.265625 -13.03125 C 37.472656 -12.96875 36.296875 -12.9375 34.734375 -12.9375 Z M 21.625 -24.328125 L 25.234375 -24.421875 L 31.84375 -24.421875 C 32.144531 -24.421875 32.671875 -24.40625 33.421875 -24.375 C 34.171875 -24.34375 34.726562 -24.328125 35.09375 -24.328125 L 33.5625 -29.9375 C 32.113281 -35 30.453125 -41.210938 28.578125 -48.578125 L 28.046875 -48.578125 C 27.554688 -45.984375 26.109375 -40.222656 23.703125 -31.296875 Z M 21.625 -24.328125 "/></g></g></g><g fill="#ffffff" fill-opacity="1"><g transform="translate(246.401886, 85.310736)"><g><path d="M 7.0625 0 L 7.0625 -61.78125 C 8.925781 -62.144531 11.332031 -62.328125 14.28125 -62.328125 C 17.238281 -62.328125 19.6875 -62.144531 21.625 -61.78125 L 21.625 0 C 19.6875 0.363281 17.238281 0.546875 14.28125 0.546875 C 11.332031 0.546875 8.925781 0.363281 7.0625 0 Z M 7.0625 0 "/></g></g></g></g></g><path fill="#dac0b7" d="M 339.945312 229.324219 L 331.855469 221 C 330.9375 220.289062 330.628906 218.257812 331.703125 217.8125 L 341.378906 213.828125 C 342.453125 213.390625 343.636719 215.058594 343.480469 216.210938 L 343.601562 227.8125 L 339.945312 229.324219 " fill-opacity="1" fill-rule="nonzero"/><path stroke-linecap="round" transform="matrix(0.0386345, 0, 0, -0.0386688, 242.501533, 269.802755)" fill="none" stroke-linejoin="round" d="M 2522.195711 1046.801708 L 2312.80144 1262.071507 C 2289.041105 1280.456821 2281.053588 1332.986289 2308.858236 1344.502364 L 2559.302276 1447.540936 C 2587.106923 1458.854975 2617.742589 1415.7202 2613.698277 1385.919829 L 2616.832619 1085.895754 Z M 2522.195711 1046.801708 " stroke="#000000" stroke-width="40" stroke-opacity="1" stroke-miterlimit="10"/><path fill="#000000" d="M 343.59375 227.605469 L 343.613281 230.289062 C 343.453125 231.421875 342.585938 231.777344 341.675781 231.082031 L 339.804688 229.171875 L 343.59375 227.605469 " fill-opacity="1" fill-rule="nonzero"/><g clip-path="url(#1877d3b479)"><path stroke-linecap="round" transform="matrix(0.0386345, 0, 0, -0.0386688, 242.501533, 269.802755)" fill="none" stroke-linejoin="round" d="M 2616.630403 1091.249719 L 2617.135942 1021.85021 C 2612.990522 992.655949 2590.544589 983.362274 2566.98647 1001.343514 L 2518.55583 1050.741418 Z M 2616.630403 1091.249719 " stroke="#000000" stroke-width="40" stroke-opacity="1" stroke-miterlimit="10"/></g><path fill="#ef2e68" d="M 302.082031 149.878906 C 301.71875 149.003906 302.136719 148.003906 303.007812 147.644531 L 312.097656 143.878906 C 312.972656 143.515625 313.972656 143.929688 314.332031 144.804688 L 317.53125 152.535156 C 317.890625 153.410156 317.476562 154.410156 316.601562 154.773438 L 307.511719 158.539062 C 306.640625 158.898438 305.640625 158.484375 305.277344 157.609375 L 302.082031 149.878906 " fill-opacity="1" fill-rule="nonzero"/><g clip-path="url(#057037afdf)"><path fill="#000000" d="M 314.601562 147.480469 L 314.75 147.835938 C 314.832031 148.035156 314.96875 148.171875 315.167969 148.253906 C 315.363281 148.335938 315.5625 148.335938 315.757812 148.253906 C 315.957031 148.171875 316.09375 148.035156 316.175781 147.835938 C 316.257812 147.640625 316.257812 147.441406 316.175781 147.246094 L 316.027344 146.886719 C 315.945312 146.691406 315.808594 146.550781 315.609375 146.46875 C 315.414062 146.386719 315.214844 146.386719 315.019531 146.46875 C 314.820312 146.550781 314.683594 146.691406 314.601562 146.886719 C 314.519531 147.085938 314.519531 147.28125 314.601562 147.480469 Z M 315.488281 149.621094 L 316.816406 152.832031 C 316.914062 153.070312 316.914062 153.3125 316.8125 153.550781 C 316.714844 153.789062 316.546875 153.960938 316.304688 154.0625 L 307.714844 157.617188 C 307.515625 157.699219 307.378906 157.835938 307.296875 158.035156 C 307.214844 158.230469 307.214844 158.429688 307.296875 158.628906 C 307.375 158.824219 307.515625 158.964844 307.710938 159.046875 C 307.910156 159.128906 308.105469 159.128906 308.304688 159.046875 L 316.898438 155.488281 C 317.53125 155.226562 317.980469 154.777344 318.242188 154.144531 C 318.503906 153.507812 318.503906 152.875 318.242188 152.238281 L 316.914062 149.03125 C 316.832031 148.832031 316.695312 148.695312 316.496094 148.613281 C 316.300781 148.53125 316.101562 148.53125 315.90625 148.613281 C 315.707031 148.695312 315.570312 148.832031 315.488281 149.03125 C 315.40625 149.226562 315.40625 149.425781 315.488281 149.621094 Z M 306.289062 157.699219 C 306.234375 157.65625 306.183594 157.609375 306.136719 157.554688 C 306.003906 157.390625 305.828125 157.300781 305.613281 157.28125 C 305.402344 157.261719 305.214844 157.320312 305.050781 157.457031 C 304.886719 157.59375 304.792969 157.765625 304.773438 157.980469 C 304.753906 158.191406 304.8125 158.378906 304.949219 158.542969 C 305.070312 158.6875 305.207031 158.820312 305.355469 158.933594 C 305.527344 159.0625 305.714844 159.113281 305.925781 159.082031 C 306.140625 159.054688 306.308594 158.953125 306.4375 158.785156 C 306.566406 158.613281 306.617188 158.425781 306.589844 158.210938 C 306.558594 158 306.460938 157.832031 306.289062 157.699219 Z M 305.449219 156.003906 L 302.796875 149.582031 C 302.699219 149.34375 302.699219 149.105469 302.796875 148.863281 C 302.894531 148.625 303.0625 148.457031 303.300781 148.359375 L 312.394531 144.59375 C 312.632812 144.492188 312.871094 144.496094 313.109375 144.59375 C 313.351562 144.691406 313.519531 144.863281 313.617188 145.101562 L 313.714844 145.335938 C 313.796875 145.53125 313.933594 145.671875 314.132812 145.753906 C 314.328125 145.835938 314.527344 145.835938 314.722656 145.753906 C 314.921875 145.671875 315.058594 145.53125 315.140625 145.335938 C 315.222656 145.136719 315.222656 144.941406 315.140625 144.742188 L 315.046875 144.511719 C 314.785156 143.875 314.335938 143.429688 313.703125 143.164062 C 313.070312 142.902344 312.4375 142.902344 311.800781 143.164062 L 302.710938 146.929688 C 302.078125 147.191406 301.632812 147.640625 301.371094 148.273438 C 301.105469 148.90625 301.105469 149.542969 301.371094 150.175781 L 304.023438 156.59375 C 304.105469 156.792969 304.242188 156.929688 304.441406 157.011719 C 304.636719 157.09375 304.835938 157.09375 305.03125 157.011719 C 305.230469 156.929688 305.367188 156.792969 305.449219 156.59375 C 305.53125 156.398438 305.53125 156.199219 305.449219 156.003906 Z M 305.449219 156.003906 " fill-opacity="1" fill-rule="nonzero"/></g><path fill="#ee8f42" d="M 331.425781 220.546875 C 331.414062 220.527344 331.34375 220.410156 331.335938 220.390625 L 308.0625 164.199219 C 307.703125 163.332031 308.117188 162.339844 308.984375 161.980469 L 318 158.242188 C 318.867188 157.882812 319.859375 158.296875 320.21875 159.167969 L 343.441406 215.472656 C 343.449219 215.496094 343.484375 215.703125 343.488281 215.71875 L 341.59375 214.382812 L 341.179688 216.644531 L 338.664062 215.316406 L 337.960938 217.933594 L 335.539062 216.394531 L 334.566406 219.289062 L 332.261719 217.789062 L 331.425781 220.546875 " fill-opacity="1" fill-rule="nonzero"/><path fill="#000000" d="M 338.402344 205.277344 L 338.546875 205.636719 C 338.628906 205.832031 338.769531 205.972656 338.964844 206.054688 C 339.164062 206.136719 339.359375 206.136719 339.558594 206.054688 C 339.753906 205.972656 339.894531 205.832031 339.976562 205.636719 C 340.058594 205.4375 340.058594 205.242188 339.976562 205.042969 L 339.828125 204.6875 C 339.746094 204.488281 339.609375 204.351562 339.410156 204.269531 C 339.214844 204.1875 339.015625 204.1875 338.820312 204.265625 C 338.621094 204.347656 338.484375 204.488281 338.402344 204.683594 C 338.320312 204.882812 338.320312 205.078125 338.402344 205.277344 Z M 339.285156 207.421875 L 342.726562 215.769531 L 343.441406 215.472656 L 342.707031 215.71875 C 342.699219 215.691406 342.695312 215.671875 342.691406 215.65625 C 342.691406 215.664062 342.695312 215.675781 342.699219 215.695312 C 342.703125 215.71875 342.710938 215.757812 342.71875 215.808594 C 342.726562 215.84375 342.730469 215.863281 342.730469 215.871094 L 343.488281 215.71875 L 343.933594 215.089844 L 342.039062 213.75 C 341.867188 213.628906 341.675781 213.585938 341.464844 213.621094 C 341.253906 213.65625 341.085938 213.761719 340.964844 213.9375 C 340.898438 214.027344 340.855469 214.132812 340.835938 214.242188 L 340.417969 216.503906 L 341.179688 216.644531 L 341.539062 215.960938 L 339.023438 214.628906 C 338.835938 214.53125 338.640625 214.511719 338.433594 214.574219 C 338.230469 214.636719 338.078125 214.765625 337.980469 214.953125 C 337.953125 215.003906 337.929688 215.058594 337.917969 215.113281 L 337.214844 217.730469 L 337.960938 217.933594 L 338.375 217.28125 L 335.953125 215.742188 C 335.769531 215.625 335.578125 215.59375 335.367188 215.640625 C 335.160156 215.683594 335 215.796875 334.886719 215.980469 C 334.851562 216.03125 334.824219 216.089844 334.804688 216.148438 L 333.835938 219.042969 L 334.566406 219.289062 L 334.988281 218.640625 L 332.683594 217.140625 C 332.503906 217.023438 332.308594 216.988281 332.101562 217.03125 C 331.890625 217.078125 331.730469 217.1875 331.613281 217.367188 C 331.574219 217.429688 331.542969 217.496094 331.523438 217.566406 L 330.6875 220.320312 L 331.425781 220.546875 L 332.089844 220.148438 C 332.074219 220.121094 332.058594 220.097656 332.046875 220.078125 C 332.039062 220.0625 332.03125 220.050781 332.027344 220.042969 C 332.035156 220.0625 332.046875 220.082031 332.054688 220.105469 L 308.777344 163.902344 C 308.679688 163.667969 308.679688 163.429688 308.777344 163.195312 C 308.875 162.957031 309.042969 162.792969 309.28125 162.691406 L 318.296875 158.957031 C 318.53125 158.859375 318.765625 158.859375 319.003906 158.957031 C 319.238281 159.058594 319.40625 159.226562 319.503906 159.464844 L 337.515625 203.132812 C 337.597656 203.332031 337.738281 203.46875 337.933594 203.550781 C 338.132812 203.632812 338.328125 203.632812 338.523438 203.550781 C 338.722656 203.472656 338.863281 203.332031 338.945312 203.132812 C 339.027344 202.9375 339.027344 202.738281 338.945312 202.542969 L 320.933594 158.871094 C 320.671875 158.238281 320.226562 157.792969 319.597656 157.53125 C 318.964844 157.265625 318.335938 157.265625 317.707031 157.527344 L 308.6875 161.265625 C 308.058594 161.527344 307.613281 161.972656 307.351562 162.601562 C 307.089844 163.234375 307.089844 163.863281 307.351562 164.496094 L 330.621094 220.679688 C 330.640625 220.730469 330.6875 220.820312 330.765625 220.945312 C 330.867188 221.113281 331.011719 221.230469 331.203125 221.285156 C 331.40625 221.347656 331.601562 221.328125 331.792969 221.226562 C 331.980469 221.128906 332.105469 220.976562 332.167969 220.769531 L 333 218.011719 L 332.261719 217.789062 L 331.839844 218.4375 L 334.144531 219.9375 C 334.203125 219.972656 334.261719 220.003906 334.320312 220.023438 C 334.523438 220.089844 334.722656 220.078125 334.910156 219.980469 C 335.101562 219.886719 335.230469 219.738281 335.300781 219.535156 L 336.269531 216.640625 L 335.539062 216.394531 L 335.125 217.046875 L 337.546875 218.585938 C 337.613281 218.628906 337.683594 218.660156 337.757812 218.679688 C 337.964844 218.734375 338.160156 218.710938 338.34375 218.601562 C 338.53125 218.496094 338.652344 218.339844 338.707031 218.132812 L 339.410156 215.515625 L 338.664062 215.316406 L 338.300781 216 L 340.816406 217.328125 C 340.886719 217.367188 340.960938 217.390625 341.039062 217.40625 C 341.246094 217.445312 341.441406 217.402344 341.617188 217.28125 C 341.792969 217.160156 341.898438 216.996094 341.9375 216.785156 L 342.355469 214.523438 L 341.59375 214.382812 L 341.148438 215.015625 L 343.042969 216.351562 C 343.222656 216.480469 343.421875 216.523438 343.640625 216.480469 C 343.847656 216.4375 344.011719 216.328125 344.132812 216.148438 C 344.25 215.972656 344.289062 215.777344 344.246094 215.570312 C 344.246094 215.5625 344.242188 215.550781 344.242188 215.539062 C 344.210938 215.378906 344.191406 215.277344 344.175781 215.230469 C 344.167969 215.210938 344.164062 215.195312 344.15625 215.179688 L 340.714844 206.832031 C 340.632812 206.632812 340.492188 206.496094 340.296875 206.414062 C 340.097656 206.332031 339.902344 206.332031 339.703125 206.410156 C 339.507812 206.492188 339.367188 206.632812 339.285156 206.828125 C 339.203125 207.027344 339.203125 207.222656 339.285156 207.421875 Z M 339.285156 207.421875 " fill-opacity="1" fill-rule="nonzero"/><path fill="#918f8f" d="M 308.269531 164.832031 C 308.257812 164.808594 308.246094 164.785156 308.234375 164.757812 L 305.039062 157.027344 L 317.285156 151.957031 L 320.484375 159.691406 C 320.492188 159.710938 320.5 159.738281 320.507812 159.761719 L 308.269531 164.832031 " fill-opacity="1" fill-rule="nonzero"/><path stroke-linecap="round" transform="matrix(0.0386345, 0, 0, -0.0386688, 242.501533, 269.802755)" fill="none" stroke-linejoin="round" d="M 1702.312495 2714.612309 C 1702.009172 2715.218418 1701.705848 2715.824527 1701.402525 2716.531654 L 1618.696338 2916.446687 L 1935.669316 3047.568319 L 2018.476611 2847.552269 C 2018.678827 2847.047178 2018.881042 2846.340051 2019.083258 2845.733942 Z M 1702.312495 2714.612309 " stroke="#000000" stroke-width="40" stroke-opacity="1" stroke-miterlimit="10"/><path fill="#000000" d="M 314.167969 169.074219 L 331.390625 211.09375 " fill-opacity="1" fill-rule="nonzero"/><path fill="#000000" d="M 314.167969 169.074219 C 314.167969 169.074219 314.25 169.234375 314.402344 169.53125 C 314.550781 169.828125 314.78125 170.261719 315.054688 170.824219 C 315.601562 171.9375 316.378906 173.535156 317.269531 175.46875 C 317.71875 176.4375 318.207031 177.484375 318.695312 178.597656 C 319.195312 179.714844 319.726562 180.886719 320.246094 182.109375 C 320.769531 183.335938 321.332031 184.589844 321.863281 185.878906 C 322.402344 187.171875 322.949219 188.476562 323.496094 189.789062 C 324.027344 191.105469 324.558594 192.421875 325.078125 193.71875 C 325.609375 195.011719 326.085938 196.300781 326.574219 197.539062 C 327.0625 198.777344 327.503906 199.984375 327.929688 201.128906 C 328.363281 202.269531 328.753906 203.355469 329.113281 204.359375 C 329.835938 206.363281 330.402344 208.046875 330.796875 209.226562 C 331.1875 210.410156 331.390625 211.09375 331.390625 211.09375 C 331.390625 211.09375 331.0625 210.460938 330.511719 209.347656 C 329.957031 208.230469 329.183594 206.632812 328.289062 204.695312 C 327.839844 203.730469 327.359375 202.679688 326.863281 201.5625 C 326.367188 200.453125 325.835938 199.277344 325.316406 198.058594 C 324.792969 196.832031 324.230469 195.578125 323.695312 194.285156 C 323.160156 192.996094 322.613281 191.6875 322.070312 190.378906 C 321.535156 189.058594 321.007812 187.742188 320.484375 186.449219 C 319.960938 185.152344 319.476562 183.867188 318.988281 182.628906 C 318.503906 181.386719 318.058594 180.179688 317.632812 179.035156 C 317.203125 177.894531 316.8125 176.808594 316.453125 175.808594 C 315.730469 173.804688 315.160156 172.117188 314.765625 170.9375 C 314.570312 170.347656 314.425781 169.878906 314.328125 169.5625 C 314.222656 169.242188 314.167969 169.074219 314.167969 169.074219 " fill-opacity="1" fill-rule="nonzero"/><path fill="#000000" d="M 318.753906 166.585938 L 335.976562 208.601562 " fill-opacity="1" fill-rule="nonzero"/><path fill="#000000" d="M 318.753906 166.585938 C 318.753906 166.585938 318.835938 166.742188 318.984375 167.039062 C 319.136719 167.339844 319.363281 167.769531 319.636719 168.332031 C 320.1875 169.445312 320.964844 171.046875 321.851562 172.980469 C 322.300781 173.945312 322.789062 174.996094 323.28125 176.113281 C 323.777344 177.226562 324.308594 178.398438 324.832031 179.621094 C 325.351562 180.84375 325.917969 182.097656 326.449219 183.390625 C 326.988281 184.679688 327.53125 185.988281 328.082031 187.300781 C 328.609375 188.617188 329.140625 189.933594 329.660156 191.226562 C 330.191406 192.519531 330.667969 193.8125 331.15625 195.046875 C 331.644531 196.289062 332.089844 197.496094 332.515625 198.636719 C 332.949219 199.777344 333.339844 200.867188 333.699219 201.871094 C 334.421875 203.871094 334.988281 205.558594 335.378906 206.738281 C 335.769531 207.921875 335.976562 208.601562 335.976562 208.601562 C 335.976562 208.601562 335.644531 207.972656 335.09375 206.855469 C 334.542969 205.738281 333.769531 204.140625 332.875 202.207031 C 332.425781 201.238281 331.941406 200.191406 331.449219 199.078125 C 330.953125 197.964844 330.421875 196.789062 329.898438 195.566406 C 329.375 194.339844 328.8125 193.085938 328.28125 191.796875 C 327.746094 190.503906 327.195312 189.199219 326.652344 187.886719 C 326.121094 186.566406 325.59375 185.253906 325.070312 183.957031 C 324.542969 182.664062 324.0625 181.375 323.574219 180.136719 C 323.089844 178.894531 322.644531 177.691406 322.214844 176.550781 C 321.785156 175.410156 321.398438 174.316406 321.039062 173.316406 C 320.316406 171.3125 319.742188 169.628906 319.351562 168.449219 C 319.152344 167.855469 319.011719 167.386719 318.910156 167.070312 C 318.808594 166.75 318.753906 166.585938 318.753906 166.585938 " fill-opacity="1" fill-rule="nonzero"/><path fill="#ffffff" d="M 347.324219 159.964844 C 341.574219 160.441406 341.191406 160.832031 340.710938 166.585938 C 340.230469 160.832031 339.84375 160.441406 334.101562 159.964844 C 339.84375 159.484375 340.230469 159.097656 340.710938 153.34375 C 341.191406 159.097656 341.574219 159.484375 347.324219 159.964844 " fill-opacity="1" fill-rule="nonzero"/><g clip-path="url(#707153914a)"><path stroke-linecap="round" transform="matrix(0.0386345, 0, 0, -0.0386688, 242.501533, 269.802755)" fill="none" stroke-linejoin="round" d="M 2713.18836 2840.480995 C 2564.357667 2828.156773 2554.449101 2818.054953 2542.012841 2669.255134 C 2529.576581 2818.054953 2519.566908 2828.156773 2370.93843 2840.480995 C 2519.566908 2852.906234 2529.576581 2862.907037 2542.012841 3011.706856 C 2554.449101 2862.907037 2564.357667 2852.906234 2713.18836 2840.480995 Z M 2713.18836 2840.480995 " stroke="#000000" stroke-width="38.945999" stroke-opacity="1" stroke-miterlimit="10"/></g><path fill="#ffffff" d="M 320.78125 208.605469 C 315.035156 209.082031 314.648438 209.46875 314.167969 215.222656 C 313.691406 209.46875 313.308594 209.082031 307.558594 208.605469 C 313.308594 208.125 313.691406 207.738281 314.167969 201.984375 C 314.648438 207.738281 315.035156 208.125 320.78125 208.605469 " fill-opacity="1" fill-rule="nonzero"/><path stroke-linecap="round" transform="matrix(0.0386345, 0, 0, -0.0386688, 242.501533, 269.802755)" fill="none" stroke-linejoin="round" d="M 2026.160804 1582.602279 C 1877.431219 1570.278057 1867.421546 1560.277255 1854.985285 1411.477436 C 1842.650133 1560.277255 1832.741568 1570.278057 1683.910874 1582.602279 C 1832.741568 1595.027518 1842.650133 1605.028321 1854.985285 1753.82814 C 1867.421546 1605.028321 1877.431219 1595.027518 2026.160804 1582.602279 Z M 2026.160804 1582.602279 " stroke="#000000" stroke-width="38.945999" stroke-opacity="1" stroke-miterlimit="10"/></svg>