<svg xmlns="http://www.w3.org/2000/svg" xmlns:xlink="http://www.w3.org/1999/xlink" width="500" zoomAndPan="magnify" viewBox="0 0 375 374.999991" height="500" preserveAspectRatio="xMidYMid meet" version="1.0"><defs><g/><clipPath id="2d39955609"><path d="M 8.875 120.746094 L 365.875 120.746094 L 365.875 268.496094 L 8.875 268.496094 Z M 8.875 120.746094 " clip-rule="nonzero"/></clipPath><clipPath id="ea5ed40013"><rect x="0" width="277" y="0" height="120"/></clipPath><clipPath id="39177fc164"><path d="M 346 243 L 354 243 L 354 251.664062 L 346 251.664062 Z M 346 243 " clip-rule="nonzero"/></clipPath><clipPath id="4c85fb8636"><path d="M 295 130.164062 L 319 130.164062 L 319 153 L 295 153 Z M 295 130.164062 " clip-rule="nonzero"/></clipPath><clipPath id="4f2d22af74"><path d="M 338 143 L 358.542969 143 L 358.542969 164 L 338 164 Z M 338 143 " clip-rule="nonzero"/></clipPath></defs><g clip-path="url(#2d39955609)"><path fill="#8c52ff" d="M 34.269531 120.859375 L 340.726562 120.859375 C 341.558594 120.859375 342.386719 120.902344 343.214844 120.984375 C 344.042969 121.066406 344.867188 121.1875 345.679688 121.347656 C 346.496094 121.511719 347.304688 121.714844 348.097656 121.953125 C 348.894531 122.195312 349.675781 122.476562 350.445312 122.792969 C 351.214844 123.113281 351.964844 123.46875 352.699219 123.859375 C 353.433594 124.25 354.144531 124.679688 354.835938 125.140625 C 355.527344 125.601562 356.195312 126.097656 356.835938 126.625 C 357.480469 127.152344 358.097656 127.710938 358.683594 128.300781 C 359.273438 128.886719 359.828125 129.503906 360.359375 130.144531 C 360.886719 130.789062 361.378906 131.457031 361.84375 132.148438 C 362.304688 132.839844 362.730469 133.550781 363.125 134.285156 C 363.515625 135.019531 363.871094 135.769531 364.1875 136.539062 C 364.507812 137.304688 364.789062 138.089844 365.027344 138.882812 C 365.269531 139.679688 365.472656 140.484375 365.632812 141.300781 C 365.796875 142.117188 365.917969 142.9375 366 143.765625 C 366.082031 144.59375 366.121094 145.425781 366.121094 146.257812 L 366.121094 242.679688 C 366.121094 243.511719 366.082031 244.339844 366 245.167969 C 365.917969 245.996094 365.796875 246.816406 365.632812 247.632812 C 365.472656 248.449219 365.269531 249.253906 365.027344 250.050781 C 364.789062 250.847656 364.507812 251.628906 364.1875 252.398438 C 363.871094 253.167969 363.515625 253.917969 363.125 254.652344 C 362.730469 255.382812 362.304688 256.097656 361.84375 256.789062 C 361.378906 257.480469 360.886719 258.148438 360.359375 258.789062 C 359.828125 259.433594 359.273438 260.046875 358.683594 260.636719 C 358.097656 261.226562 357.480469 261.78125 356.835938 262.308594 C 356.195312 262.835938 355.527344 263.332031 354.835938 263.792969 C 354.144531 264.257812 353.433594 264.683594 352.699219 265.074219 C 351.964844 265.46875 351.214844 265.824219 350.445312 266.140625 C 349.675781 266.460938 348.894531 266.738281 348.097656 266.980469 C 347.304688 267.222656 346.496094 267.425781 345.679688 267.585938 C 344.867188 267.75 344.042969 267.871094 343.214844 267.953125 C 342.386719 268.035156 341.558594 268.074219 340.726562 268.074219 L 34.269531 268.074219 C 33.4375 268.074219 32.609375 268.035156 31.78125 267.953125 C 30.953125 267.871094 30.132812 267.75 29.316406 267.585938 C 28.5 267.425781 27.695312 267.222656 26.898438 266.980469 C 26.101562 266.738281 25.320312 266.460938 24.550781 266.140625 C 23.785156 265.824219 23.035156 265.46875 22.300781 265.074219 C 21.566406 264.683594 20.855469 264.257812 20.164062 263.792969 C 19.472656 263.332031 18.804688 262.839844 18.160156 262.308594 C 17.519531 261.78125 16.902344 261.226562 16.3125 260.636719 C 15.726562 260.046875 15.167969 259.433594 14.640625 258.789062 C 14.113281 258.148438 13.617188 257.480469 13.15625 256.789062 C 12.695312 256.097656 12.265625 255.382812 11.875 254.652344 C 11.484375 253.917969 11.128906 253.167969 10.808594 252.398438 C 10.492188 251.628906 10.210938 250.847656 9.96875 250.050781 C 9.726562 249.253906 9.527344 248.449219 9.363281 247.632812 C 9.203125 246.816406 9.078125 245.996094 9 245.167969 C 8.917969 244.339844 8.875 243.511719 8.875 242.679688 L 8.875 146.257812 C 8.875 145.425781 8.917969 144.59375 9 143.765625 C 9.078125 142.9375 9.203125 142.117188 9.363281 141.300781 C 9.527344 140.484375 9.726562 139.679688 9.96875 138.882812 C 10.210938 138.089844 10.492188 137.304688 10.808594 136.539062 C 11.128906 135.769531 11.484375 135.019531 11.875 134.285156 C 12.265625 133.550781 12.695312 132.839844 13.15625 132.148438 C 13.617188 131.457031 14.113281 130.789062 14.640625 130.144531 C 15.167969 129.503906 15.726562 128.886719 16.3125 128.300781 C 16.902344 127.710938 17.519531 127.152344 18.160156 126.625 C 18.804688 126.097656 19.472656 125.601562 20.164062 125.140625 C 20.855469 124.679688 21.566406 124.25 22.300781 123.859375 C 23.035156 123.46875 23.785156 123.113281 24.550781 122.792969 C 25.320312 122.476562 26.101562 122.195312 26.898438 121.953125 C 27.695312 121.714844 28.5 121.511719 29.316406 121.347656 C 30.132812 121.1875 30.953125 121.066406 31.78125 120.984375 C 32.609375 120.902344 33.4375 120.859375 34.269531 120.859375 Z M 34.269531 120.859375 " fill-opacity="1" fill-rule="nonzero"/></g><g transform="matrix(1, 0, 0, 1, 17, 134)"><g clip-path="url(#ea5ed40013)"><g fill="#ffffff" fill-opacity="1"><g transform="translate(0.751963, 91.637736)"><g><path d="M 27.484375 -8.84375 L 46.609375 -8.84375 C 46.609375 -7.425781 46.507812 -6.078125 46.3125 -4.796875 C 45.738281 -1.535156 43.53125 0.09375 39.6875 0.09375 L 14.609375 0.09375 C 12.816406 0.09375 11.375 -0.460938 10.28125 -1.578125 C 9.1875 -2.703125 8.640625 -4.257812 8.640625 -6.25 L 8.640625 -65.4375 L 9.328125 -66.015625 L 13.171875 -66.015625 C 15.273438 -66.015625 16.757812 -65.5 17.625 -64.46875 C 18.5 -63.445312 18.9375 -61.785156 18.9375 -59.484375 L 18.9375 -8.453125 C 21.5625 -8.710938 24.410156 -8.84375 27.484375 -8.84375 Z M 27.484375 -8.84375 "/></g></g></g><g fill="#ffffff" fill-opacity="1"><g transform="translate(45.051824, 91.637736)"><g><path d="M 18.734375 -39.203125 L 18.734375 0 C 17.515625 0.257812 15.863281 0.390625 13.78125 0.390625 C 11.707031 0.390625 10.0625 0.257812 8.84375 0 L 8.84375 -35.171875 C 8.84375 -36.960938 8.519531 -38.242188 7.875 -39.015625 C 7.238281 -39.785156 6.148438 -40.171875 4.609375 -40.171875 L 3.5625 -40.171875 C 3.238281 -41.578125 3.078125 -42.757812 3.078125 -43.71875 C 3.078125 -44.675781 3.238281 -45.894531 3.5625 -47.375 C 5.664062 -47.632812 7.679688 -47.765625 9.609375 -47.765625 L 10.953125 -47.765625 C 13.390625 -47.765625 15.296875 -46.992188 16.671875 -45.453125 C 18.046875 -43.910156 18.734375 -41.828125 18.734375 -39.203125 Z M 6.71875 -56.40625 C 6.144531 -57.5625 5.859375 -58.972656 5.859375 -60.640625 C 5.859375 -63.265625 6.335938 -64.816406 7.296875 -65.296875 C 8.265625 -65.773438 9.867188 -66.046875 12.109375 -66.109375 C 14.671875 -66.046875 16.300781 -65.722656 17 -65.140625 C 17.707031 -64.566406 18.09375 -63.066406 18.15625 -60.640625 C 18.09375 -58.328125 17.707031 -56.847656 17 -56.203125 C 16.300781 -55.566406 14.671875 -55.21875 12.109375 -55.15625 C 9.609375 -55.15625 7.8125 -55.570312 6.71875 -56.40625 Z M 6.71875 -56.40625 "/></g></g></g><g fill="#ffffff" fill-opacity="1"><g transform="translate(66.192561, 91.637736)"><g><path d="M 45.359375 -32.578125 L 45.359375 -10.1875 C 45.359375 -6.40625 45.898438 -3.488281 46.984375 -1.4375 C 45.316406 -0.03125 43.363281 0.671875 41.125 0.671875 C 38.945312 0.671875 37.457031 0.144531 36.65625 -0.90625 C 35.851562 -1.96875 35.453125 -3.554688 35.453125 -5.671875 L 35.453125 -30.078125 C 35.453125 -33.410156 35.019531 -35.78125 34.15625 -37.1875 C 33.289062 -38.59375 31.800781 -39.296875 29.6875 -39.296875 C 27.570312 -39.296875 25.410156 -38.765625 23.203125 -37.703125 C 20.992188 -36.648438 19.054688 -35.195312 17.390625 -33.34375 L 17.390625 0 C 16.304688 0.257812 14.671875 0.390625 12.484375 0.390625 C 11.460938 0.390625 10.535156 0.351562 9.703125 0.28125 C 8.867188 0.21875 8.132812 0.125 7.5 0 L 7.5 -47.28125 L 8.078125 -47.859375 L 11.8125 -47.859375 C 15.28125 -47.859375 17.109375 -45.867188 17.296875 -41.890625 C 21.972656 -46.179688 27.066406 -48.328125 32.578125 -48.328125 C 36.867188 -48.328125 40.070312 -46.898438 42.1875 -44.046875 C 44.300781 -41.203125 45.359375 -37.378906 45.359375 -32.578125 Z M 45.359375 -32.578125 "/></g></g></g><g fill="#ffffff" fill-opacity="1"><g transform="translate(113.759683, 91.637736)"><g><path d="M 35.75 -43.71875 C 37.15625 -45.957031 39.363281 -47.429688 42.375 -48.140625 C 43.144531 -47.628906 43.894531 -46.859375 44.625 -45.828125 C 45.363281 -44.804688 45.832031 -43.878906 46.03125 -43.046875 C 44.238281 -41.316406 43.34375 -38.273438 43.34375 -33.921875 L 43.34375 -5.484375 C 43.34375 -0.546875 42.941406 3.617188 42.140625 7.015625 C 41.335938 10.410156 40.101562 13.148438 38.4375 15.234375 C 36.769531 17.316406 34.65625 18.820312 32.09375 19.75 C 29.53125 20.675781 26.457031 21.140625 22.875 21.140625 C 17.164062 21.140625 11.625 20.082031 6.25 17.96875 C 6.3125 14.894531 7.175781 12.394531 8.84375 10.46875 C 12.875 12.457031 17.226562 13.453125 21.90625 13.453125 C 26.457031 13.453125 29.566406 12.28125 31.234375 9.9375 C 32.898438 7.601562 33.734375 4.320312 33.734375 0.09375 L 33.734375 -4.328125 C 29.953125 -0.867188 25.5 0.859375 20.375 0.859375 C 15.3125 0.859375 11.351562 -1.347656 8.5 -5.765625 C 5.65625 -10.179688 4.234375 -16.265625 4.234375 -24.015625 C 4.234375 -27.929688 4.710938 -31.410156 5.671875 -34.453125 C 6.628906 -37.492188 7.972656 -40.070312 9.703125 -42.1875 C 11.429688 -44.300781 13.398438 -45.914062 15.609375 -47.03125 C 17.828125 -48.15625 20.179688 -48.71875 22.671875 -48.71875 C 27.796875 -48.71875 32.15625 -47.050781 35.75 -43.71875 Z M 33.734375 -13.0625 L 33.734375 -36.421875 C 30.523438 -39.304688 27.382812 -40.75 24.3125 -40.75 C 21.238281 -40.75 18.800781 -39.304688 17 -36.421875 C 15.207031 -33.535156 14.3125 -29.273438 14.3125 -23.640625 C 14.3125 -18.066406 15.113281 -13.96875 16.71875 -11.34375 C 18.320312 -8.71875 20.40625 -7.40625 22.96875 -7.40625 C 26.9375 -7.40625 30.523438 -9.289062 33.734375 -13.0625 Z M 33.734375 -13.0625 "/></g></g></g><g fill="#ffffff" fill-opacity="1"><g transform="translate(159.597086, 91.637736)"><g><path d="M 22.671875 -8.078125 L 34.015625 -47.46875 C 35.234375 -47.726562 36.660156 -47.859375 38.296875 -47.859375 C 39.929688 -47.859375 41.421875 -47.597656 42.765625 -47.078125 L 43.046875 -46.703125 C 38.242188 -30.554688 33.3125 -14.988281 28.25 0 C 26.394531 0.320312 24.21875 0.484375 21.71875 0.484375 C 19.21875 0.484375 17.46875 0.128906 16.46875 -0.578125 C 15.476562 -1.285156 14.601562 -2.757812 13.84375 -5 L 0.578125 -46.703125 C 2.691406 -47.660156 4.582031 -48.140625 6.25 -48.140625 C 9.125 -48.140625 10.914062 -46.734375 11.625 -43.921875 L 18.0625 -22.78125 C 19.28125 -18.9375 20.53125 -14.289062 21.8125 -8.84375 C 21.9375 -8.332031 22.222656 -8.078125 22.671875 -8.078125 Z M 22.671875 -8.078125 "/></g></g></g><g fill="#ffffff" fill-opacity="1"><g transform="translate(198.419481, 91.637736)"><g><path d="M 41.21875 -15.953125 L 35.453125 -15.859375 L 22.296875 -15.859375 L 16.71875 -15.953125 L 11.625 0.09375 C 10.539062 0.351562 9.097656 0.484375 7.296875 0.484375 C 5.503906 0.484375 3.804688 0.257812 2.203125 -0.1875 L 1.921875 -0.671875 L 23.640625 -65.625 C 24.984375 -65.882812 26.9375 -66.015625 29.5 -66.015625 C 32.0625 -66.015625 33.984375 -65.882812 35.265625 -65.625 L 56.796875 -0.671875 C 55.441406 0.222656 53.707031 0.671875 51.59375 0.671875 C 49.488281 0.671875 47.984375 0.285156 47.078125 -0.484375 C 46.179688 -1.253906 45.414062 -2.660156 44.78125 -4.703125 Z M 19.3125 -24.21875 L 24.21875 -24.3125 L 33.828125 -24.3125 C 36.453125 -24.25 38.050781 -24.21875 38.625 -24.21875 L 34.203125 -38.15625 C 31.960938 -45.320312 30.265625 -51.117188 29.109375 -55.546875 L 28.640625 -55.546875 C 27.867188 -52.015625 26.617188 -47.367188 24.890625 -41.609375 Z M 19.3125 -24.21875 "/></g></g></g><g fill="#ffffff" fill-opacity="1"><g transform="translate(252.232861, 91.637736)"><g><path d="M 9.03125 0 L 9.03125 -65.625 C 10.3125 -65.882812 11.992188 -66.015625 14.078125 -66.015625 C 16.160156 -66.015625 17.875 -65.882812 19.21875 -65.625 L 19.21875 0 C 17.875 0.257812 16.160156 0.390625 14.078125 0.390625 C 11.992188 0.390625 10.3125 0.257812 9.03125 0 Z M 9.03125 0 "/></g></g></g></g></g><path fill="#dac0b7" d="M 347.554688 247.355469 L 336.636719 236.117188 C 335.398438 235.15625 334.984375 232.414062 336.433594 231.8125 L 349.488281 226.4375 C 350.9375 225.84375 352.53125 228.097656 352.324219 229.652344 L 352.484375 245.3125 L 347.554688 247.355469 " fill-opacity="1" fill-rule="nonzero"/><path stroke-linecap="round" transform="matrix(0.0521259, 0, 0, -0.0522018, 216.081142, 301.999492)" fill="none" stroke-linejoin="round" d="M 2522.229835 1046.785211 L 2312.77609 1262.070724 C 2289.020513 1280.47887 2281.077008 1333.009433 2308.879276 1344.533232 L 2559.324505 1447.499122 C 2587.126773 1458.873261 2617.701774 1415.696431 2613.730022 1385.914146 L 2616.802509 1085.921229 Z M 2522.229835 1046.785211 " stroke="#000000" stroke-width="40" stroke-opacity="1" stroke-miterlimit="10"/><path fill="#000000" d="M 352.472656 245.03125 L 352.5 248.65625 C 352.285156 250.183594 351.113281 250.664062 349.886719 249.730469 L 347.367188 247.152344 L 352.472656 245.03125 " fill-opacity="1" fill-rule="nonzero"/><g clip-path="url(#39177fc164)"><path stroke-linecap="round" transform="matrix(0.0521259, 0, 0, -0.0522018, 216.081142, 301.999492)" fill="none" stroke-linejoin="round" d="M 2616.577693 1091.308979 L 2617.102264 1021.866867 C 2612.980634 992.608391 2590.499016 983.404318 2566.968255 1001.288655 L 2518.632776 1050.676364 Z M 2616.577693 1091.308979 " stroke="#000000" stroke-width="40" stroke-opacity="1" stroke-miterlimit="10"/></g><path fill="#ef2e68" d="M 296.46875 140.105469 C 295.980469 138.925781 296.542969 137.574219 297.714844 137.089844 L 309.980469 132.003906 C 311.160156 131.515625 312.507812 132.078125 312.992188 133.257812 L 317.308594 143.691406 C 317.792969 144.871094 317.238281 146.222656 316.058594 146.714844 L 303.792969 151.792969 C 302.617188 152.28125 301.269531 151.722656 300.78125 150.542969 L 296.46875 140.105469 " fill-opacity="1" fill-rule="nonzero"/><g clip-path="url(#4c85fb8636)"><path fill="#000000" d="M 313.359375 136.867188 L 313.558594 137.347656 C 313.609375 137.476562 313.6875 137.589844 313.785156 137.6875 C 313.882812 137.785156 313.992188 137.859375 314.121094 137.914062 C 314.25 137.964844 314.382812 137.992188 314.519531 137.992188 C 314.660156 137.992188 314.792969 137.964844 314.917969 137.914062 C 315.046875 137.859375 315.160156 137.785156 315.257812 137.6875 C 315.355469 137.589844 315.429688 137.476562 315.484375 137.347656 C 315.535156 137.222656 315.5625 137.085938 315.5625 136.949219 C 315.5625 136.8125 315.535156 136.675781 315.484375 136.550781 L 315.285156 136.066406 C 315.230469 135.9375 315.15625 135.828125 315.058594 135.730469 C 314.960938 135.628906 314.847656 135.554688 314.71875 135.503906 C 314.59375 135.449219 314.460938 135.421875 314.320312 135.421875 C 314.183594 135.421875 314.050781 135.449219 313.921875 135.503906 C 313.792969 135.554688 313.683594 135.628906 313.582031 135.730469 C 313.484375 135.828125 313.410156 135.9375 313.359375 136.066406 C 313.304688 136.195312 313.277344 136.328125 313.277344 136.46875 C 313.277344 136.605469 313.304688 136.738281 313.359375 136.867188 Z M 314.554688 139.761719 L 316.347656 144.09375 C 316.480469 144.414062 316.480469 144.738281 316.34375 145.0625 C 316.210938 145.386719 315.980469 145.617188 315.660156 145.75 L 304.066406 150.550781 C 303.9375 150.605469 303.824219 150.679688 303.726562 150.777344 C 303.628906 150.875 303.554688 150.988281 303.5 151.117188 C 303.449219 151.246094 303.421875 151.378906 303.421875 151.515625 C 303.421875 151.652344 303.449219 151.789062 303.5 151.914062 C 303.554688 152.042969 303.628906 152.15625 303.726562 152.253906 C 303.824219 152.351562 303.9375 152.425781 304.066406 152.480469 C 304.191406 152.535156 304.324219 152.558594 304.464844 152.558594 C 304.601562 152.558594 304.734375 152.535156 304.863281 152.480469 L 316.460938 147.679688 C 317.3125 147.324219 317.917969 146.71875 318.269531 145.863281 C 318.625 145.007812 318.625 144.148438 318.273438 143.292969 L 316.480469 138.960938 C 316.429688 138.832031 316.351562 138.71875 316.253906 138.621094 C 316.15625 138.523438 316.042969 138.449219 315.917969 138.394531 C 315.789062 138.34375 315.65625 138.316406 315.519531 138.316406 C 315.378906 138.316406 315.246094 138.34375 315.117188 138.394531 C 314.992188 138.449219 314.878906 138.523438 314.78125 138.621094 C 314.683594 138.71875 314.609375 138.832031 314.554688 138.960938 C 314.5 139.089844 314.476562 139.222656 314.476562 139.359375 C 314.476562 139.5 314.5 139.632812 314.554688 139.761719 Z M 302.144531 150.664062 C 302.070312 150.609375 302 150.542969 301.941406 150.46875 C 301.851562 150.363281 301.746094 150.277344 301.625 150.210938 C 301.503906 150.148438 301.371094 150.109375 301.234375 150.097656 C 301.097656 150.085938 300.960938 150.097656 300.828125 150.140625 C 300.699219 150.179688 300.578125 150.246094 300.472656 150.332031 C 300.367188 150.421875 300.28125 150.527344 300.214844 150.652344 C 300.152344 150.773438 300.113281 150.902344 300.101562 151.042969 C 300.089844 151.179688 300.101562 151.3125 300.144531 151.445312 C 300.183594 151.578125 300.25 151.699219 300.339844 151.804688 C 300.5 152 300.683594 152.171875 300.882812 152.328125 C 300.996094 152.410156 301.117188 152.472656 301.25 152.507812 C 301.382812 152.542969 301.519531 152.550781 301.65625 152.53125 C 301.792969 152.511719 301.921875 152.46875 302.039062 152.398438 C 302.160156 152.328125 302.261719 152.238281 302.34375 152.128906 C 302.429688 152.019531 302.488281 151.894531 302.523438 151.761719 C 302.558594 151.628906 302.566406 151.492188 302.546875 151.355469 C 302.53125 151.21875 302.484375 151.089844 302.414062 150.96875 C 302.347656 150.851562 302.257812 150.75 302.144531 150.664062 Z M 301.011719 148.371094 L 297.433594 139.707031 C 297.296875 139.382812 297.296875 139.058594 297.433594 138.738281 C 297.566406 138.414062 297.792969 138.1875 298.113281 138.054688 L 310.378906 132.96875 C 310.703125 132.835938 311.023438 132.835938 311.347656 132.972656 C 311.671875 133.105469 311.898438 133.332031 312.03125 133.65625 L 312.160156 133.972656 C 312.214844 134.101562 312.289062 134.214844 312.386719 134.3125 C 312.484375 134.410156 312.597656 134.484375 312.726562 134.539062 C 312.851562 134.589844 312.984375 134.617188 313.125 134.617188 C 313.261719 134.617188 313.394531 134.589844 313.523438 134.539062 C 313.652344 134.484375 313.761719 134.410156 313.863281 134.3125 C 313.960938 134.214844 314.035156 134.101562 314.085938 133.972656 C 314.140625 133.84375 314.167969 133.710938 314.167969 133.574219 C 314.167969 133.433594 314.140625 133.300781 314.085938 133.171875 L 313.957031 132.859375 C 313.605469 132.003906 313 131.398438 312.144531 131.042969 C 311.292969 130.6875 310.4375 130.6875 309.582031 131.039062 L 297.316406 136.125 C 296.464844 136.476562 295.859375 137.082031 295.507812 137.9375 C 295.152344 138.792969 295.152344 139.652344 295.507812 140.503906 L 299.085938 149.171875 C 299.140625 149.300781 299.214844 149.410156 299.3125 149.511719 C 299.410156 149.609375 299.523438 149.683594 299.648438 149.734375 C 299.777344 149.789062 299.910156 149.816406 300.050781 149.816406 C 300.1875 149.816406 300.320312 149.789062 300.449219 149.738281 C 300.574219 149.683594 300.6875 149.609375 300.785156 149.511719 C 300.882812 149.414062 300.960938 149.300781 301.011719 149.171875 C 301.066406 149.042969 301.09375 148.910156 301.09375 148.773438 C 301.09375 148.632812 301.066406 148.5 301.011719 148.371094 Z M 301.011719 148.371094 " fill-opacity="1" fill-rule="nonzero"/></g><path fill="#ee8f42" d="M 336.058594 235.503906 C 336.042969 235.480469 335.949219 235.320312 335.941406 235.296875 L 304.539062 159.4375 C 304.054688 158.265625 304.613281 156.925781 305.78125 156.441406 L 317.945312 151.398438 C 319.113281 150.910156 320.453125 151.46875 320.9375 152.644531 L 352.269531 228.65625 C 352.28125 228.6875 352.328125 228.964844 352.332031 228.988281 L 349.777344 227.183594 L 349.214844 230.238281 L 345.824219 228.441406 L 344.875 231.976562 L 341.605469 229.898438 L 340.296875 233.808594 L 337.183594 231.78125 L 336.058594 235.503906 " fill-opacity="1" fill-rule="nonzero"/><path fill="#000000" d="M 345.46875 214.890625 L 345.667969 215.375 C 345.71875 215.503906 345.796875 215.617188 345.894531 215.714844 C 345.992188 215.8125 346.105469 215.886719 346.230469 215.941406 C 346.359375 215.992188 346.492188 216.019531 346.628906 216.019531 C 346.769531 216.019531 346.902344 215.992188 347.027344 215.941406 C 347.15625 215.886719 347.269531 215.8125 347.367188 215.714844 C 347.464844 215.617188 347.542969 215.503906 347.59375 215.375 C 347.648438 215.25 347.671875 215.117188 347.675781 214.976562 C 347.675781 214.839844 347.648438 214.707031 347.59375 214.578125 L 347.394531 214.09375 C 347.34375 213.96875 347.269531 213.855469 347.171875 213.757812 C 347.074219 213.660156 346.960938 213.582031 346.832031 213.53125 C 346.703125 213.476562 346.570312 213.449219 346.433594 213.449219 C 346.296875 213.449219 346.164062 213.476562 346.035156 213.527344 C 345.90625 213.582031 345.792969 213.65625 345.695312 213.753906 C 345.597656 213.851562 345.523438 213.964844 345.46875 214.09375 C 345.417969 214.222656 345.390625 214.355469 345.390625 214.492188 C 345.390625 214.628906 345.417969 214.765625 345.46875 214.890625 Z M 346.664062 217.789062 L 351.308594 229.054688 L 352.269531 228.65625 L 351.28125 228.984375 C 351.269531 228.953125 351.261719 228.921875 351.257812 228.902344 C 351.261719 228.914062 351.261719 228.933594 351.269531 228.957031 C 351.273438 228.988281 351.28125 229.039062 351.296875 229.109375 C 351.304688 229.152344 351.308594 229.183594 351.3125 229.195312 L 352.332031 228.988281 L 352.933594 228.136719 L 350.378906 226.332031 C 350.265625 226.25 350.144531 226.195312 350.007812 226.164062 C 349.875 226.136719 349.738281 226.132812 349.601562 226.15625 C 349.464844 226.179688 349.339844 226.226562 349.222656 226.300781 C 349.105469 226.375 349.007812 226.46875 348.925781 226.582031 C 348.839844 226.707031 348.78125 226.84375 348.753906 226.996094 L 348.191406 230.046875 L 349.214844 230.238281 L 349.703125 229.316406 L 346.308594 227.519531 C 346.1875 227.453125 346.058594 227.414062 345.917969 227.402344 C 345.78125 227.390625 345.648438 227.402344 345.515625 227.445312 C 345.382812 227.484375 345.265625 227.550781 345.15625 227.636719 C 345.050781 227.726562 344.964844 227.832031 344.902344 227.953125 C 344.863281 228.023438 344.835938 228.09375 344.816406 228.171875 L 343.867188 231.703125 L 344.875 231.976562 L 345.433594 231.09375 L 342.164062 229.015625 C 342.046875 228.941406 341.921875 228.894531 341.785156 228.871094 C 341.648438 228.847656 341.511719 228.847656 341.378906 228.878906 C 341.242188 228.910156 341.121094 228.964844 341.007812 229.042969 C 340.894531 229.125 340.800781 229.222656 340.726562 229.339844 C 340.679688 229.410156 340.644531 229.488281 340.617188 229.566406 L 339.308594 233.476562 L 340.296875 233.808594 L 340.867188 232.933594 L 337.753906 230.90625 C 337.636719 230.832031 337.511719 230.78125 337.375 230.757812 C 337.238281 230.730469 337.105469 230.734375 336.96875 230.761719 C 336.832031 230.789062 336.710938 230.84375 336.59375 230.921875 C 336.480469 231 336.386719 231.097656 336.3125 231.214844 C 336.257812 231.296875 336.214844 231.386719 336.1875 231.480469 L 335.0625 235.203125 L 336.058594 235.503906 L 336.953125 234.96875 C 336.933594 234.933594 336.914062 234.898438 336.898438 234.871094 C 336.886719 234.851562 336.875 234.835938 336.871094 234.824219 C 336.882812 234.851562 336.894531 234.878906 336.90625 234.910156 L 305.5 159.035156 C 305.371094 158.71875 305.371094 158.402344 305.503906 158.082031 C 305.632812 157.761719 305.859375 157.535156 306.179688 157.40625 L 318.34375 152.363281 C 318.660156 152.230469 318.980469 152.230469 319.296875 152.363281 C 319.617188 152.496094 319.839844 152.722656 319.972656 153.042969 L 344.277344 211.996094 C 344.328125 212.125 344.402344 212.238281 344.5 212.335938 C 344.597656 212.433594 344.710938 212.507812 344.839844 212.5625 C 344.964844 212.617188 345.101562 212.640625 345.238281 212.640625 C 345.375 212.644531 345.507812 212.617188 345.636719 212.5625 C 345.765625 212.511719 345.878906 212.433594 345.976562 212.335938 C 346.074219 212.238281 346.148438 212.128906 346.203125 212 C 346.253906 211.871094 346.28125 211.738281 346.28125 211.601562 C 346.28125 211.460938 346.253906 211.328125 346.203125 211.199219 L 321.902344 152.246094 C 321.550781 151.394531 320.949219 150.789062 320.097656 150.433594 C 319.246094 150.078125 318.398438 150.078125 317.546875 150.433594 L 305.378906 155.476562 C 304.53125 155.828125 303.929688 156.429688 303.578125 157.28125 C 303.222656 158.132812 303.222656 158.984375 303.574219 159.835938 L 334.972656 235.683594 C 335 235.753906 335.0625 235.871094 335.164062 236.042969 C 335.304688 236.273438 335.5 236.425781 335.757812 236.503906 C 335.890625 236.542969 336.023438 236.558594 336.160156 236.542969 C 336.300781 236.53125 336.429688 236.492188 336.550781 236.425781 C 336.671875 236.359375 336.777344 236.273438 336.867188 236.167969 C 336.953125 236.058594 337.015625 235.941406 337.058594 235.808594 L 338.183594 232.085938 L 337.183594 231.78125 L 336.617188 232.660156 L 339.730469 234.683594 C 339.804688 234.730469 339.882812 234.769531 339.964844 234.796875 C 340.097656 234.84375 340.230469 234.859375 340.371094 234.851562 C 340.507812 234.839844 340.636719 234.804688 340.761719 234.742188 C 340.886719 234.679688 340.992188 234.597656 341.082031 234.492188 C 341.175781 234.390625 341.242188 234.269531 341.285156 234.140625 L 342.59375 230.230469 L 341.605469 229.898438 L 341.046875 230.78125 L 344.316406 232.859375 C 344.40625 232.914062 344.5 232.957031 344.601562 232.984375 C 344.738281 233.019531 344.871094 233.027344 345.007812 233.011719 C 345.144531 232.992188 345.273438 232.949219 345.394531 232.878906 C 345.515625 232.8125 345.617188 232.722656 345.699219 232.613281 C 345.785156 232.503906 345.84375 232.378906 345.878906 232.246094 L 346.828125 228.714844 L 345.824219 228.441406 L 345.335938 229.363281 L 348.730469 231.160156 C 348.824219 231.210938 348.921875 231.246094 349.027344 231.265625 C 349.164062 231.289062 349.296875 231.289062 349.433594 231.257812 C 349.570312 231.230469 349.691406 231.175781 349.808594 231.097656 C 349.921875 231.019531 350.015625 230.921875 350.089844 230.804688 C 350.164062 230.691406 350.214844 230.5625 350.242188 230.425781 L 350.804688 227.375 L 349.777344 227.183594 L 349.175781 228.035156 L 351.730469 229.84375 C 351.976562 230.015625 352.246094 230.074219 352.539062 230.015625 C 352.671875 229.988281 352.796875 229.933594 352.914062 229.859375 C 353.027344 229.78125 353.125 229.683594 353.199219 229.570312 C 353.277344 229.453125 353.328125 229.328125 353.355469 229.191406 C 353.382812 229.058594 353.382812 228.921875 353.355469 228.785156 C 353.355469 228.773438 353.351562 228.761719 353.347656 228.746094 C 353.3125 228.53125 353.28125 228.390625 353.257812 228.324219 C 353.25 228.304688 353.242188 228.28125 353.234375 228.257812 L 348.589844 216.992188 C 348.535156 216.863281 348.460938 216.75 348.363281 216.652344 C 348.265625 216.554688 348.152344 216.476562 348.027344 216.425781 C 347.898438 216.371094 347.765625 216.34375 347.628906 216.34375 C 347.488281 216.34375 347.355469 216.371094 347.226562 216.421875 C 347.101562 216.476562 346.988281 216.550781 346.890625 216.648438 C 346.792969 216.746094 346.714844 216.859375 346.664062 216.988281 C 346.609375 217.117188 346.582031 217.25 346.582031 217.386719 C 346.582031 217.527344 346.609375 217.660156 346.664062 217.789062 Z M 346.664062 217.789062 " fill-opacity="1" fill-rule="nonzero"/><path fill="#918f8f" d="M 304.816406 160.292969 C 304.800781 160.261719 304.785156 160.230469 304.769531 160.195312 L 300.457031 149.757812 L 316.980469 142.910156 L 321.296875 153.351562 C 321.308594 153.382812 321.316406 153.417969 321.328125 153.449219 L 304.816406 160.292969 " fill-opacity="1" fill-rule="nonzero"/><path stroke-linecap="round" transform="matrix(0.0521259, 0, 0, -0.0522018, 216.081142, 301.999492)" fill="none" stroke-linejoin="round" d="M 1702.325213 2714.593175 C 1702.025458 2715.191814 1701.725703 2715.790453 1701.425948 2716.463921 L 1618.693592 2916.409313 L 1935.684411 3047.586061 L 2018.491706 2847.56584 C 2018.716522 2846.967201 2018.866399 2846.293732 2019.091215 2845.695093 Z M 1702.325213 2714.593175 " stroke="#000000" stroke-width="40" stroke-opacity="1" stroke-miterlimit="10"/><path fill="#000000" d="M 312.773438 166.019531 L 336.011719 222.742188 " fill-opacity="1" fill-rule="nonzero"/><path fill="#000000" d="M 312.773438 166.019531 C 312.773438 166.019531 312.882812 166.234375 313.09375 166.636719 C 313.289062 167.035156 313.605469 167.621094 313.96875 168.378906 C 314.707031 169.882812 315.757812 172.042969 316.960938 174.652344 C 317.566406 175.957031 318.222656 177.371094 318.882812 178.875 C 319.554688 180.386719 320.277344 181.964844 320.972656 183.617188 C 321.683594 185.269531 322.4375 186.960938 323.15625 188.707031 C 323.882812 190.449219 324.621094 192.214844 325.359375 193.984375 C 326.078125 195.757812 326.792969 197.539062 327.496094 199.289062 C 328.210938 201.035156 328.855469 202.773438 329.511719 204.445312 C 330.167969 206.117188 330.769531 207.75 331.34375 209.289062 C 331.925781 210.828125 332.453125 212.296875 332.9375 213.652344 C 333.910156 216.355469 334.679688 218.632812 335.210938 220.226562 C 335.734375 221.824219 336.011719 222.742188 336.011719 222.742188 C 336.011719 222.742188 335.570312 221.890625 334.824219 220.386719 C 334.078125 218.878906 333.03125 216.722656 331.828125 214.105469 C 331.222656 212.800781 330.570312 211.386719 329.902344 209.878906 C 329.230469 208.382812 328.515625 206.792969 327.8125 205.144531 C 327.109375 203.488281 326.347656 201.796875 325.628906 200.054688 C 324.90625 198.3125 324.167969 196.546875 323.433594 194.777344 C 322.714844 192.996094 322 191.222656 321.296875 189.472656 C 320.589844 187.726562 319.9375 185.988281 319.28125 184.316406 C 318.625 182.640625 318.023438 181.011719 317.449219 179.464844 C 316.867188 177.925781 316.339844 176.460938 315.855469 175.109375 C 314.878906 172.402344 314.113281 170.128906 313.582031 168.535156 C 313.316406 167.738281 313.125 167.105469 312.988281 166.675781 C 312.847656 166.242188 312.773438 166.019531 312.773438 166.019531 " fill-opacity="1" fill-rule="nonzero"/><path fill="#000000" d="M 318.960938 162.65625 L 342.199219 219.378906 " fill-opacity="1" fill-rule="nonzero"/><path fill="#000000" d="M 318.960938 162.65625 C 318.960938 162.65625 319.070312 162.871094 319.273438 163.273438 C 319.476562 163.675781 319.785156 164.261719 320.152344 165.015625 C 320.894531 166.519531 321.945312 168.679688 323.140625 171.292969 C 323.746094 172.597656 324.402344 174.011719 325.070312 175.519531 C 325.738281 177.023438 326.457031 178.605469 327.160156 180.253906 C 327.863281 181.910156 328.625 183.601562 329.34375 185.34375 C 330.070312 187.085938 330.804688 188.851562 331.546875 190.621094 C 332.257812 192.402344 332.972656 194.175781 333.675781 195.925781 C 334.390625 197.667969 335.039062 199.414062 335.695312 201.082031 C 336.351562 202.757812 336.957031 204.386719 337.53125 205.925781 C 338.113281 207.46875 338.640625 208.9375 339.125 210.292969 C 340.097656 212.996094 340.867188 215.273438 341.390625 216.863281 C 341.917969 218.460938 342.199219 219.378906 342.199219 219.378906 C 342.199219 219.378906 341.75 218.527344 341.007812 217.019531 C 340.265625 215.515625 339.21875 213.355469 338.015625 210.746094 C 337.410156 209.441406 336.753906 208.027344 336.089844 206.523438 C 335.417969 205.019531 334.703125 203.433594 333.996094 201.78125 C 333.292969 200.128906 332.53125 198.4375 331.816406 196.691406 C 331.089844 194.949219 330.351562 193.183594 329.617188 191.414062 C 328.902344 189.636719 328.1875 187.859375 327.484375 186.113281 C 326.769531 184.363281 326.125 182.625 325.46875 180.953125 C 324.8125 179.277344 324.210938 177.648438 323.632812 176.109375 C 323.046875 174.570312 322.527344 173.097656 322.042969 171.746094 C 321.066406 169.042969 320.296875 166.765625 319.769531 165.171875 C 319.5 164.375 319.3125 163.742188 319.171875 163.316406 C 319.035156 162.882812 318.960938 162.65625 318.960938 162.65625 " fill-opacity="1" fill-rule="nonzero"/><path fill="#ffffff" d="M 357.507812 153.71875 C 349.753906 154.363281 349.230469 154.890625 348.585938 162.65625 C 347.9375 154.890625 347.417969 154.363281 339.667969 153.71875 C 347.417969 153.074219 347.9375 152.550781 348.585938 144.785156 C 349.230469 152.550781 349.753906 153.074219 357.507812 153.71875 " fill-opacity="1" fill-rule="nonzero"/><g clip-path="url(#4f2d22af74)"><path stroke-linecap="round" transform="matrix(0.0521259, 0, 0, -0.0522018, 216.081142, 301.999492)" fill="none" stroke-linejoin="round" d="M 2713.173713 2840.531833 C 2564.420339 2828.184905 2554.378549 2818.082874 2542.013659 2669.321108 C 2529.57383 2818.082874 2519.606979 2828.184905 2370.928543 2840.531833 C 2519.606979 2852.87876 2529.57383 2862.905961 2542.013659 3011.667727 C 2554.378549 2862.905961 2564.420339 2852.87876 2713.173713 2840.531833 Z M 2713.173713 2840.531833 " stroke="#000000" stroke-width="38.945999" stroke-opacity="1" stroke-miterlimit="10"/></g><path fill="#ffffff" d="M 321.699219 219.386719 C 313.941406 220.027344 313.421875 220.550781 312.773438 228.316406 C 312.132812 220.550781 311.613281 220.027344 303.855469 219.386719 C 311.613281 218.738281 312.132812 218.214844 312.773438 210.449219 C 313.421875 218.214844 313.941406 218.738281 321.699219 219.386719 " fill-opacity="1" fill-rule="nonzero"/><path stroke-linecap="round" transform="matrix(0.0521259, 0, 0, -0.0522018, 216.081142, 301.999492)" fill="none" stroke-linejoin="round" d="M 2026.210395 1582.567023 C 1877.382081 1570.294925 1867.41523 1560.267724 1854.975401 1411.505958 C 1842.68545 1560.267724 1832.718599 1570.294925 1683.890285 1582.567023 C 1832.718599 1594.98878 1842.68545 1605.015981 1854.975401 1753.777747 C 1867.41523 1605.015981 1877.382081 1594.98878 2026.210395 1582.567023 Z M 2026.210395 1582.567023 " stroke="#000000" stroke-width="38.945999" stroke-opacity="1" stroke-miterlimit="10"/></svg>