<svg xmlns="http://www.w3.org/2000/svg" xmlns:xlink="http://www.w3.org/1999/xlink" width="500" zoomAndPan="magnify" viewBox="0 0 375 374.999991" height="500" preserveAspectRatio="xMidYMid meet" version="1.0"><defs><g/><clipPath id="f5dddfeb09"><path d="M 344 226 L 350 226 L 350 232.515625 L 344 232.515625 Z M 344 226 " clip-rule="nonzero"/></clipPath><clipPath id="d60840715d"><path d="M 306.214844 142.515625 L 324 142.515625 L 324 160 L 306.214844 160 Z M 306.214844 142.515625 " clip-rule="nonzero"/></clipPath><clipPath id="12d9a33caf"><path d="M 338 152 L 353.464844 152 L 353.464844 168 L 338 168 Z M 338 152 " clip-rule="nonzero"/></clipPath></defs><g fill="#8c52ff" fill-opacity="1"><g transform="translate(29.176691, 215.999986)"><g><path d="M 29.765625 -12.21875 L 45.40625 -12.21875 C 45.40625 -9.800781 45.253906 -7.734375 44.953125 -6.015625 C 44.648438 -4.296875 43.6875 -2.816406 42.0625 -1.578125 C 40.4375 -0.347656 38.296875 0.265625 35.640625 0.265625 L 15.203125 0.265625 C 12.609375 0.265625 10.554688 -0.484375 9.046875 -1.984375 C 7.535156 -3.492188 6.78125 -5.546875 6.78125 -8.140625 L 6.78125 -61.78125 L 7.421875 -62.40625 L 12.75 -62.40625 C 18.414062 -62.40625 21.25 -59.332031 21.25 -53.1875 L 21.25 -11.84375 C 23.90625 -12.09375 26.742188 -12.21875 29.765625 -12.21875 Z M 29.765625 -12.21875 "/></g></g></g><g fill="#8c52ff" fill-opacity="1"><g transform="translate(71.781714, 215.999986)"><g><path d="M 21.703125 -34.734375 L 21.703125 0 C 20.679688 0.175781 19.566406 0.3125 18.359375 0.40625 C 17.148438 0.5 15.914062 0.546875 14.65625 0.546875 C 13.382812 0.546875 12.128906 0.5 10.890625 0.40625 C 9.660156 0.3125 8.53125 0.175781 7.5 0 L 7.5 -29.9375 C 7.5 -33.4375 6.082031 -35.1875 3.25 -35.1875 L 1.90625 -35.1875 C 1.539062 -36.332031 1.359375 -37.929688 1.359375 -39.984375 C 1.359375 -41.972656 1.539062 -43.660156 1.90625 -45.046875 C 3.46875 -45.171875 4.910156 -45.273438 6.234375 -45.359375 C 7.566406 -45.453125 8.773438 -45.5 9.859375 -45.5 L 11.84375 -45.5 C 14.925781 -45.5 17.335938 -44.53125 19.078125 -42.59375 C 20.828125 -40.664062 21.703125 -38.046875 21.703125 -34.734375 Z M 5.875 -63.3125 C 7.625 -64.28125 9.882812 -64.765625 12.65625 -64.765625 C 15.5 -64.765625 17.703125 -64.28125 19.265625 -63.3125 C 19.992188 -61.6875 20.359375 -59.941406 20.359375 -58.078125 C 20.359375 -56.203125 19.992188 -54.453125 19.265625 -52.828125 C 17.515625 -51.921875 15.222656 -51.46875 12.390625 -51.46875 C 9.554688 -51.46875 7.382812 -51.921875 5.875 -52.828125 C 5.15625 -54.453125 4.796875 -56.203125 4.796875 -58.078125 C 4.796875 -59.941406 5.15625 -61.6875 5.875 -63.3125 Z M 5.875 -63.3125 "/></g></g></g><g fill="#8c52ff" fill-opacity="1"><g transform="translate(94.124379, 215.999986)"><g><path d="M 44.328125 -29.84375 L 44.328125 -11.3125 C 44.328125 -7.332031 45.050781 -4.347656 46.5 -2.359375 C 44.207031 -0.304688 41.460938 0.71875 38.265625 0.71875 C 35.128906 0.71875 32.988281 -0.00390625 31.84375 -1.453125 C 30.695312 -2.898438 30.125 -5.097656 30.125 -8.046875 L 30.125 -27.3125 C 30.125 -29.363281 29.851562 -30.867188 29.3125 -31.828125 C 28.769531 -32.796875 27.710938 -33.28125 26.140625 -33.28125 C 25.234375 -33.28125 24.207031 -33.039062 23.0625 -32.5625 C 21.914062 -32.082031 20.738281 -31.300781 19.53125 -30.21875 L 19.53125 0 C 18.507812 0.175781 17.394531 0.3125 16.1875 0.40625 C 14.976562 0.5 13.742188 0.546875 12.484375 0.546875 C 11.210938 0.546875 9.972656 0.5 8.765625 0.40625 C 7.566406 0.3125 6.453125 0.175781 5.421875 0 L 5.421875 -45.140625 L 6.0625 -45.765625 L 11.390625 -45.765625 C 15.078125 -45.765625 17.550781 -43.957031 18.8125 -40.34375 C 23.03125 -44.082031 27.222656 -45.953125 31.390625 -45.953125 C 35.609375 -45.953125 38.816406 -44.488281 41.015625 -41.5625 C 43.222656 -38.632812 44.328125 -34.726562 44.328125 -29.84375 Z M 44.328125 -29.84375 "/></g></g></g><g fill="#8c52ff" fill-opacity="1"><g transform="translate(138.990824, 215.999986)"><g><path d="M 32.921875 -42.234375 C 34.972656 -44.523438 37.804688 -45.734375 41.421875 -45.859375 C 42.390625 -45.140625 43.3125 -44.054688 44.1875 -42.609375 C 45.0625 -41.160156 45.585938 -39.832031 45.765625 -38.625 C 44.078125 -37.476562 43.234375 -35.304688 43.234375 -32.109375 L 43.234375 -8.234375 C 43.234375 -2.679688 42.796875 1.914062 41.921875 5.5625 C 41.046875 9.207031 39.71875 12.097656 37.9375 14.234375 C 36.164062 16.378906 33.921875 17.875 31.203125 18.71875 C 28.492188 19.5625 25.300781 19.984375 21.625 19.984375 C 15.40625 19.984375 9.734375 18.988281 4.609375 17 C 4.609375 15.3125 4.941406 13.472656 5.609375 11.484375 C 6.273438 9.492188 7.085938 7.925781 8.046875 6.78125 C 12.085938 8.59375 16.191406 9.5 20.359375 9.5 C 26.441406 9.5 29.484375 6.453125 29.484375 0.359375 L 29.484375 -2.625 C 26.234375 -0.269531 22.796875 0.90625 19.171875 0.90625 C 13.804688 0.90625 9.75 -1.21875 7 -5.46875 C 4.257812 -9.71875 2.890625 -15.492188 2.890625 -22.796875 C 2.890625 -26.472656 3.359375 -29.769531 4.296875 -32.6875 C 5.234375 -35.613281 6.515625 -38.101562 8.140625 -40.15625 C 9.765625 -42.207031 11.644531 -43.773438 13.78125 -44.859375 C 15.925781 -45.953125 18.207031 -46.5 20.625 -46.5 C 25.507812 -46.5 29.609375 -45.078125 32.921875 -42.234375 Z M 29.484375 -13.5625 L 29.484375 -32.921875 C 27.378906 -34.972656 25.390625 -36 23.515625 -36 C 19.410156 -36 17.359375 -31.476562 17.359375 -22.4375 C 17.359375 -14.476562 19.140625 -10.5 22.703125 -10.5 C 25.171875 -10.5 27.429688 -11.519531 29.484375 -13.5625 Z M 29.484375 -13.5625 "/></g></g></g><g fill="#8c52ff" fill-opacity="1"><g transform="translate(182.862239, 215.999986)"><g><path d="M 22.515625 -10.765625 L 30.390625 -45.046875 C 32.078125 -45.410156 33.976562 -45.59375 36.09375 -45.59375 C 38.6875 -45.59375 40.945312 -45.226562 42.875 -44.5 L 43.328125 -43.875 C 37.171875 -21.4375 32.976562 -6.8125 30.75 0 C 27.675781 0.363281 24.4375 0.546875 21.03125 0.546875 C 17.625 0.546875 15.195312 0.078125 13.75 -0.859375 C 12.300781 -1.796875 11.1875 -3.585938 10.40625 -6.234375 L -0.453125 -44.046875 C 2.503906 -45.316406 5.128906 -45.953125 7.421875 -45.953125 C 9.710938 -45.953125 11.488281 -45.453125 12.75 -44.453125 C 14.019531 -43.460938 14.957031 -41.757812 15.5625 -39.34375 L 19.625 -22.4375 C 19.925781 -21.289062 20.59375 -17.640625 21.625 -11.484375 C 21.675781 -11.003906 21.972656 -10.765625 22.515625 -10.765625 Z M 22.515625 -10.765625 "/></g></g></g><g fill="#8c52ff" fill-opacity="1"><g transform="translate(221.668065, 215.999986)"><g><path d="M 21.890625 -12.9375 C 20.265625 -12.9375 19.054688 -12.96875 18.265625 -13.03125 L 14.375 0.09375 C 12.9375 0.457031 10.921875 0.640625 8.328125 0.640625 C 5.429688 0.640625 3.078125 0.304688 1.265625 -0.359375 L 0.8125 -1.078125 L 20.71875 -61.78125 C 23.0625 -62.144531 25.800781 -62.328125 28.9375 -62.328125 C 32.5 -62.328125 35.335938 -62.113281 37.453125 -61.6875 L 56.984375 -0.90625 C 54.867188 0.238281 52.488281 0.8125 49.84375 0.8125 C 46.707031 0.8125 44.503906 0.269531 43.234375 -0.8125 C 41.972656 -1.894531 40.890625 -3.976562 39.984375 -7.0625 L 38.265625 -13.03125 C 37.472656 -12.96875 36.296875 -12.9375 34.734375 -12.9375 Z M 21.625 -24.328125 L 25.234375 -24.421875 L 31.84375 -24.421875 C 32.144531 -24.421875 32.671875 -24.40625 33.421875 -24.375 C 34.171875 -24.34375 34.726562 -24.328125 35.09375 -24.328125 L 33.5625 -29.9375 C 32.113281 -35 30.453125 -41.210938 28.578125 -48.578125 L 28.046875 -48.578125 C 27.554688 -45.984375 26.109375 -40.222656 23.703125 -31.296875 Z M 21.625 -24.328125 "/></g></g></g><g fill="#8c52ff" fill-opacity="1"><g transform="translate(274.766107, 215.999986)"><g><path d="M 7.0625 0 L 7.0625 -61.78125 C 8.925781 -62.144531 11.332031 -62.328125 14.28125 -62.328125 C 17.238281 -62.328125 19.6875 -62.144531 21.625 -61.78125 L 21.625 0 C 19.6875 0.363281 17.238281 0.546875 14.28125 0.546875 C 11.332031 0.546875 8.925781 0.363281 7.0625 0 Z M 7.0625 0 "/></g></g></g><path fill="#dac0b7" d="M 345.320312 229.324219 L 337.230469 221 C 336.3125 220.289062 336.007812 218.257812 337.082031 217.8125 L 346.753906 213.828125 C 347.828125 213.390625 349.011719 215.058594 348.855469 216.210938 L 348.976562 227.8125 L 345.320312 229.324219 " fill-opacity="1" fill-rule="nonzero"/><path stroke-linecap="round" transform="matrix(0.0386345, 0, 0, -0.0386688, 247.877887, 269.802755)" fill="none" stroke-linejoin="round" d="M 2522.160642 1046.801708 L 2312.766372 1262.071507 C 2289.006037 1280.456821 2281.119628 1332.986289 2308.924275 1344.502364 L 2559.267208 1447.540936 C 2587.071855 1458.854975 2617.707521 1415.7202 2613.663209 1385.919829 L 2616.797551 1085.895754 Z M 2522.160642 1046.801708 " stroke="#000000" stroke-width="40" stroke-opacity="1" stroke-miterlimit="10"/><path fill="#000000" d="M 348.96875 227.605469 L 348.988281 230.289062 C 348.828125 231.421875 347.960938 231.777344 347.050781 231.082031 L 345.183594 229.171875 L 348.96875 227.605469 " fill-opacity="1" fill-rule="nonzero"/><g clip-path="url(#f5dddfeb09)"><path stroke-linecap="round" transform="matrix(0.0386345, 0, 0, -0.0386688, 247.877887, 269.802755)" fill="none" stroke-linejoin="round" d="M 2616.595335 1091.249719 L 2617.100874 1021.85021 C 2612.955454 992.655949 2590.509521 983.362274 2566.951401 1001.343514 L 2518.621869 1050.741418 Z M 2616.595335 1091.249719 " stroke="#000000" stroke-width="40" stroke-opacity="1" stroke-miterlimit="10"/></g><path fill="#ef2e68" d="M 307.460938 149.878906 C 307.097656 149.003906 307.515625 148.003906 308.382812 147.644531 L 317.472656 143.878906 C 318.347656 143.515625 319.347656 143.929688 319.707031 144.804688 L 322.90625 152.535156 C 323.265625 153.410156 322.851562 154.410156 321.980469 154.773438 L 312.886719 158.539062 C 312.015625 158.898438 311.019531 158.484375 310.65625 157.609375 L 307.460938 149.878906 " fill-opacity="1" fill-rule="nonzero"/><g clip-path="url(#d60840715d)"><path fill="#000000" d="M 319.976562 147.480469 L 320.125 147.835938 C 320.207031 148.035156 320.347656 148.171875 320.542969 148.253906 C 320.742188 148.335938 320.9375 148.335938 321.132812 148.253906 C 321.332031 148.171875 321.472656 148.035156 321.554688 147.835938 C 321.632812 147.640625 321.632812 147.441406 321.554688 147.246094 L 321.40625 146.886719 C 321.324219 146.691406 321.183594 146.550781 320.988281 146.46875 C 320.789062 146.386719 320.59375 146.386719 320.394531 146.46875 C 320.199219 146.550781 320.058594 146.691406 319.976562 146.886719 C 319.894531 147.085938 319.894531 147.28125 319.976562 147.480469 Z M 320.863281 149.621094 L 322.191406 152.832031 C 322.289062 153.070312 322.289062 153.3125 322.191406 153.550781 C 322.089844 153.789062 321.921875 153.960938 321.683594 154.0625 L 313.089844 157.617188 C 312.894531 157.699219 312.753906 157.835938 312.671875 158.035156 C 312.589844 158.230469 312.589844 158.429688 312.671875 158.628906 C 312.753906 158.824219 312.890625 158.964844 313.089844 159.046875 C 313.285156 159.128906 313.484375 159.128906 313.679688 159.046875 L 322.277344 155.488281 C 322.910156 155.226562 323.355469 154.777344 323.617188 154.144531 C 323.878906 153.507812 323.882812 152.875 323.621094 152.238281 L 322.292969 149.03125 C 322.210938 148.832031 322.070312 148.695312 321.875 148.613281 C 321.675781 148.53125 321.480469 148.53125 321.28125 148.613281 C 321.085938 148.695312 320.945312 148.832031 320.863281 149.03125 C 320.78125 149.226562 320.78125 149.425781 320.863281 149.621094 Z M 311.667969 157.699219 C 311.609375 157.65625 311.558594 157.609375 311.515625 157.554688 C 311.378906 157.390625 311.203125 157.300781 310.992188 157.28125 C 310.777344 157.261719 310.589844 157.320312 310.425781 157.457031 C 310.261719 157.59375 310.171875 157.765625 310.152344 157.980469 C 310.132812 158.191406 310.191406 158.378906 310.328125 158.542969 C 310.445312 158.6875 310.582031 158.820312 310.730469 158.933594 C 310.902344 159.0625 311.09375 159.113281 311.304688 159.082031 C 311.515625 159.054688 311.6875 158.953125 311.816406 158.785156 C 311.945312 158.613281 311.992188 158.425781 311.964844 158.210938 C 311.9375 158 311.835938 157.832031 311.667969 157.699219 Z M 310.828125 156.003906 L 308.175781 149.582031 C 308.074219 149.34375 308.074219 149.105469 308.171875 148.863281 C 308.273438 148.625 308.441406 148.457031 308.679688 148.359375 L 317.769531 144.59375 C 318.007812 144.492188 318.246094 144.496094 318.488281 144.59375 C 318.726562 144.691406 318.894531 144.863281 318.992188 145.101562 L 319.089844 145.335938 C 319.171875 145.53125 319.3125 145.671875 319.507812 145.753906 C 319.707031 145.835938 319.902344 145.835938 320.101562 145.753906 C 320.296875 145.671875 320.4375 145.53125 320.519531 145.335938 C 320.597656 145.136719 320.597656 144.941406 320.519531 144.742188 L 320.421875 144.511719 C 320.160156 143.875 319.714844 143.429688 319.078125 143.164062 C 318.445312 142.902344 317.8125 142.902344 317.179688 143.164062 L 308.089844 146.929688 C 307.457031 147.191406 307.007812 147.640625 306.746094 148.273438 C 306.484375 148.90625 306.484375 149.542969 306.746094 150.175781 L 309.398438 156.59375 C 309.480469 156.792969 309.621094 156.929688 309.816406 157.011719 C 310.015625 157.09375 310.210938 157.09375 310.410156 157.011719 C 310.605469 156.929688 310.746094 156.792969 310.828125 156.59375 C 310.910156 156.398438 310.910156 156.199219 310.828125 156.003906 Z M 310.828125 156.003906 " fill-opacity="1" fill-rule="nonzero"/></g><path fill="#ee8f42" d="M 336.804688 220.546875 C 336.792969 220.527344 336.722656 220.410156 336.714844 220.390625 L 313.441406 164.199219 C 313.082031 163.332031 313.496094 162.339844 314.359375 161.980469 L 323.378906 158.242188 C 324.242188 157.882812 325.234375 158.296875 325.59375 159.167969 L 348.816406 215.472656 C 348.824219 215.496094 348.859375 215.703125 348.863281 215.71875 L 346.972656 214.382812 L 346.554688 216.644531 L 344.039062 215.316406 L 343.335938 217.933594 L 340.914062 216.394531 L 339.945312 219.289062 L 337.636719 217.789062 L 336.804688 220.546875 " fill-opacity="1" fill-rule="nonzero"/><path fill="#000000" d="M 343.777344 205.277344 L 343.925781 205.636719 C 344.007812 205.832031 344.144531 205.972656 344.34375 206.054688 C 344.539062 206.136719 344.738281 206.136719 344.933594 206.054688 C 345.128906 205.972656 345.269531 205.832031 345.351562 205.636719 C 345.433594 205.4375 345.433594 205.242188 345.351562 205.042969 L 345.207031 204.6875 C 345.125 204.488281 344.984375 204.351562 344.789062 204.269531 C 344.589844 204.1875 344.394531 204.1875 344.195312 204.265625 C 344 204.347656 343.859375 204.488281 343.777344 204.683594 C 343.695312 204.882812 343.695312 205.078125 343.777344 205.277344 Z M 344.660156 207.421875 L 348.105469 215.769531 L 348.816406 215.472656 L 348.085938 215.71875 C 348.078125 215.691406 348.070312 215.671875 348.066406 215.65625 C 348.070312 215.664062 348.070312 215.675781 348.074219 215.695312 C 348.078125 215.71875 348.085938 215.757812 348.09375 215.808594 C 348.101562 215.84375 348.105469 215.863281 348.105469 215.871094 L 348.863281 215.71875 L 349.308594 215.089844 L 347.417969 213.75 C 347.242188 213.628906 347.050781 213.585938 346.839844 213.621094 C 346.628906 213.65625 346.464844 213.761719 346.339844 213.9375 C 346.273438 214.027344 346.230469 214.132812 346.210938 214.242188 L 345.792969 216.503906 L 346.554688 216.644531 L 346.914062 215.960938 L 344.398438 214.628906 C 344.210938 214.53125 344.015625 214.511719 343.8125 214.574219 C 343.609375 214.636719 343.457031 214.765625 343.355469 214.953125 C 343.328125 215.003906 343.308594 215.058594 343.292969 215.113281 L 342.589844 217.730469 L 343.335938 217.933594 L 343.75 217.28125 L 341.328125 215.742188 C 341.148438 215.625 340.953125 215.59375 340.746094 215.640625 C 340.535156 215.683594 340.375 215.796875 340.261719 215.980469 C 340.226562 216.03125 340.199219 216.089844 340.179688 216.148438 L 339.210938 219.042969 L 339.945312 219.289062 L 340.363281 218.640625 L 338.058594 217.140625 C 337.878906 217.023438 337.6875 216.988281 337.476562 217.03125 C 337.269531 217.078125 337.105469 217.1875 336.988281 217.367188 C 336.949219 217.429688 336.917969 217.496094 336.898438 217.566406 L 336.0625 220.320312 L 336.804688 220.546875 L 337.464844 220.148438 C 337.449219 220.121094 337.4375 220.097656 337.421875 220.078125 C 337.414062 220.0625 337.40625 220.050781 337.402344 220.042969 C 337.414062 220.0625 337.421875 220.082031 337.429688 220.105469 L 314.15625 163.902344 C 314.058594 163.667969 314.058594 163.429688 314.15625 163.195312 C 314.253906 162.957031 314.421875 162.792969 314.65625 162.691406 L 323.671875 158.957031 C 323.910156 158.859375 324.144531 158.859375 324.378906 158.957031 C 324.617188 159.058594 324.78125 159.226562 324.882812 159.464844 L 342.890625 203.132812 C 342.972656 203.332031 343.113281 203.46875 343.308594 203.550781 C 343.507812 203.632812 343.703125 203.632812 343.902344 203.550781 C 344.097656 203.472656 344.238281 203.332031 344.320312 203.132812 C 344.402344 202.9375 344.402344 202.738281 344.320312 202.542969 L 326.308594 158.871094 C 326.046875 158.238281 325.601562 157.792969 324.972656 157.53125 C 324.34375 157.265625 323.710938 157.265625 323.082031 157.527344 L 314.0625 161.265625 C 313.433594 161.527344 312.988281 161.972656 312.726562 162.601562 C 312.464844 163.234375 312.464844 163.863281 312.726562 164.496094 L 335.996094 220.679688 C 336.015625 220.730469 336.066406 220.820312 336.140625 220.945312 C 336.242188 221.113281 336.390625 221.230469 336.578125 221.285156 C 336.78125 221.347656 336.980469 221.328125 337.167969 221.226562 C 337.355469 221.128906 337.480469 220.976562 337.542969 220.769531 L 338.375 218.011719 L 337.636719 217.789062 L 337.214844 218.4375 L 339.523438 219.9375 C 339.578125 219.972656 339.636719 220.003906 339.699219 220.023438 C 339.902344 220.089844 340.097656 220.078125 340.289062 219.980469 C 340.480469 219.886719 340.609375 219.738281 340.675781 219.535156 L 341.644531 216.640625 L 340.914062 216.394531 L 340.5 217.046875 L 342.921875 218.585938 C 342.988281 218.628906 343.058594 218.660156 343.136719 218.679688 C 343.339844 218.734375 343.535156 218.710938 343.722656 218.601562 C 343.90625 218.496094 344.027344 218.339844 344.082031 218.132812 L 344.785156 215.515625 L 344.039062 215.316406 L 343.679688 216 L 346.191406 217.328125 C 346.261719 217.367188 346.335938 217.390625 346.414062 217.40625 C 346.625 217.445312 346.816406 217.402344 346.992188 217.28125 C 347.167969 217.160156 347.273438 216.996094 347.3125 216.785156 L 347.730469 214.523438 L 346.972656 214.382812 L 346.527344 215.015625 L 348.417969 216.351562 C 348.601562 216.480469 348.796875 216.523438 349.015625 216.480469 C 349.226562 216.4375 349.390625 216.328125 349.507812 216.148438 C 349.625 215.972656 349.664062 215.777344 349.621094 215.570312 C 349.621094 215.5625 349.621094 215.550781 349.617188 215.539062 C 349.589844 215.378906 349.566406 215.277344 349.550781 215.230469 C 349.546875 215.210938 349.539062 215.195312 349.53125 215.179688 L 346.089844 206.832031 C 346.007812 206.632812 345.871094 206.496094 345.671875 206.414062 C 345.476562 206.332031 345.277344 206.332031 345.082031 206.410156 C 344.882812 206.492188 344.746094 206.632812 344.664062 206.828125 C 344.582031 207.027344 344.582031 207.222656 344.660156 207.421875 Z M 344.660156 207.421875 " fill-opacity="1" fill-rule="nonzero"/><path fill="#918f8f" d="M 313.644531 164.832031 C 313.632812 164.808594 313.621094 164.785156 313.609375 164.757812 L 310.414062 157.027344 L 322.664062 151.957031 L 325.863281 159.691406 C 325.871094 159.710938 325.878906 159.738281 325.886719 159.761719 L 313.644531 164.832031 " fill-opacity="1" fill-rule="nonzero"/><path stroke-linecap="round" transform="matrix(0.0386345, 0, 0, -0.0386688, 247.877887, 269.802755)" fill="none" stroke-linejoin="round" d="M 1702.277427 2714.612309 C 1701.974104 2715.218418 1701.67078 2715.824527 1701.367457 2716.531654 L 1618.66127 2916.446687 L 1935.735356 3047.568319 L 2018.54265 2847.552269 C 2018.744866 2847.047178 2018.947082 2846.340051 2019.149297 2845.733942 Z M 1702.277427 2714.612309 " stroke="#000000" stroke-width="40" stroke-opacity="1" stroke-miterlimit="10"/><path fill="#000000" d="M 319.542969 169.074219 L 336.769531 211.09375 " fill-opacity="1" fill-rule="nonzero"/><path fill="#000000" d="M 319.542969 169.074219 C 319.542969 169.074219 319.625 169.234375 319.78125 169.53125 C 319.925781 169.828125 320.160156 170.261719 320.429688 170.824219 C 320.976562 171.9375 321.753906 173.535156 322.648438 175.46875 C 323.09375 176.4375 323.582031 177.484375 324.074219 178.597656 C 324.570312 179.714844 325.105469 180.886719 325.621094 182.109375 C 326.148438 183.335938 326.707031 184.589844 327.242188 185.878906 C 327.777344 187.171875 328.328125 188.476562 328.871094 189.789062 C 329.40625 191.105469 329.933594 192.421875 330.457031 193.71875 C 330.984375 195.011719 331.464844 196.300781 331.949219 197.539062 C 332.4375 198.777344 332.882812 199.984375 333.304688 201.128906 C 333.738281 202.269531 334.128906 203.355469 334.488281 204.359375 C 335.210938 206.363281 335.777344 208.046875 336.171875 209.226562 C 336.5625 210.410156 336.769531 211.09375 336.769531 211.09375 C 336.769531 211.09375 336.441406 210.460938 335.886719 209.347656 C 335.335938 208.230469 334.558594 206.632812 333.664062 204.695312 C 333.21875 203.730469 332.734375 202.679688 332.238281 201.5625 C 331.742188 200.453125 331.210938 199.277344 330.691406 198.058594 C 330.167969 196.832031 329.605469 195.578125 329.070312 194.285156 C 328.535156 192.996094 327.992188 191.6875 327.445312 190.378906 C 326.914062 189.058594 326.382812 187.742188 325.863281 186.449219 C 325.335938 185.152344 324.851562 183.867188 324.367188 182.628906 C 323.878906 181.386719 323.433594 180.179688 323.011719 179.035156 C 322.578125 177.894531 322.1875 176.808594 321.828125 175.808594 C 321.105469 173.804688 320.539062 172.117188 320.144531 170.9375 C 319.945312 170.347656 319.804688 169.878906 319.703125 169.5625 C 319.597656 169.242188 319.542969 169.074219 319.542969 169.074219 " fill-opacity="1" fill-rule="nonzero"/><path fill="#000000" d="M 324.128906 166.585938 L 341.355469 208.601562 " fill-opacity="1" fill-rule="nonzero"/><path fill="#000000" d="M 324.128906 166.585938 C 324.128906 166.585938 324.210938 166.742188 324.363281 167.039062 C 324.511719 167.339844 324.742188 167.769531 325.011719 168.332031 C 325.5625 169.445312 326.339844 171.046875 327.230469 172.980469 C 327.675781 173.945312 328.164062 174.996094 328.660156 176.113281 C 329.152344 177.226562 329.6875 178.398438 330.207031 179.621094 C 330.730469 180.84375 331.292969 182.097656 331.828125 183.390625 C 332.363281 184.679688 332.910156 185.988281 333.457031 187.300781 C 333.988281 188.617188 334.515625 189.933594 335.039062 191.226562 C 335.566406 192.519531 336.046875 193.8125 336.53125 195.046875 C 337.019531 196.289062 337.46875 197.496094 337.890625 198.636719 C 338.324219 199.777344 338.714844 200.867188 339.074219 201.871094 C 339.796875 203.871094 340.363281 205.558594 340.753906 206.738281 C 341.144531 207.921875 341.355469 208.601562 341.355469 208.601562 C 341.355469 208.601562 341.023438 207.972656 340.46875 206.855469 C 339.921875 205.738281 339.144531 204.140625 338.25 202.207031 C 337.804688 201.238281 337.316406 200.191406 336.824219 199.078125 C 336.328125 197.964844 335.796875 196.789062 335.273438 195.566406 C 334.75 194.339844 334.1875 193.085938 333.65625 191.796875 C 333.121094 190.503906 332.574219 189.199219 332.027344 187.886719 C 331.5 186.566406 330.96875 185.253906 330.449219 183.957031 C 329.917969 182.664062 329.4375 181.375 328.953125 180.136719 C 328.464844 178.894531 328.019531 177.691406 327.59375 176.550781 C 327.160156 175.410156 326.773438 174.316406 326.414062 173.316406 C 325.691406 171.3125 325.121094 169.628906 324.730469 168.449219 C 324.527344 167.855469 324.390625 167.386719 324.285156 167.070312 C 324.183594 166.75 324.128906 166.585938 324.128906 166.585938 " fill-opacity="1" fill-rule="nonzero"/><path fill="#ffffff" d="M 352.699219 159.964844 C 346.953125 160.441406 346.566406 160.832031 346.085938 166.585938 C 345.609375 160.832031 345.222656 160.441406 339.476562 159.964844 C 345.222656 159.484375 345.609375 159.097656 346.085938 153.34375 C 346.566406 159.097656 346.953125 159.484375 352.699219 159.964844 " fill-opacity="1" fill-rule="nonzero"/><g clip-path="url(#12d9a33caf)"><path stroke-linecap="round" transform="matrix(0.0386345, 0, 0, -0.0386688, 247.877887, 269.802755)" fill="none" stroke-linejoin="round" d="M 2713.153292 2840.480995 C 2564.423706 2828.156773 2554.414033 2818.054953 2541.977773 2669.255134 C 2529.64262 2818.054953 2519.632947 2828.156773 2370.903361 2840.480995 C 2519.632947 2852.906234 2529.64262 2862.907037 2541.977773 3011.706856 C 2554.414033 2862.907037 2564.423706 2852.906234 2713.153292 2840.480995 Z M 2713.153292 2840.480995 " stroke="#000000" stroke-width="38.945999" stroke-opacity="1" stroke-miterlimit="10"/></g><path fill="#ffffff" d="M 326.160156 208.605469 C 320.410156 209.082031 320.023438 209.46875 319.542969 215.222656 C 319.070312 209.46875 318.683594 209.082031 312.933594 208.605469 C 318.683594 208.125 319.070312 207.738281 319.542969 201.984375 C 320.023438 207.738281 320.410156 208.125 326.160156 208.605469 " fill-opacity="1" fill-rule="nonzero"/><path stroke-linecap="round" transform="matrix(0.0386345, 0, 0, -0.0386688, 247.877887, 269.802755)" fill="none" stroke-linejoin="round" d="M 2026.226844 1582.602279 C 1877.39615 1570.278057 1867.386477 1560.277255 1854.950217 1411.477436 C 1842.716172 1560.277255 1832.706499 1570.278057 1683.875806 1582.602279 C 1832.706499 1595.027518 1842.716172 1605.028321 1854.950217 1753.82814 C 1867.386477 1605.028321 1877.39615 1595.027518 2026.226844 1582.602279 Z M 2026.226844 1582.602279 " stroke="#000000" stroke-width="38.945999" stroke-opacity="1" stroke-miterlimit="10"/></svg>