<svg width="27" height="25" viewBox="0 0 27 25" fill="none" xmlns="http://www.w3.org/2000/svg">
<path d="M11.1719 9.6543C12.0382 10.0289 12.8245 10.5525 13.5 11.1924C13.0837 11.5868 12.7088 12.0246 12.3848 12.5C12.7087 12.9753 13.0839 13.4123 13.5 13.8066C12.8245 14.4467 12.0383 14.9701 11.1719 15.3447C11.0595 15.8788 11 16.4325 11 17C11 19.2872 11.9612 21.3486 13.5 22.8066C12.0662 24.1652 10.1311 25 8 25C3.58172 25 0 21.4183 0 17C0 15.3314 0.510918 13.7821 1.38477 12.5C2.82475 14.6127 5.25034 16 8 16C9.12715 16 10.1992 15.7654 11.1719 15.3447C11.3899 14.3085 11.8081 13.346 12.3848 12.5C11.808 11.6537 11.3898 10.6909 11.1719 9.6543ZM25.6143 12.5C26.4883 13.7822 27 15.3312 27 17C27 21.4183 23.4183 25 19 25C16.8689 25 14.9338 24.1652 13.5 22.8066C15.0388 21.3486 16 19.2872 16 17C16 16.4324 15.9396 15.8789 15.8271 15.3447C16.8001 15.7656 17.8725 16 19 16C21.7495 16 24.1742 14.6125 25.6143 12.5ZM14.6143 12.5C15.191 13.3461 15.6091 14.3084 15.8271 15.3447C14.9611 14.9701 14.1753 14.4465 13.5 13.8066C13.916 13.4125 14.2904 12.9751 14.6143 12.5ZM19 0C23.4183 0 27 3.58172 27 8C27 9.66882 26.4883 11.2178 25.6143 12.5C24.1742 10.3875 21.7495 9 19 9C17.8727 9 16.8 9.23354 15.8271 9.6543C15.9394 9.12042 16 8.56727 16 8C16 5.71261 15.0391 3.65042 13.5 2.19238C14.9338 0.834108 16.8691 0 19 0ZM8 0C10.1309 0 12.0662 0.834108 13.5 2.19238C11.9609 3.65042 11 5.71261 11 8C11 8.5672 11.0596 9.12048 11.1719 9.6543C10.1993 9.23376 9.12701 9 8 9C5.25034 9 2.82475 10.3873 1.38477 12.5C0.510918 11.2179 0 9.66862 0 8C0 3.58172 3.58172 0 8 0ZM15.8271 9.6543C15.6091 10.691 15.1912 11.6536 14.6143 12.5C14.2903 12.0247 13.9162 11.5867 13.5 11.1924C14.1752 10.5527 14.9612 10.0289 15.8271 9.6543Z" fill="#7C69ED"/>
</svg>
