<svg width="40" height="40" viewBox="0 0 40 40" fill="none" xmlns="http://www.w3.org/2000/svg">
<rect width="40" height="40" rx="20" fill="#383642"/>
<rect x="0.5" y="0.5" width="39" height="39" rx="19.5" stroke="#E8EAED" stroke-opacity="0.12"/>
<path d="M11 15.75H15C15.0663 15.75 15.1299 15.7764 15.1768 15.8232C15.2236 15.8701 15.25 15.9337 15.25 16V29C15.25 29.0663 15.2236 29.1299 15.1768 29.1768C15.1299 29.2236 15.0663 29.25 15 29.25H11C10.9337 29.25 10.8701 29.2236 10.8232 29.1768C10.7764 29.1299 10.75 29.0663 10.75 29V16C10.75 15.9337 10.7764 15.8701 10.8232 15.8232C10.8701 15.7764 10.9337 15.75 11 15.75ZM18 15.75H22C22.0663 15.75 22.1299 15.7764 22.1768 15.8232C22.2236 15.8701 22.25 15.9337 22.25 16V17.1934L22.9473 16.8936L23.3809 16.7061L23.3818 16.707C24.0836 16.4073 24.8279 16.2195 25.5879 16.1504C28.0749 15.9245 30.2499 17.8788 30.25 20.3799V29C30.25 29.0663 30.2236 29.1299 30.1768 29.1768C30.1299 29.2236 30.0663 29.25 30 29.25H26C25.9337 29.25 25.8701 29.2236 25.8232 29.1768C25.7764 29.1299 25.75 29.0663 25.75 29V22C25.75 21.5359 25.5655 21.0909 25.2373 20.7627C24.9091 20.4345 24.4641 20.25 24 20.25C23.5359 20.25 23.0909 20.4345 22.7627 20.7627C22.4345 21.0909 22.25 21.5359 22.25 22V29C22.25 29.0663 22.2236 29.1299 22.1768 29.1768C22.1299 29.2236 22.0663 29.25 22 29.25H18C17.9337 29.25 17.8701 29.2236 17.8232 29.1768C17.7764 29.1299 17.75 29.0663 17.75 29V16C17.75 15.9337 17.7764 15.8701 17.8232 15.8232C17.8701 15.7764 17.9337 15.75 18 15.75ZM11.25 28.75H14.75V16.25H11.25V28.75ZM18.25 28.75H21.75V22C21.75 21.4033 21.9872 20.8311 22.4092 20.4092C22.8311 19.9872 23.4033 19.75 24 19.75C24.5967 19.75 25.1689 19.9872 25.5908 20.4092C26.0128 20.8311 26.25 21.4033 26.25 22V28.75H29.75V20.3799C29.7499 18.2468 27.9505 16.5562 25.8398 16.6348L25.6348 16.6484C24.927 16.7127 24.2337 16.8871 23.5801 17.166L23.5791 17.167L22.0986 17.8018C22.0606 17.8181 22.0188 17.825 21.9775 17.8213C21.9364 17.8176 21.8968 17.803 21.8623 17.7803C21.8279 17.7575 21.7998 17.7267 21.7803 17.6904C21.7607 17.654 21.75 17.6127 21.75 17.5713V16.25H18.25V28.75ZM13 9.75C13.5967 9.75 14.1689 9.98722 14.5908 10.4092C15.0128 10.8311 15.25 11.4033 15.25 12C15.25 12.5967 15.0128 13.1689 14.5908 13.5908C14.1689 14.0128 13.5967 14.25 13 14.25C12.4033 14.25 11.8311 14.0128 11.4092 13.5908C10.9872 13.1689 10.75 12.5967 10.75 12L10.7607 11.7773C10.8119 11.2624 11.04 10.7783 11.4092 10.4092C11.7783 10.04 12.2624 9.81193 12.7773 9.76074L13 9.75ZM13 10.25C12.5359 10.25 12.0909 10.4345 11.7627 10.7627C11.4345 11.0909 11.25 11.5359 11.25 12C11.25 12.4641 11.4345 12.9091 11.7627 13.2373C12.0909 13.5655 12.5359 13.75 13 13.75C13.4641 13.75 13.9091 13.5655 14.2373 13.2373C14.5655 12.9091 14.75 12.4641 14.75 12C14.75 11.5359 14.5655 11.0909 14.2373 10.7627C13.9091 10.4345 13.4641 10.25 13 10.25Z" fill="#383642" stroke="white"/>
</svg>
