<svg width="48" height="48" viewBox="0 0 48 48" fill="none" xmlns="http://www.w3.org/2000/svg">
<rect width="48" height="48" rx="24" fill="url(#paint0_linear_1_156)"/>
<path fill-rule="evenodd" clip-rule="evenodd" d="M27 11.3333C27 11.2449 26.9649 11.1601 26.9024 11.0976C26.8399 11.0351 26.7551 11 26.6667 11H17.3334C16.3609 11 15.4283 11.3863 14.7406 12.0739C14.053 12.7616 13.6667 13.6942 13.6667 14.6667V33.3333C13.6667 34.3058 14.053 35.2384 14.7406 35.9261C15.4283 36.6137 16.3609 37 17.3334 37H30.6667C31.6391 37 32.5718 36.6137 33.2594 35.9261C33.947 35.2384 34.3334 34.3058 34.3334 33.3333V20.196C34.3334 20.1076 34.2982 20.0228 34.2357 19.9603C34.1732 19.8978 34.0884 19.8627 34 19.8627H28C27.7348 19.8627 27.4804 19.7573 27.2929 19.5698C27.1054 19.3822 27 19.1279 27 18.8627V11.3333ZM28 24.3333C28.2652 24.3333 28.5196 24.4387 28.7071 24.6262C28.8947 24.8138 29 25.0681 29 25.3333C29 25.5985 28.8947 25.8529 28.7071 26.0404C28.5196 26.228 28.2652 26.3333 28 26.3333H20C19.7348 26.3333 19.4805 26.228 19.2929 26.0404C19.1054 25.8529 19 25.5985 19 25.3333C19 25.0681 19.1054 24.8138 19.2929 24.6262C19.4805 24.4387 19.7348 24.3333 20 24.3333H28ZM28 29.6667C28.2652 29.6667 28.5196 29.772 28.7071 29.9596C28.8947 30.1471 29 30.4015 29 30.6667C29 30.9319 28.8947 31.1862 28.7071 31.3738C28.5196 31.5613 28.2652 31.6667 28 31.6667H20C19.7348 31.6667 19.4805 31.5613 19.2929 31.3738C19.1054 31.1862 19 30.9319 19 30.6667C19 30.4015 19.1054 30.1471 19.2929 29.9596C19.4805 29.772 19.7348 29.6667 20 29.6667H28Z" fill="white"/>
<path d="M29 11.7653C29 11.52 29.2573 11.364 29.448 11.5173C29.6098 11.648 29.7533 11.8 29.8787 11.9733L33.896 17.5693C33.9867 17.6973 33.888 17.8626 33.7307 17.8626H29.3333C29.2449 17.8626 29.1601 17.8275 29.0976 17.765C29.0351 17.7025 29 17.6177 29 17.5293V11.7653Z" fill="white"/>
<defs>
<linearGradient id="paint0_linear_1_156" x1="9" y1="6.5" x2="40.5" y2="42.5" gradientUnits="userSpaceOnUse">
<stop stop-color="#7C69ED"/>
<stop offset="1" stop-color="#D193EC"/>
</linearGradient>
</defs>
</svg>
