<svg width="112" height="29" viewBox="0 0 112 29" fill="none" xmlns="http://www.w3.org/2000/svg">
<path d="M11.1719 11.6543C12.0382 12.0289 12.8245 12.5525 13.5 13.1924C13.0837 13.5868 12.7088 14.0246 12.3848 14.5C12.7087 14.9753 13.0839 15.4123 13.5 15.8066C12.8245 16.4467 12.0383 16.9701 11.1719 17.3447C11.0595 17.8788 11 18.4325 11 19C11 21.2872 11.9612 23.3486 13.5 24.8066C12.0662 26.1652 10.1311 27 8 27C3.58172 27 0 23.4183 0 19C0 17.3314 0.510918 15.7821 1.38477 14.5C2.82475 16.6127 5.25034 18 8 18C9.12715 18 10.1992 17.7654 11.1719 17.3447C11.3899 16.3085 11.8081 15.346 12.3848 14.5C11.808 13.6537 11.3898 12.6909 11.1719 11.6543ZM25.6143 14.5C26.4883 15.7822 27 17.3312 27 19C27 23.4183 23.4183 27 19 27C16.8689 27 14.9338 26.1652 13.5 24.8066C15.0388 23.3486 16 21.2872 16 19C16 18.4324 15.9396 17.8789 15.8271 17.3447C16.8001 17.7656 17.8725 18 19 18C21.7495 18 24.1742 16.6125 25.6143 14.5ZM14.6143 14.5C15.191 15.3461 15.6091 16.3084 15.8271 17.3447C14.9611 16.9701 14.1753 16.4465 13.5 15.8066C13.916 15.4125 14.2904 14.9751 14.6143 14.5ZM19 2C23.4183 2 27 5.58172 27 10C27 11.6688 26.4883 13.2178 25.6143 14.5C24.1742 12.3875 21.7495 11 19 11C17.8727 11 16.8 11.2335 15.8271 11.6543C15.9394 11.1204 16 10.5673 16 10C16 7.71261 15.0391 5.65042 13.5 4.19238C14.9338 2.83411 16.8691 2 19 2ZM8 2C10.1309 2 12.0662 2.83411 13.5 4.19238C11.9609 5.65042 11 7.71261 11 10C11 10.5672 11.0596 11.1205 11.1719 11.6543C10.1993 11.2338 9.12701 11 8 11C5.25034 11 2.82475 12.3873 1.38477 14.5C0.510918 13.2179 0 11.6686 0 10C0 5.58172 3.58172 2 8 2ZM15.8271 11.6543C15.6091 12.691 15.1912 13.6536 14.6143 14.5C14.2903 14.0247 13.9162 13.5867 13.5 13.1924C14.1752 12.5527 14.9612 12.0289 15.8271 11.6543Z" fill="#7C69ED"/>
<path d="M44.4729 23.24C42.8569 23.24 41.4609 22.864 40.2849 22.112C39.1089 21.36 38.2009 20.304 37.5609 18.944C36.9289 17.584 36.6129 15.996 36.6129 14.18C36.6129 12.356 36.9289 10.792 37.5609 9.488C38.1929 8.176 39.0969 7.168 40.2729 6.464C41.4489 5.76 42.8489 5.408 44.4729 5.408C45.7769 5.408 46.9369 5.672 47.9529 6.2C48.9769 6.72 49.8009 7.432 50.4249 8.336C51.0569 9.24 51.4289 10.26 51.5409 11.396H47.8689C47.7569 10.796 47.5529 10.264 47.2569 9.8C46.9609 9.328 46.5729 8.96 46.0929 8.696C45.6129 8.424 45.0369 8.288 44.3649 8.288C43.5569 8.288 42.8609 8.484 42.2769 8.876C41.6929 9.268 41.2449 9.9 40.9329 10.772C40.6209 11.644 40.4649 12.796 40.4649 14.228C40.4649 16.388 40.8089 17.952 41.4969 18.92C42.1929 19.88 43.1489 20.36 44.3649 20.36C45.0369 20.36 45.6129 20.208 46.0929 19.904C46.5729 19.592 46.9609 19.184 47.2569 18.68C47.5529 18.168 47.7569 17.608 47.8689 17H51.5409C51.4369 17.824 51.2369 18.612 50.9409 19.364C50.6449 20.108 50.2249 20.772 49.6809 21.356C49.1369 21.94 48.4369 22.4 47.5809 22.736C46.7249 23.072 45.6889 23.24 44.4729 23.24ZM58.7595 23.24C58.1835 23.24 57.6155 23.152 57.0555 22.976C56.5035 22.8 55.9995 22.54 55.5435 22.196C55.0875 21.852 54.7195 21.428 54.4395 20.924C54.1675 20.42 54.0315 19.836 54.0315 19.172V10.592H57.5355V18.728C57.5355 19.304 57.7235 19.776 58.0995 20.144C58.4755 20.512 59.0275 20.696 59.7555 20.696C60.4435 20.696 60.9875 20.52 61.3875 20.168C61.7955 19.808 61.9995 19.308 61.9995 18.668V10.592H65.4675V23H62.8275L62.4195 20.54C62.2755 21.268 62.0035 21.828 61.6035 22.22C61.2115 22.604 60.7595 22.868 60.2475 23.012C59.7435 23.164 59.2475 23.24 58.7595 23.24ZM68.5312 23V10.592H71.9033V13.532C72.1033 12.9 72.3833 12.348 72.7433 11.876C73.1113 11.396 73.5553 11.024 74.0753 10.76C74.5953 10.488 75.1833 10.352 75.8393 10.352C75.9513 10.352 76.0553 10.36 76.1513 10.376C76.2553 10.384 76.3313 10.4 76.3793 10.424V13.76C76.3073 13.728 76.2193 13.708 76.1153 13.7C76.0193 13.692 75.9313 13.684 75.8513 13.676C75.1633 13.62 74.5753 13.64 74.0872 13.736C73.5993 13.832 73.2033 13.996 72.8993 14.228C72.5953 14.46 72.3753 14.744 72.2393 15.08C72.1033 15.416 72.0353 15.792 72.0353 16.208V23H68.5312ZM84.0984 23.24C82.8664 23.24 81.7824 22.984 80.8464 22.472C79.9184 21.952 79.1944 21.22 78.6744 20.276C78.1544 19.332 77.8944 18.22 77.8944 16.94C77.8944 15.7 78.1304 14.584 78.6024 13.592C79.0824 12.592 79.7704 11.804 80.6664 11.228C81.5624 10.644 82.6464 10.352 83.9184 10.352C85.1824 10.352 86.2424 10.62 87.0984 11.156C87.9544 11.684 88.6024 12.424 89.0424 13.376C89.4824 14.32 89.7024 15.412 89.7024 16.652V17.6H81.3624C81.3624 18.232 81.4664 18.784 81.6744 19.256C81.8824 19.72 82.1824 20.08 82.5744 20.336C82.9744 20.584 83.4544 20.708 84.0144 20.708C84.6144 20.708 85.1384 20.58 85.5864 20.324C86.0344 20.068 86.3504 19.648 86.5344 19.064H89.6904C89.5464 19.944 89.1944 20.696 88.6344 21.32C88.0744 21.944 87.3944 22.42 86.5944 22.748C85.7944 23.076 84.9624 23.24 84.0984 23.24ZM81.3624 15.512H86.4264C86.4264 15.016 86.3304 14.56 86.1384 14.144C85.9544 13.728 85.6744 13.4 85.2984 13.16C84.9304 12.92 84.4664 12.8 83.9064 12.8C83.3704 12.8 82.9104 12.932 82.5264 13.196C82.1504 13.452 81.8584 13.788 81.6504 14.204C81.4504 14.62 81.3544 15.056 81.3624 15.512ZM96.1866 23.216C95.2746 23.216 94.5506 23.108 94.0146 22.892C93.4786 22.676 93.0826 22.392 92.8266 22.04C92.5706 21.68 92.4066 21.284 92.3346 20.852C92.2626 20.412 92.2266 19.968 92.2266 19.52V5.168H95.6586V19.088C95.6586 19.544 95.7546 19.916 95.9466 20.204C96.1466 20.484 96.5186 20.656 97.0626 20.72L97.6506 20.756V22.916C97.4106 22.996 97.1666 23.064 96.9186 23.12C96.6706 23.184 96.4266 23.216 96.1866 23.216ZM101.46 26.96C100.612 26.96 100.012 26.888 99.6596 26.744C99.3076 26.608 99.1316 26.54 99.1316 26.54V24.308L100.368 24.356C100.904 24.388 101.336 24.36 101.664 24.272C101.992 24.192 102.24 24.084 102.408 23.948C102.576 23.812 102.696 23.668 102.768 23.516C102.848 23.372 102.904 23.256 102.936 23.168L103.164 22.484L98.3396 10.592H101.808L104.784 18.68L107.784 10.592H111.216L106.188 23.072C105.756 24.128 105.296 24.936 104.808 25.496C104.328 26.056 103.808 26.44 103.248 26.648C102.696 26.856 102.1 26.96 101.46 26.96Z" fill="#7C69ED"/>
</svg>
