<svg width="98" height="18" viewBox="0 0 98 18" fill="none" xmlns="http://www.w3.org/2000/svg">
<path d="M8.52772 1.35869C8.68337 0.910913 9.31663 0.910914 9.47228 1.35869L11.0018 5.7589C11.0705 5.95643 11.2548 6.09037 11.4639 6.09463L16.1214 6.18954C16.5953 6.1992 16.791 6.80147 16.4133 7.08787L12.7011 9.90226C12.5344 10.0286 12.464 10.2453 12.5246 10.4455L13.8735 14.9043C14.0108 15.3581 13.4985 15.7303 13.1094 15.4595L9.28559 12.7987C9.11393 12.6793 8.88607 12.6793 8.71441 12.7987L4.89064 15.4595C4.50152 15.7303 3.98919 15.3581 4.12647 14.9043L5.47544 10.4455C5.536 10.2453 5.46559 10.0286 5.29894 9.90226L1.58674 7.08787C1.20898 6.80147 1.40467 6.1992 1.87863 6.18954L6.53612 6.09463C6.7452 6.09037 6.92955 5.95643 6.99821 5.7589L8.52772 1.35869Z" fill="#FFBD07"/>
<path d="M28.5277 1.35869C28.6834 0.910913 29.3166 0.910914 29.4723 1.35869L31.0018 5.7589C31.0705 5.95643 31.2548 6.09037 31.4639 6.09463L36.1214 6.18954C36.5953 6.1992 36.791 6.80147 36.4133 7.08787L32.7011 9.90226C32.5344 10.0286 32.464 10.2453 32.5246 10.4455L33.8735 14.9043C34.0108 15.3581 33.4985 15.7303 33.1094 15.4595L29.2856 12.7987C29.1139 12.6793 28.8861 12.6793 28.7144 12.7987L24.8906 15.4595C24.5015 15.7303 23.9892 15.3581 24.1265 14.9043L25.4754 10.4455C25.536 10.2453 25.4656 10.0286 25.2989 9.90226L21.5867 7.08787C21.209 6.80147 21.4047 6.1992 21.8786 6.18954L26.5361 6.09463C26.7452 6.09037 26.9295 5.95643 26.9982 5.7589L28.5277 1.35869Z" fill="#FFBD07"/>
<path d="M48.5277 1.35869C48.6834 0.910913 49.3166 0.910914 49.4723 1.35869L51.0018 5.7589C51.0705 5.95643 51.2548 6.09037 51.4639 6.09463L56.1214 6.18954C56.5953 6.1992 56.791 6.80147 56.4133 7.08787L52.7011 9.90226C52.5344 10.0286 52.464 10.2453 52.5246 10.4455L53.8735 14.9043C54.0108 15.3581 53.4985 15.7303 53.1094 15.4595L49.2856 12.7987C49.1139 12.6793 48.8861 12.6793 48.7144 12.7987L44.8906 15.4595C44.5015 15.7303 43.9892 15.3581 44.1265 14.9043L45.4754 10.4455C45.536 10.2453 45.4656 10.0286 45.2989 9.90226L41.5867 7.08787C41.209 6.80147 41.4047 6.1992 41.8786 6.18954L46.5361 6.09463C46.7452 6.09037 46.9295 5.95643 46.9982 5.7589L48.5277 1.35869Z" fill="#FFBD07"/>
<path d="M68.5277 1.35869C68.6834 0.910913 69.3166 0.910914 69.4723 1.35869L71.0018 5.7589C71.0705 5.95643 71.2548 6.09037 71.4639 6.09463L76.1214 6.18954C76.5953 6.1992 76.791 6.80147 76.4133 7.08787L72.7011 9.90226C72.5344 10.0286 72.464 10.2453 72.5246 10.4455L73.8735 14.9043C74.0108 15.3581 73.4985 15.7303 73.1094 15.4595L69.2856 12.7987C69.1139 12.6793 68.8861 12.6793 68.7144 12.7987L64.8906 15.4595C64.5015 15.7303 63.9892 15.3581 64.1265 14.9043L65.4754 10.4455C65.536 10.2453 65.4656 10.0286 65.2989 9.90226L61.5867 7.08787C61.209 6.80147 61.4047 6.1992 61.8786 6.18954L66.5361 6.09463C66.7452 6.09037 66.9295 5.95643 66.9982 5.7589L68.5277 1.35869Z" fill="#FFBD07"/>
<path d="M88.5277 1.35869C88.6834 0.910913 89.3166 0.910914 89.4723 1.35869L91.0018 5.7589C91.0705 5.95643 91.2548 6.09037 91.4639 6.09463L96.1214 6.18954C96.5953 6.1992 96.791 6.80147 96.4133 7.08787L92.7011 9.90226C92.5344 10.0286 92.464 10.2453 92.5246 10.4455L93.8735 14.9043C94.0108 15.3581 93.4985 15.7303 93.1094 15.4595L89.2856 12.7987C89.1139 12.6793 88.8861 12.6793 88.7144 12.7987L84.8906 15.4595C84.5015 15.7303 83.9892 15.3581 84.1265 14.9043L85.4754 10.4455C85.536 10.2453 85.4656 10.0286 85.2989 9.90226L81.5867 7.08787C81.209 6.80147 81.4047 6.1992 81.8786 6.18954L86.5361 6.09463C86.7452 6.09037 86.9295 5.95643 86.9982 5.7589L88.5277 1.35869Z" fill="#FFBD07"/>
</svg>
