<svg width="48" height="48" viewBox="0 0 48 48" fill="none" xmlns="http://www.w3.org/2000/svg">
<rect width="48" height="48" rx="24" fill="url(#paint0_linear_1_101)"/>
<path d="M18.3333 11.3334C18.3333 11.0682 18.228 10.8138 18.0404 10.6263C17.8529 10.4387 17.5986 10.3334 17.3333 10.3334C17.0681 10.3334 16.8138 10.4387 16.6262 10.6263C16.4387 10.8138 16.3333 11.0682 16.3333 11.3334V13.44C14.4133 13.5934 13.1547 13.9694 12.2293 14.896C11.3027 15.8214 10.9267 17.0814 10.772 19H37.228C37.0733 17.08 36.6973 15.8214 35.7707 14.896C34.8453 13.9694 33.5853 13.5934 31.6667 13.4387V11.3334C31.6667 11.0682 31.5613 10.8138 31.3738 10.6263C31.1862 10.4387 30.9319 10.3334 30.6667 10.3334C30.4015 10.3334 30.1471 10.4387 29.9596 10.6263C29.772 10.8138 29.6667 11.0682 29.6667 11.3334V13.3507C28.78 13.3334 27.7853 13.3334 26.6667 13.3334H21.3333C20.2147 13.3334 19.22 13.3334 18.3333 13.3507V11.3334Z" fill="white"/>
<path fill-rule="evenodd" clip-rule="evenodd" d="M10.6667 24C10.6667 22.8813 10.6667 21.8867 10.684 21H37.316C37.3333 21.8867 37.3333 22.8813 37.3333 24V26.6667C37.3333 31.6947 37.3333 34.2093 35.7707 35.7707C34.208 37.332 31.6947 37.3333 26.6667 37.3333H21.3333C16.3053 37.3333 13.7907 37.3333 12.2293 35.7707C10.668 34.208 10.6667 31.6947 10.6667 26.6667V24ZM30.6667 26.6667C31.0203 26.6667 31.3594 26.5262 31.6095 26.2761C31.8595 26.0261 32 25.687 32 25.3333C32 24.9797 31.8595 24.6406 31.6095 24.3905C31.3594 24.1405 31.0203 24 30.6667 24C30.313 24 29.9739 24.1405 29.7239 24.3905C29.4738 24.6406 29.3333 24.9797 29.3333 25.3333C29.3333 25.687 29.4738 26.0261 29.7239 26.2761C29.9739 26.5262 30.313 26.6667 30.6667 26.6667ZM30.6667 32C31.0203 32 31.3594 31.8595 31.6095 31.6095C31.8595 31.3594 32 31.0203 32 30.6667C32 30.313 31.8595 29.9739 31.6095 29.7239C31.3594 29.4738 31.0203 29.3333 30.6667 29.3333C30.313 29.3333 29.9739 29.4738 29.7239 29.7239C29.4738 29.9739 29.3333 30.313 29.3333 30.6667C29.3333 31.0203 29.4738 31.3594 29.7239 31.6095C29.9739 31.8595 30.313 32 30.6667 32ZM25.3333 25.3333C25.3333 25.687 25.1929 26.0261 24.9428 26.2761C24.6928 26.5262 24.3536 26.6667 24 26.6667C23.6464 26.6667 23.3072 26.5262 23.0572 26.2761C22.8071 26.0261 22.6667 25.687 22.6667 25.3333C22.6667 24.9797 22.8071 24.6406 23.0572 24.3905C23.3072 24.1405 23.6464 24 24 24C24.3536 24 24.6928 24.1405 24.9428 24.3905C25.1929 24.6406 25.3333 24.9797 25.3333 25.3333ZM25.3333 30.6667C25.3333 31.0203 25.1929 31.3594 24.9428 31.6095C24.6928 31.8595 24.3536 32 24 32C23.6464 32 23.3072 31.8595 23.0572 31.6095C22.8071 31.3594 22.6667 31.0203 22.6667 30.6667C22.6667 30.313 22.8071 29.9739 23.0572 29.7239C23.3072 29.4738 23.6464 29.3333 24 29.3333C24.3536 29.3333 24.6928 29.4738 24.9428 29.7239C25.1929 29.9739 25.3333 30.313 25.3333 30.6667ZM17.3333 26.6667C17.687 26.6667 18.0261 26.5262 18.2761 26.2761C18.5262 26.0261 18.6667 25.687 18.6667 25.3333C18.6667 24.9797 18.5262 24.6406 18.2761 24.3905C18.0261 24.1405 17.687 24 17.3333 24C16.9797 24 16.6406 24.1405 16.3905 24.3905C16.1405 24.6406 16 24.9797 16 25.3333C16 25.687 16.1405 26.0261 16.3905 26.2761C16.6406 26.5262 16.9797 26.6667 17.3333 26.6667ZM17.3333 32C17.687 32 18.0261 31.8595 18.2761 31.6095C18.5262 31.3594 18.6667 31.0203 18.6667 30.6667C18.6667 30.313 18.5262 29.9739 18.2761 29.7239C18.0261 29.4738 17.687 29.3333 17.3333 29.3333C16.9797 29.3333 16.6406 29.4738 16.3905 29.7239C16.1405 29.9739 16 30.313 16 30.6667C16 31.0203 16.1405 31.3594 16.3905 31.6095C16.6406 31.8595 16.9797 32 17.3333 32Z" fill="white"/>
<defs>
<linearGradient id="paint0_linear_1_101" x1="9" y1="6.5" x2="40.5" y2="42.5" gradientUnits="userSpaceOnUse">
<stop stop-color="#7C69ED"/>
<stop offset="1" stop-color="#D193EC"/>
</linearGradient>
</defs>
</svg>
