<svg width="40" height="40" viewBox="0 0 40 40" fill="none" xmlns="http://www.w3.org/2000/svg">
<rect width="40" height="40" rx="20" fill="#383642"/>
<rect x="0.5" y="0.5" width="39" height="39" rx="19.5" stroke="#E8EAED" stroke-opacity="0.12"/>
<path d="M23.35 13.5501C22.59 13.55 21.8603 13.8482 21.3179 14.3807C20.7755 14.9131 20.4639 15.6372 20.45 16.3971L20.422 17.9721C20.4204 18.0567 20.4009 18.1399 20.3648 18.2164C20.3287 18.2929 20.2769 18.3609 20.2126 18.416C20.1484 18.471 20.0733 18.5119 19.9922 18.5359C19.9111 18.5599 19.8258 18.5664 19.742 18.5551L18.18 18.3431C16.127 18.0631 14.159 17.1171 12.27 15.5441C11.673 18.8541 12.84 21.1471 15.653 22.9161L17.4 24.0141C17.4831 24.0662 17.5521 24.1378 17.6011 24.2228C17.65 24.3077 17.6775 24.4033 17.6809 24.5013C17.6844 24.5993 17.6638 24.6966 17.6209 24.7848C17.578 24.873 17.5142 24.9493 17.435 25.0071L15.843 26.1701C16.79 26.2291 17.689 26.1871 18.435 26.0391C23.153 25.0971 26.29 21.5471 26.29 15.6911C26.29 15.2131 25.277 13.5501 23.35 13.5501ZM18.45 16.3601C18.4675 15.3962 18.7689 14.4588 19.3166 13.6653C19.8642 12.8719 20.6338 12.2576 21.5289 11.8995C22.424 11.5413 23.4049 11.4552 24.3487 11.6519C25.2926 11.8485 26.1574 12.3193 26.835 13.0051C27.546 13.0001 28.151 13.1801 29.503 12.3601C29.169 14.0001 29.003 14.7121 28.29 15.6911C28.29 23.3331 23.593 27.0491 18.826 28.0001C15.559 28.6521 10.806 27.5811 9.446 26.1591C10.139 26.1051 12.959 25.8021 14.589 24.6091C13.209 23.6991 7.721 20.4691 11.328 11.7861C13.0213 13.7634 14.738 15.1091 16.478 15.8231C17.635 16.2981 17.92 16.2891 18.451 16.3611" fill="white"/>
</svg>
