<svg width="48" height="48" viewBox="0 0 48 48" fill="none" xmlns="http://www.w3.org/2000/svg">
<rect width="48" height="48" rx="24" fill="url(#paint0_linear_1_115)"/>
<path d="M24 22.6667C25.4145 22.6667 26.7711 22.1048 27.7713 21.1046C28.7715 20.1044 29.3334 18.7478 29.3334 17.3333C29.3334 15.9188 28.7715 14.5623 27.7713 13.5621C26.7711 12.5619 25.4145 12 24 12C22.5855 12 21.229 12.5619 20.2288 13.5621C19.2286 14.5623 18.6667 15.9188 18.6667 17.3333C18.6667 18.7478 19.2286 20.1044 20.2288 21.1046C21.229 22.1048 22.5855 22.6667 24 22.6667Z" fill="white"/>
<path fill-rule="evenodd" clip-rule="evenodd" d="M12 30.3693C12 28.6801 12.6711 27.06 13.8655 25.8655C15.06 24.6711 16.6801 24 18.3693 24C18.772 24 19.1693 24.0933 19.5293 24.2733L19.6773 24.348C20.9731 24.9959 22.4019 25.3332 23.8507 25.3333H24.148C25.5972 25.3334 27.0265 24.9961 28.3227 24.348L28.4707 24.2733C28.8307 24.0933 29.228 24 29.6307 24C31.3199 24 32.94 24.6711 34.1345 25.8655C35.3289 27.06 36 28.6801 36 30.3693V36H12V30.3693ZM29 31V32.3333H31V31H32.3333V29H31V27.6667H29V29H27.6667V31H29Z" fill="white"/>
<defs>
<linearGradient id="paint0_linear_1_115" x1="9" y1="6.5" x2="40.5" y2="42.5" gradientUnits="userSpaceOnUse">
<stop stop-color="#7C69ED"/>
<stop offset="1" stop-color="#D193EC"/>
</linearGradient>
</defs>
</svg>
